<?xml version="1.0" encoding="UTF-8" standalone="no"?>
<svg
   width="3762"
   height="1900"
   xml:space="preserve"
   overflow="hidden"
   version="1.1"
   id="svg273"
   sodipodi:docname="concept-constellation.svg"
   inkscape:version="1.1 (c68e22c387, 2021-05-23)"
   xmlns:inkscape="http://www.inkscape.org/namespaces/inkscape"
   xmlns:sodipodi="http://sodipodi.sourceforge.net/DTD/sodipodi-0.dtd"
   xmlns="http://www.w3.org/2000/svg"
   xmlns:svg="http://www.w3.org/2000/svg"><sodipodi:namedview
     id="namedview275"
     pagecolor="#ffffff"
     bordercolor="#666666"
     borderopacity="1.0"
     inkscape:pageshadow="2"
     inkscape:pageopacity="0.0"
     inkscape:pagecheckerboard="0"
     showgrid="false"
     inkscape:zoom="0.3328017"
     inkscape:cx="2191.996"
     inkscape:cy="1391.2188"
     inkscape:window-width="2560"
     inkscape:window-height="1350"
     inkscape:window-x="-9"
     inkscape:window-y="-9"
     inkscape:window-maximized="1"
     inkscape:current-layer="svg273" /><defs
     id="defs119"><filter
       id="fx0"
       x="-10%"
       y="-10%"
       width="120%"
       height="120%"
       filterUnits="userSpaceOnUse"
       primitiveUnits="userSpaceOnUse"><feComponentTransfer
         color-interpolation-filters="sRGB"
         id="feComponentTransfer10"><feFuncR
           type="discrete"
           tableValues="0 0"
           id="feFuncR2" /><feFuncG
           type="discrete"
           tableValues="0 0"
           id="feFuncG4" /><feFuncB
           type="discrete"
           tableValues="0 0"
           id="feFuncB6" /><feFuncA
           type="linear"
           slope="0.4"
           intercept="0"
           id="feFuncA8" /></feComponentTransfer><feGaussianBlur
         stdDeviation="6.11111 6.11111"
         id="feGaussianBlur12" /></filter><filter
       id="fx1"
       x="-10%"
       y="-10%"
       width="120%"
       height="120%"
       filterUnits="userSpaceOnUse"
       primitiveUnits="userSpaceOnUse"><feComponentTransfer
         color-interpolation-filters="sRGB"
         id="feComponentTransfer23"><feFuncR
           type="discrete"
           tableValues="0 0"
           id="feFuncR15" /><feFuncG
           type="discrete"
           tableValues="0 0"
           id="feFuncG17" /><feFuncB
           type="discrete"
           tableValues="0 0"
           id="feFuncB19" /><feFuncA
           type="linear"
           slope="0.4"
           intercept="0"
           id="feFuncA21" /></feComponentTransfer><feGaussianBlur
         stdDeviation="6.11111 6.11111"
         id="feGaussianBlur25" /></filter><filter
       id="fx2"
       x="-10%"
       y="-10%"
       width="120%"
       height="120%"
       filterUnits="userSpaceOnUse"
       primitiveUnits="userSpaceOnUse"><feComponentTransfer
         color-interpolation-filters="sRGB"
         id="feComponentTransfer36"><feFuncR
           type="discrete"
           tableValues="0 0"
           id="feFuncR28" /><feFuncG
           type="discrete"
           tableValues="0 0"
           id="feFuncG30" /><feFuncB
           type="discrete"
           tableValues="0 0"
           id="feFuncB32" /><feFuncA
           type="linear"
           slope="0.4"
           intercept="0"
           id="feFuncA34" /></feComponentTransfer><feGaussianBlur
         stdDeviation="6.11111 6.11111"
         id="feGaussianBlur38" /></filter><clipPath
       id="clip3"><rect
         x="451"
         y="359"
         width="3762"
         height="1900"
         id="rect41" /></clipPath><clipPath
       id="clip4"><rect
         x="-3"
         y="-3"
         width="2474"
         height="1394"
         id="rect44" /></clipPath><clipPath
       id="clip5"><rect
         x="0"
         y="0"
         width="2470"
         height="1387"
         id="rect47" /></clipPath><clipPath
       id="clip6"><rect
         x="2535"
         y="958"
         width="276"
         height="277"
         id="rect50" /></clipPath><clipPath
       id="clip7"><rect
         x="2535"
         y="958"
         width="276"
         height="277"
         id="rect53" /></clipPath><clipPath
       id="clip8"><rect
         x="2535"
         y="958"
         width="276"
         height="277"
         id="rect56" /></clipPath><clipPath
       id="clip9"><rect
         x="3346"
         y="969"
         width="261"
         height="268"
         id="rect59" /></clipPath><clipPath
       id="clip10"><rect
         x="3346"
         y="969"
         width="261"
         height="268"
         id="rect62" /></clipPath><clipPath
       id="clip11"><rect
         x="3346"
         y="969"
         width="261"
         height="268"
         id="rect65" /></clipPath><clipPath
       id="clip12"><rect
         x="865"
         y="1545"
         width="268"
         height="267"
         id="rect68" /></clipPath><clipPath
       id="clip13"><rect
         x="865"
         y="1545"
         width="268"
         height="267"
         id="rect71" /></clipPath><clipPath
       id="clip14"><rect
         x="865"
         y="1545"
         width="268"
         height="267"
         id="rect74" /></clipPath><clipPath
       id="clip15"><rect
         x="2151"
         y="1523"
         width="320"
         height="310"
         id="rect77" /></clipPath><clipPath
       id="clip16"><rect
         x="2151"
         y="1523"
         width="320"
         height="310"
         id="rect80" /></clipPath><clipPath
       id="clip17"><rect
         x="2151"
         y="1523"
         width="320"
         height="310"
         id="rect83" /></clipPath><clipPath
       id="clip18"><path
         d="M1515.5 502.5 1515.5 683.786 1763.63 683.786 1763.63 711.75 1728.75 711.75 1798.5 781.5 1868.25 711.75 1833.38 711.75 1833.38 683.786 2081.5 683.786 2081.5 502.5ZM451 359 4213 359 4213 2259 451 2259Z"
         fill-rule="evenodd"
         clip-rule="evenodd"
         id="path86" /></clipPath><clipPath
       id="clip19"><rect
         x="-3"
         y="-3"
         width="616"
         height="331"
         id="rect89" /></clipPath><clipPath
       id="clip20"><rect
         x="0"
         y="0"
         width="611"
         height="324"
         id="rect92" /></clipPath><clipPath
       id="clip21"><rect
         x="35"
         y="25"
         width="358"
         height="165"
         id="rect95" /></clipPath><clipPath
       id="clip22"><rect
         x="0"
         y="0"
         width="446"
         height="237"
         id="rect98" /></clipPath><clipPath
       id="clip23"><rect
         x="1068"
         y="953"
         width="250"
         height="239"
         id="rect101" /></clipPath><clipPath
       id="clip24"><rect
         x="1068"
         y="953"
         width="250"
         height="239"
         id="rect104" /></clipPath><clipPath
       id="clip25"><rect
         x="1068"
         y="953"
         width="250"
         height="239"
         id="rect107" /></clipPath><clipPath
       id="clip26"><rect
         x="3043"
         y="1534"
         width="320"
         height="294"
         id="rect110" /></clipPath><clipPath
       id="clip27"><rect
         x="3043"
         y="1534"
         width="320"
         height="294"
         id="rect113" /></clipPath><clipPath
       id="clip28"><rect
         x="3043"
         y="1534"
         width="320"
         height="294"
         id="rect116" /></clipPath></defs><rect
     x="0"
     y="0"
     width="3762"
     height="1900"
     fill="#ffffff"
     id="rect121" /><g
     clip-path="url(#clip4)"
     filter="url(#fx0)"
     transform="translate(912,264)"
     id="g127"><g
       clip-path="url(#clip5)"
       id="g125"><path
         d="M 19.7227,244.227 C 19.7227,120.236 120.236,19.7225 244.227,19.7225 H 2225.22 c 123.99,0 224.5,100.5135 224.5,224.5045 v 897.993 c 0,123.99 -100.51,224.5 -224.5,224.5 H 244.227 c -123.991,0 -224.5043,-100.51 -224.5043,-224.5 z"
         fill="#f2f2f2"
         fill-rule="evenodd"
         id="path123" /></g></g><path
     d="M 922,498.504 C 922,374.514 1022.51,274 1146.5,274 h 1981 c 123.99,0 224.5,100.514 224.5,224.504 V 1396.5 c 0,123.99 -100.51,224.5 -224.5,224.5 h -1981 C 1022.51,1621 922,1520.49 922,1396.5 Z"
     fill="#f2f2f2"
     fill-rule="evenodd"
     id="path129" /><path
     d="m 1068.8,395.5 h 2125.7 v 1114 H 1068.8 V 1377.24 H 685.5 V 1267.8 h 383.3 z"
     stroke="#000000"
     stroke-width="6.875"
     stroke-miterlimit="8"
     stroke-dasharray="27.5, 20.625"
     fill="#90ff99"
     fill-rule="evenodd"
     id="path131" /><path
     d="M 1499.5,624 1402,683.22 V 792.78 L 1499.5,852 1597,792.78 V 683.22 Z m 89.1,60.84 -41.07,24.94 -89.1,-54.12 41.07,-24.938 z m -89.1,54.11 -89.1,-54.11 42.5,-25.82 89.1,54.12 z m -91.76,-49.01 88.89,53.99 v 99.61 l -88.89,-53.99 z m 94.63,153.6 v -99.61 l 88.9,-53.99 v 99.61 z"
     fill-rule="evenodd"
     id="path133" /><path
     d="m 1516.81,748.69 -2.81,1.67 V 775 l 8.75,-5.17 14.45,-8.53 2.8,-1.66 V 735 l -8.75,5.17 z m 17.41,7.73 -14.44,8.53 v -11.38 l 14.44,-8.53 z"
     fill-rule="evenodd"
     id="path135" /><path
     d="M 1159,599.169 C 1159,539.429 1207.43,491 1267.17,491 h 1179.66 c 59.74,0 108.17,48.429 108.17,108.169 v 432.661 c 0,59.74 -48.43,108.17 -108.17,108.17 H 1267.17 C 1207.43,1140 1159,1091.57 1159,1031.83 Z"
     stroke="#326ce5"
     stroke-width="8.02083"
     stroke-miterlimit="8"
     fill="none"
     fill-rule="evenodd"
     id="path137" /><g
     clip-path="url(#clip6)"
     id="g147"
     transform="translate(-451,-359)"><g
       clip-path="url(#clip7)"
       id="g145"><g
         clip-path="url(#clip8)"
         id="g143"><path
           d="M 140.875,24.9003 43.125,84.1425 V 193.758 l 97.75,59.242 97.75,-59.242 V 84.1425 Z M 230.204,85.764 189.031,110.716 99.702,56.5771 140.875,31.625 Z M 140.875,139.9 51.5458,85.764 94.1561,59.9379 183.485,114.077 Z M 48.8749,90.8643 138,144.883 v 99.65 L 48.8749,190.517 Z M 143.75,244.533 v -99.65 l 89.125,-54.0187 v 99.6527 z"
           transform="translate(2535,958)"
           id="path139" /><path
           d="m 158.041,149.83 -2.791,1.682 v 24.912 l 8.708,-5.224 14.375,-8.625 2.792,-1.682 v -24.906 l -8.709,5.224 z m 17.334,7.809 -14.375,8.625 v -11.5 l 14.375,-8.625 z"
           transform="translate(2535,958)"
           id="path141" /></g></g></g><g
     aria-label="Node BNode A"
     id="text151"
     style="font-size:63px;font-family:Roboto, Roboto_MSFontService, sans-serif"><path
       d="m 2159.4712,989 h -5.937 l -22.5484,-34.51465 V 989 h -5.937 v -44.78906 h 5.937 l 22.6099,34.66845 v -34.66845 h 5.8755 z"
       style="font-size:63px;font-family:Roboto, Roboto_MSFontService, sans-serif"
       id="path3765" /><path
       d="m 2167.5615,972.05029 q 0,-4.89111 1.9073,-8.79785 1.9379,-3.90674 5.3525,-6.0293 3.4453,-2.12255 7.8442,-2.12255 6.7984,0 10.982,4.70654 4.2143,4.70654 4.2143,12.52002 v 0.3999 q 0,4.86035 -1.8764,8.73633 -1.8458,3.84521 -5.3218,5.99853 -3.4453,2.15332 -7.9365,2.15332 -6.7676,0 -10.982,-4.70654 -4.1836,-4.70654 -4.1836,-12.45849 z m 5.7217,0.67676 q 0,5.53711 2.5532,8.89014 2.584,3.35302 6.8907,3.35302 4.3374,0 6.8906,-3.38378 2.5532,-3.41456 2.5532,-9.53614 0,-5.47558 -2.6147,-8.85937 -2.584,-3.41455 -6.8907,-3.41455 -4.2143,0 -6.7983,3.35302 -2.584,3.35303 -2.584,9.59766 z"
       style="font-size:63px;font-family:Roboto, Roboto_MSFontService, sans-serif"
       id="path3767" /><path
       d="m 2203.6143,972.08105 q 0,-7.65966 3.6298,-12.30468 3.6299,-4.67578 9.5054,-4.67578 5.8447,0 9.2593,3.99902 V 941.75 h 5.6909 V 989 h -5.2295 l -0.2768,-3.56836 q -3.4146,4.18359 -9.5054,4.18359 -5.7832,0 -9.4439,-4.7373 -3.6298,-4.73731 -3.6298,-12.36621 z m 5.6909,0.646 q 0,5.66016 2.3379,8.85938 2.3379,3.19921 6.4599,3.19921 5.4141,0 7.9058,-4.86035 v -15.28857 q -2.5532,-4.70654 -7.8442,-4.70654 -4.1836,0 -6.5215,3.22998 -2.3379,3.22998 -2.3379,9.56689 z"
       style="font-size:63px;font-family:Roboto, Roboto_MSFontService, sans-serif"
       id="path3769" /><path
       d="m 2254.3403,989.61523 q -6.7675,0 -11.0127,-4.42968 -4.2451,-4.46045 -4.2451,-11.90479 v -1.0459 q 0,-4.95263 1.8765,-8.82861 1.9072,-3.90674 5.291,-6.09082 3.4146,-2.21484 7.3828,-2.21484 6.4907,0 10.0899,4.27587 3.5991,4.27588 3.5991,12.24317 v 2.36865 h -22.5484 q 0.1231,4.92188 2.8609,7.96729 2.7685,3.01464 7.0136,3.01464 3.0147,0 5.1065,-1.23046 2.0918,-1.23047 3.6606,-3.26075 l 3.4761,2.70704 q -4.1836,6.42919 -12.5508,6.42919 z m -0.7075,-29.83886 q -3.4453,0 -5.7832,2.52246 -2.3379,2.4917 -2.8916,7.01367 h 16.6729 v -0.43066 q -0.2461,-4.33741 -2.3379,-6.70606 -2.0918,-2.39941 -5.6602,-2.39941 z"
       style="font-size:63px;font-family:Roboto, Roboto_MSFontService, sans-serif"
       id="path3771" /><path
       d="m 2290.3931,989 v -44.78906 h 14.6425 q 7.2906,0 10.9512,3.01465 3.6914,3.01464 3.6914,8.92089 0,3.1377 -1.7842,5.56788 -1.7841,2.39941 -4.8603,3.72216 3.6299,1.01514 5.7217,3.87598 2.1225,2.83008 2.1225,6.76758 0,6.02929 -3.9067,9.47461 Q 2313.0645,989 2305.9277,989 Z m 5.9062,-20.94873 v 16.11914 h 9.7515 q 4.1221,0 6.4907,-2.12256 2.3994,-2.15332 2.3994,-5.90625 0,-8.09033 -8.7978,-8.09033 z m 0,-4.73731 h 8.9209 q 3.876,0 6.1831,-1.93798 2.3379,-1.93799 2.3379,-5.26026 0,-3.6914 -2.1533,-5.35254 -2.1533,-1.69189 -6.5523,-1.69189 h -8.7363 z"
       style="font-size:63px;font-family:Roboto, Roboto_MSFontService, sans-serif"
       id="path3773" /><path
       d="m 1433.4191,989 h -5.937 l -22.5484,-34.51465 V 989 h -5.937 v -44.78906 h 5.937 l 22.6099,34.66845 v -34.66845 h 5.8755 z"
       id="path3775" /><path
       d="m 1441.5094,972.05029 q 0,-4.89111 1.9072,-8.79785 1.938,-3.90674 5.3526,-6.0293 3.4453,-2.12255 7.8442,-2.12255 6.7983,0 10.9819,4.70654 4.2144,4.70654 4.2144,12.52002 v 0.3999 q 0,4.86035 -1.8765,8.73633 -1.8457,3.84521 -5.3217,5.99853 -3.4454,2.15332 -7.9366,2.15332 -6.7676,0 -10.9819,-4.70654 -4.1836,-4.70654 -4.1836,-12.45849 z m 5.7217,0.67676 q 0,5.53711 2.5532,8.89014 2.584,3.35302 6.8906,3.35302 4.3374,0 6.8907,-3.38378 2.5532,-3.41456 2.5532,-9.53614 0,-5.47558 -2.6148,-8.85937 -2.584,-3.41455 -6.8906,-3.41455 -4.2144,0 -6.7983,3.35302 -2.584,3.35303 -2.584,9.59766 z"
       id="path3777" /><path
       d="m 1477.5621,972.08105 q 0,-7.65966 3.6299,-12.30468 3.6299,-4.67578 9.5054,-4.67578 5.8447,0 9.2593,3.99902 V 941.75 h 5.6909 V 989 h -5.2295 l -0.2769,-3.56836 q -3.4145,4.18359 -9.5053,4.18359 -5.7832,0 -9.4439,-4.7373 -3.6299,-4.73731 -3.6299,-12.36621 z m 5.691,0.646 q 0,5.66016 2.3378,8.85938 2.3379,3.19921 6.46,3.19921 5.4141,0 7.9058,-4.86035 v -15.28857 q -2.5533,-4.70654 -7.8443,-4.70654 -4.1836,0 -6.5215,3.22998 -2.3378,3.22998 -2.3378,9.56689 z"
       id="path3779" /><path
       d="m 1528.2882,989.61523 q -6.7676,0 -11.0127,-4.42968 -4.2451,-4.46045 -4.2451,-11.90479 v -1.0459 q 0,-4.95263 1.8765,-8.82861 1.9072,-3.90674 5.291,-6.09082 3.4145,-2.21484 7.3828,-2.21484 6.4907,0 10.0898,4.27587 3.5992,4.27588 3.5992,12.24317 v 2.36865 h -22.5484 q 0.1231,4.92188 2.8609,7.96729 2.7685,3.01464 7.0136,3.01464 3.0147,0 5.1065,-1.23046 2.0918,-1.23047 3.6606,-3.26075 l 3.4761,2.70704 q -4.1836,6.42919 -12.5508,6.42919 z m -0.7075,-29.83886 q -3.4453,0 -5.7832,2.52246 -2.3379,2.4917 -2.8916,7.01367 h 16.6728 v -0.43066 q -0.2461,-4.33741 -2.3379,-6.70606 -2.0918,-2.39941 -5.6601,-2.39941 z"
       id="path3781" /><path
       d="m 1589.0734,977.31055 h -18.7647 L 1566.0944,989 h -6.0909 l 17.1036,-44.78906 h 5.1679 L 1599.4093,989 h -6.0601 z m -16.9805,-4.86035 h 15.227 l -7.6289,-20.94874 z"
       id="path3783" /></g><path
     d="m 2629.5,790.06 h 240.35 v 6.88 H 2629.5 Z m 235.77,-10.31 27.5,13.75 -27.5,13.75 z"
     id="path153" /><path
     d="m 1760.42,778.06 h 201.51 v 6.88 h -201.51 z m 4.58,17.19 -27.5,-13.75 27.5,-13.75 z m 192.35,-27.5 27.5,13.75 -27.5,13.75 z"
     id="path155" /><g
     clip-path="url(#clip9)"
     id="g169"
     transform="translate(-451,-359)"><g
       clip-path="url(#clip10)"
       id="g167"><g
         clip-path="url(#clip11)"
         id="g165"><path
           d="M 209.344,214.781 V 51.6562 c 0,-15.8938 -40.621,-24.4687 -78.844,-24.4687 -38.2229,0 -78.8438,8.5749 -78.8438,24.4687 V 214.781 c 0,15.894 40.6209,24.469 78.8438,24.469 38.223,0 78.844,-8.575 78.844,-24.469 z M 130.5,32.625 c 42.013,0 73.406,10.0594 73.406,19.0312 0,8.9719 -31.393,19.0313 -73.406,19.0313 -42.0129,0 -73.4063,-10.0594 -73.4063,-19.0313 0,-8.9718 31.3934,-19.0312 73.4063,-19.0312 z M 57.0937,61.0631 C 69.4069,70.905 100.683,76.125 130.5,76.125 c 29.816,0 61.093,-5.22 73.406,-15.0619 v 44.9679 c 0,8.972 -31.393,19.031 -73.406,19.031 -42.0129,0 -73.4063,-10.059 -73.4063,-19.031 z m 0,54.3749 C 69.4069,125.28 100.683,130.5 130.5,130.5 c 29.816,0 61.093,-5.22 73.406,-15.062 v 44.968 c 0,8.972 -31.393,19.031 -73.406,19.031 -42.0129,0 -73.4063,-10.059 -73.4063,-19.031 z m 0,99.343 v -44.968 c 12.3132,9.842 43.5893,15.062 73.4063,15.062 29.816,0 61.093,-5.22 73.406,-15.062 v 44.968 c 0,8.972 -31.393,19.031 -73.406,19.031 -42.0129,0 -73.4063,-10.059 -73.4063,-19.031 z"
           transform="matrix(1,0,0,1.02299,3346,969)"
           id="path157" /><path
           d="m 190.312,97.875 c 0,3.003 -2.434,5.437 -5.437,5.437 -3.003,0 -5.438,-2.434 -5.438,-5.437 0,-3.0031 2.435,-5.4375 5.438,-5.4375 3.003,0 5.437,2.4344 5.437,5.4375 z"
           transform="matrix(1,0,0,1.02299,3346,969)"
           id="path159" /><path
           d="m 190.312,152.25 c 0,3.003 -2.434,5.437 -5.437,5.437 -3.003,0 -5.438,-2.434 -5.438,-5.437 0,-3.003 2.435,-5.438 5.438,-5.438 3.003,0 5.437,2.435 5.437,5.438 z"
           transform="matrix(1,0,0,1.02299,3346,969)"
           id="path161" /><path
           d="m 190.312,206.625 c 0,3.003 -2.434,5.437 -5.437,5.437 -3.003,0 -5.438,-2.434 -5.438,-5.437 0,-3.003 2.435,-5.438 5.438,-5.438 3.003,0 5.437,2.435 5.437,5.438 z"
           transform="matrix(1,0,0,1.02299,3346,969)"
           id="path163" /></g></g></g><g
     aria-label="Storage"
     id="text171"
     style="font-size:63px;font-family:Roboto, Roboto_MSFontService, sans-serif"><path
       d="m 2934.6555,912.03564 q -7.5981,-2.18408 -11.0742,-5.35253 -3.4453,-3.19922 -3.4453,-7.875 0,-5.29102 4.2143,-8.73633 4.2452,-3.47608 11.0127,-3.47608 4.6143,0 8.2134,1.78418 3.6299,1.78418 5.5986,4.92188 1.9996,3.13769 1.9996,6.85986 h -5.9371 q 0,-4.06055 -2.5839,-6.36767 -2.584,-2.3379 -7.2906,-2.3379 -4.3681,0 -6.8291,1.93799 -2.4301,1.90723 -2.4301,5.32178 0,2.73779 2.3071,4.64502 2.3379,1.87646 7.9058,3.44531 5.5986,1.56885 8.7363,3.47608 3.1684,1.87646 4.6758,4.39892 1.538,2.52246 1.538,5.93701 0,5.44483 -4.2451,8.73633 -4.2451,3.26074 -11.351,3.26074 -4.6143,0 -8.6133,-1.75341 -3.9991,-1.78418 -6.1831,-4.86036 -2.1534,-3.07617 -2.1534,-6.98291 h 5.9371 q 0,4.06055 2.9838,6.4292 3.0147,2.33789 8.0289,2.33789 4.6757,0 7.1674,-1.90722 2.4917,-1.90723 2.4917,-5.19873 0,-3.29151 -2.3071,-5.07569 -2.3071,-1.81494 -8.3672,-3.56836 z"
       style="font-size:63px;font-family:Roboto, Roboto_MSFontService, sans-serif"
       id="path3902" /><path
       d="m 2965.6633,890.65625 v 8.05957 h 6.2139 v 4.39893 h -6.2139 v 20.64111 q 0,1.99951 0.8306,3.01465 0.8306,0.98437 2.8301,0.98437 0.9843,0 2.707,-0.36914 V 932 q -2.2456,0.61523 -4.3682,0.61523 -3.8144,0 -5.7524,-2.30712 -1.938,-2.30713 -1.938,-6.55225 v -20.64111 h -6.06 v -4.39893 h 6.06 v -8.05957 z"
       style="font-size:63px;font-family:Roboto, Roboto_MSFontService, sans-serif"
       id="path3904" /><path
       d="m 2976.3992,915.05029 q 0,-4.89111 1.9072,-8.79785 1.938,-3.90674 5.3525,-6.0293 3.4453,-2.12255 7.8443,-2.12255 6.7983,0 10.9819,4.70654 4.2144,4.70654 4.2144,12.52002 v 0.3999 q 0,4.86035 -1.8765,8.73633 -1.8457,3.84521 -5.3218,5.99853 -3.4453,2.15332 -7.9365,2.15332 -6.7676,0 -10.9819,-4.70654 -4.1836,-4.70654 -4.1836,-12.45849 z m 5.7216,0.67676 q 0,5.53711 2.5533,8.89014 2.584,3.35302 6.8906,3.35302 4.3374,0 6.8906,-3.38378 2.5532,-3.41456 2.5532,-9.53614 0,-5.47558 -2.6147,-8.85937 -2.584,-3.41455 -6.8906,-3.41455 -4.2144,0 -6.7984,3.35302 -2.584,3.35303 -2.584,9.59766 z"
       style="font-size:63px;font-family:Roboto, Roboto_MSFontService, sans-serif"
       id="path3906" /><path
       d="m 3029.9246,903.82227 q -1.292,-0.21534 -2.7994,-0.21534 -5.5986,0 -7.5981,4.76807 V 932 h -5.6909 v -33.28418 h 5.5371 l 0.092,3.84522 q 2.7993,-4.46045 7.9365,-4.46045 1.6611,0 2.5225,0.43066 z"
       style="font-size:63px;font-family:Roboto, Roboto_MSFontService, sans-serif"
       id="path3908" /><path
       d="m 3054.4724,932 q -0.4922,-0.98438 -0.7998,-3.50684 -3.9683,4.12207 -9.4746,4.12207 -4.9219,0 -8.0903,-2.76855 -3.1377,-2.79932 -3.1377,-7.0752 0,-5.19873 3.9375,-8.05957 3.9682,-2.8916 11.1357,-2.8916 h 5.5371 v -2.61474 q 0,-2.98389 -1.7842,-4.73731 -1.7841,-1.78418 -5.2602,-1.78418 -3.0454,0 -5.1065,1.53809 -2.061,1.53808 -2.061,3.72217 h -5.7217 q 0,-2.4917 1.7534,-4.79883 1.7842,-2.33789 4.7989,-3.69141 3.0454,-1.35351 6.6753,-1.35351 5.7524,0 9.0132,2.8916 3.2607,2.86084 3.3837,7.90576 v 15.31934 q 0,4.58349 1.169,7.29052 V 932 Z m -9.4438,-4.3374 q 2.6762,0 5.0756,-1.38428 2.3995,-1.38428 3.4761,-3.59912 v -6.8291 h -4.4604 q -10.459,0 -10.459,6.12158 0,2.67627 1.7842,4.18359 1.7841,1.50733 4.5835,1.50733 z"
       style="font-size:63px;font-family:Roboto, Roboto_MSFontService, sans-serif"
       id="path3910" /><path
       d="m 3066.8386,915.08105 q 0,-7.78271 3.5991,-12.36621 3.5992,-4.61425 9.5362,-4.61425 6.0908,0 9.5053,4.30664 l 0.2769,-3.69141 h 5.1987 v 32.48438 q 0,6.45996 -3.8452,10.18212 -3.8144,3.72217 -10.2744,3.72217 -3.5991,0 -7.0444,-1.53808 -3.4453,-1.53809 -5.2603,-4.21436 l 2.9531,-3.41455 q 3.6607,4.52197 8.9517,4.52197 4.1528,0 6.46,-2.33789 2.3379,-2.33789 2.3379,-6.58301 v -2.86084 q -3.4146,3.9375 -9.3208,3.9375 -5.8448,0 -9.4747,-4.70654 -3.5991,-4.70654 -3.5991,-12.82764 z m 5.7217,0.646 q 0,5.6294 2.3071,8.85938 2.3072,3.19921 6.46,3.19921 5.3833,0 7.9058,-4.89111 v -15.19629 q -2.6148,-4.76806 -7.8443,-4.76806 -4.1528,0 -6.4907,3.22998 -2.3379,3.22998 -2.3379,9.56689 z"
       style="font-size:63px;font-family:Roboto, Roboto_MSFontService, sans-serif"
       id="path3912" /><path
       d="m 3117.3494,932.61523 q -6.7676,0 -11.0127,-4.42968 -4.2451,-4.46045 -4.2451,-11.90479 v -1.0459 q 0,-4.95263 1.8764,-8.82861 1.9072,-3.90674 5.291,-6.09082 3.4146,-2.21484 7.3828,-2.21484 6.4908,0 10.0899,4.27587 3.5991,4.27588 3.5991,12.24317 v 2.36865 h -22.5483 q 0.123,4.92188 2.8608,7.96729 2.7686,3.01464 7.0137,3.01464 3.0146,0 5.1064,-1.23046 2.0918,-1.23047 3.6607,-3.26075 l 3.476,2.70704 q -4.1835,6.42919 -12.5507,6.42919 z m -0.7076,-29.83886 q -3.4453,0 -5.7832,2.52246 -2.3378,2.4917 -2.8916,7.01367 h 16.6729 v -0.43066 q -0.2461,-4.33741 -2.3379,-6.70606 -2.0918,-2.39941 -5.6602,-2.39941 z"
       style="font-size:63px;font-family:Roboto, Roboto_MSFontService, sans-serif"
       id="path3914" /></g><g
     clip-path="url(#clip12)"
     id="g187"
     transform="translate(-451,-359)"><g
       clip-path="url(#clip13)"
       id="g185"><g
         clip-path="url(#clip14)"
         id="g183"><path
           d="m 168.354,147.406 c 15.681,5.841 27.724,12.079 35.648,18.815 4.461,3.576 7.151,8.911 7.373,14.624 l 4.886,39.001 c 0.4,3.018 -0.913,6.006 -3.407,7.752 -3.958,2.607 -8.183,4.783 -12.604,6.491 v 5.994 c 5.531,-2.003 10.806,-4.652 15.717,-7.891 4.211,-2.915 6.445,-7.936 5.793,-13.016 l -4.823,-38.595 c -0.332,-7.241 -3.719,-14.001 -9.32,-18.601 -7.468,-6.038 -15.761,-10.978 -24.628,-14.668 0.075,-7.707 0.507,-52.6634 0.584,-70.4967 0.093,-4.7482 -0.463,-9.4866 -1.652,-14.0843 -3.821,-14.1165 -13.478,-25.9351 -26.549,-32.4933 -2.133,-1.051 -4.671,-0.8369 -6.598,0.5563 l -0.311,0.2225 -1.232,-1.7216 c -1.294,-1.8507 -3.266,-3.116 -5.488,-3.5211 -14.654,-2.569 -29.688,1.5828 -40.948,11.3086 -11.1971,9.8453 -17.4861,24.1251 -17.1907,39.032 l 0.445,71.1996 c -8.8752,3.692 -17.1764,8.635 -24.6502,14.68 -5.602,4.6 -8.9901,11.36 -9.3227,18.601 l -4.8172,38.615 c -0.6369,5.069 1.5981,10.072 5.7989,12.98 4.9028,3.237 10.1697,5.885 15.6918,7.89 v -5.996 c -4.4082,-1.71 -8.6218,-3.885 -12.5684,-6.489 -2.4848,-1.739 -3.7984,-4.713 -3.4098,-7.721 l 4.8532,-38.742 0.0223,-0.279 c 0.2194,-5.711 2.9053,-11.046 7.362,-14.623 8.0517,-6.865 19.5438,-12.903 35.6361,-18.824 7.5317,5.176 20.6707,8.344 34.8547,8.344 14.184,0 27.323,-3.168 34.854,-8.344 z m -72.0116,-5.059 c -2.3454,0.864 -4.5938,1.733 -6.7445,2.606 L 89.1668,76.0782 c -0.2851,-13.266 5.2885,-25.9838 15.2352,-34.7656 9.994,-8.6455 23.347,-12.3376 36.362,-10.0542 0.785,0.1611 1.477,0.6194 1.931,1.2794 l 2.845,3.9772 c 0.892,1.2468 2.625,1.5369 3.874,0.648 l 2.573,-1.8328 c 0.255,-0.1936 0.595,-0.2361 0.89,-0.1113 11.652,5.8523 20.259,16.393 23.663,28.9806 1.057,4.111 1.548,8.3468 1.46,12.5907 -0.072,16.4984 -0.448,56.2538 -0.556,68.1768 -2.097,-0.849 -4.282,-1.695 -6.553,-2.537 l -8.9,-3.651 c -2.091,-0.854 -3.458,-2.887 -3.46,-5.146 v -9.283 c 8.814,-7.383 13.907,-18.29 13.906,-29.7876 V 80.6562 c 0,-4.6083 -3.735,-8.3438 -8.343,-8.3438 h -61.188 c -4.6081,0 -8.3436,3.7355 -8.3436,8.3438 v 13.9062 c 0.0014,11.4846 5.0844,22.3796 13.8836,29.7596 v 9.3 c 0.008,2.261 -1.353,4.301 -3.443,5.162 z M 100.125,94.5624 V 80.6562 c 0,-1.5361 1.245,-2.7813 2.781,-2.7813 h 61.188 c 1.536,0 2.781,1.2452 2.781,2.7813 v 13.9062 c 0,18.4326 -14.943,33.3746 -33.375,33.3746 -18.433,0 -33.375,-14.942 -33.375,-33.3746 z M 133.5,150.187 c -9.724,0.224 -19.383,-1.643 -28.324,-5.473 l 1.947,-0.796 c 4.182,-1.703 6.914,-5.772 6.908,-10.287 v -5.416 c 12.025,7.03 26.905,7.038 38.938,0.02 v 5.396 c -0.008,4.514 2.72,8.584 6.9,10.29 l 1.947,0.798 c -8.939,3.829 -18.595,5.694 -28.316,5.468 z"
           transform="translate(866,1545)"
           id="path173" /><path
           d="m 194.687,182.283 c -0.015,-5.453 -4.448,-9.861 -9.901,-9.846 -0.005,0 -0.011,0 -0.017,0 H 82.1692 c -5.4393,0 -9.8506,4.407 -9.8568,9.846 v 62.995 H 52.8437 v 6.325 c 0.0364,5.425 4.4316,9.81 9.8567,9.834 H 204.333 c 5.416,-0.042 9.793,-4.429 9.823,-9.845 v -6.314 h -19.469 z m 13.907,68.558 v 0.74 c -0.015,2.356 -1.916,4.266 -4.272,4.294 H 62.7116 c -2.366,-0.008 -4.2857,-1.917 -4.3054,-4.283 v -0.751 h 19.4687 v -68.558 c 0.0031,-2.369 1.9258,-4.286 4.2943,-4.283 H 184.853 c 2.36,0.009 4.269,1.923 4.272,4.283 v 68.558 z"
           transform="translate(866,1545)"
           id="path175" /><path
           d="m 124.338,231.344 5.146,2.142 13.016,-31.484 -5.118,-2.142 z"
           transform="translate(866,1545)"
           id="path177" /><path
           d="m 115.188,200.333 -15.6027,15.603 15.6027,15.603 3.922,-3.922 -11.654,-11.681 11.654,-11.681 z"
           transform="translate(866,1545)"
           id="path179" /><path
           d="m 147.812,204.255 11.654,11.681 -11.654,11.681 3.922,3.922 15.603,-15.603 -15.603,-15.603 z"
           transform="translate(866,1545)"
           id="path181" /></g></g></g><g
     aria-label="DevOpsengineerCloud"
     id="text193"
     style="font-size:63px;font-family:Roboto, Roboto_MSFontService, sans-serif"><path
       d="m 445.67474,1558 v -44.7891 h 12.64307 q 5.84473,0 10.33594,2.584 4.49121,2.584 6.92138,7.3521 2.46094,4.768 2.4917,10.9511 v 2.8609 q 0,6.3369 -2.46093,11.105 -2.43018,4.768 -6.98291,7.3213 -4.52198,2.5532 -10.55127,2.6147 z m 5.90625,-39.9287 v 35.0991 h 6.21387 q 6.8291,0 10.61279,-4.2451 3.81446,-4.2451 3.81446,-12.0894 v -2.6147 q 0,-7.6289 -3.59912,-11.8433 -3.56836,-4.2451 -10.15137,-4.3066 z"
       style="font-size:63px;font-family:Roboto, Roboto_MSFontService, sans-serif"
       id="path3845" /><path
       d="m 499.90765,1558.6152 q -6.76757,0 -11.01269,-4.4297 -4.24512,-4.4604 -4.24512,-11.9047 v -1.0459 q 0,-4.9527 1.87647,-8.8286 1.90722,-3.9068 5.29101,-6.0909 3.41455,-2.2148 7.38281,-2.2148 6.49073,0 10.08985,4.2759 3.59912,4.2758 3.59912,12.2431 v 2.3687 h -22.54834 q 0.12305,4.9219 2.86084,7.9673 2.76855,3.0146 7.01367,3.0146 3.01465,0 5.10645,-1.2305 2.09179,-1.2304 3.66064,-3.2607 l 3.47608,2.707 q -4.1836,6.4292 -12.55079,6.4292 z m -0.70752,-29.8388 q -3.44531,0 -5.7832,2.5224 -2.33789,2.4917 -2.8916,7.0137 h 16.67285 v -0.4307 q -0.24609,-4.3374 -2.33789,-6.706 -2.0918,-2.3994 -5.66016,-2.3994 z"
       style="font-size:63px;font-family:Roboto, Roboto_MSFontService, sans-serif"
       id="path3847" /><path
       d="m 530.05414,1550.2788 8.24414,-25.563 h 5.81396 L 532.1767,1558 h -4.33741 l -12.05859,-33.2842 h 5.81397 z"
       style="font-size:63px;font-family:Roboto, Roboto_MSFontService, sans-serif"
       id="path3849" /><path
       d="m 584.93304,1537.0513 q 0,6.583 -2.21484,11.5049 -2.21484,4.8911 -6.27539,7.4751 -4.06055,2.5839 -9.47461,2.5839 -5.29101,0 -9.38232,-2.5839 -4.09131,-2.6148 -6.36768,-7.4136 -2.2456,-4.8296 -2.30713,-11.1665 v -3.23 q 0,-6.46 2.24561,-11.4126 2.2456,-4.9526 6.33691,-7.5674 4.12207,-2.6455 9.41309,-2.6455 5.3833,0 9.47461,2.6147 4.12207,2.584 6.33691,7.5367 2.21484,4.9218 2.21484,11.4741 z m -5.87548,-2.8916 q 0,-7.9673 -3.19922,-12.2124 -3.19922,-4.2759 -8.95166,-4.2759 -5.59864,0 -8.82862,4.2759 -3.19921,4.2451 -3.2915,11.8125 v 3.2915 q 0,7.7212 3.22998,12.1508 3.26074,4.399 8.95166,4.399 5.72168,0 8.85938,-4.1529 3.13769,-4.1836 3.22998,-11.9663 z"
       style="font-size:63px;font-family:Roboto, Roboto_MSFontService, sans-serif"
       id="path3851" /><path
       d="m 621.01654,1541.7271 q 0,7.5981 -3.47607,12.2431 -3.47608,4.645 -9.41309,4.645 -6.06006,0 -9.53613,-3.8452 v 16.0269 h -5.69092 v -46.0811 h 5.19873 l 0.27686,3.6914 q 3.47607,-4.3066 9.65918,-4.3066 5.99853,0 9.4746,4.522 3.50684,4.5219 3.50684,12.5815 z m -5.69092,-0.646 q 0,-5.6294 -2.39941,-8.8902 -2.39942,-3.2607 -6.58301,-3.2607 -5.16797,0 -7.75195,4.5835 v 15.9038 q 2.55322,4.5527 7.81347,4.5527 4.09131,0 6.49073,-3.23 2.43017,-3.2607 2.43017,-9.6591 z"
       style="font-size:63px;font-family:Roboto, Roboto_MSFontService, sans-serif"
       id="path3853" /><path
       d="m 647.62543,1549.1714 q 0,-2.3071 -1.75342,-3.5684 -1.72266,-1.292 -6.06006,-2.2148 -4.30664,-0.9229 -6.85986,-2.2149 -2.52246,-1.292 -3.75293,-3.0761 -1.19971,-1.7842 -1.19971,-4.2451 0,-4.0914 3.44531,-6.9214 3.47608,-2.8301 8.85938,-2.8301 5.66015,0 9.16699,2.9223 3.5376,2.9224 3.5376,7.4751 h -5.72168 q 0,-2.3378 -1.99951,-4.0297 -1.96875,-1.6919 -4.9834,-1.6919 -3.10694,0 -4.86035,1.3535 -1.75342,1.3535 -1.75342,3.5376 0,2.061 1.63037,3.1069 1.63037,1.0459 5.87549,1.9995 4.27588,0.9536 6.92138,2.2764 2.64551,1.3227 3.90674,3.1992 1.292,1.8457 1.292,4.522 0,4.4604 -3.56836,7.1675 -3.56836,2.6762 -9.25928,2.6762 -3.99902,0 -7.0752,-1.415 -3.07617,-1.415 -4.82959,-3.9375 -1.72265,-2.5532 -1.72265,-5.5064 h 5.69092 q 0.1538,2.8609 2.27636,4.5528 2.15332,1.6611 5.66016,1.6611 3.22998,0 5.16797,-1.292 1.96875,-1.3227 1.96875,-3.5068 z"
       style="font-size:63px;font-family:Roboto, Roboto_MSFontService, sans-serif"
       id="path3855" /><path
       d="m 445.69266,1633.6152 q -6.76758,0 -11.0127,-4.4297 -4.24512,-4.4604 -4.24512,-11.9047 v -1.0459 q 0,-4.9527 1.87647,-8.8286 1.90723,-3.9068 5.29102,-6.0909 3.41455,-2.2148 7.38281,-2.2148 6.49072,0 10.08984,4.2759 3.59912,4.2758 3.59912,12.2431 v 2.3687 h -22.54834 q 0.12305,4.9219 2.86084,7.9673 2.76856,3.0146 7.01367,3.0146 3.01465,0 5.10645,-1.2305 2.0918,-1.2304 3.66064,-3.2607 l 3.47608,2.707 q -4.1836,6.4292 -12.55078,6.4292 z m -0.70752,-29.8388 q -3.44531,0 -5.78321,2.5224 -2.33789,2.4917 -2.8916,7.0137 h 16.67285 v -0.4307 q -0.24609,-4.3374 -2.33789,-6.706 -2.09179,-2.3994 -5.66015,-2.3994 z"
       id="path3857" /><path
       d="m 470.64041,1599.7158 0.18457,4.1836 q 3.81445,-4.7988 9.9668,-4.7988 10.55127,0 10.64355,11.9048 V 1633 h -5.69091 v -22.0254 q -0.0308,-3.5991 -1.66114,-5.3218 -1.59961,-1.7226 -5.01416,-1.7226 -2.76855,0 -4.86035,1.4765 -2.0918,1.4766 -3.26074,3.876 V 1633 h -5.69092 v -33.2842 z"
       id="path3859" /><path
       d="m 498.66434,1616.0811 q 0,-7.7828 3.59912,-12.3663 3.59912,-4.6142 9.53613,-4.6142 6.09082,0 9.50537,4.3066 l 0.27686,-3.6914 h 5.19873 v 32.4844 q 0,6.46 -3.84522,10.1821 -3.81445,3.7222 -10.27441,3.7222 -3.59912,0 -7.04443,-1.5381 -3.44532,-1.5381 -5.26026,-4.2143 l 2.95313,-3.4146 q 3.66064,4.522 8.95166,4.522 4.15283,0 6.45996,-2.3379 2.33789,-2.3379 2.33789,-6.583 v -2.8609 q -3.41455,3.9375 -9.3208,3.9375 -5.84473,0 -9.47461,-4.7065 -3.59912,-4.7066 -3.59912,-12.8276 z m 5.72168,0.646 q 0,5.6293 2.30713,8.8593 2.30712,3.1992 6.45996,3.1992 5.3833,0 7.90576,-4.8911 v -15.1963 q -2.61475,-4.768 -7.84424,-4.768 -4.15283,0 -6.49072,3.23 -2.33789,3.2299 -2.33789,9.5669 z"
       id="path3861" /><path
       d="m 541.54617,1633 h -5.69091 v -33.2842 h 5.69091 z m -6.15234,-42.1128 q 0,-1.3843 0.83057,-2.3379 0.86132,-0.9536 2.52246,-0.9536 1.66113,0 2.52246,0.9536 0.86133,0.9536 0.86133,2.3379 0,1.3843 -0.86133,2.3071 -0.86133,0.9229 -2.52246,0.9229 -1.66114,0 -2.52246,-0.9229 -0.83057,-0.9228 -0.83057,-2.3071 z"
       id="path3863" /><path
       d="m 556.03494,1599.7158 0.18457,4.1836 q 3.81446,-4.7988 9.9668,-4.7988 10.55127,0 10.64355,11.9048 V 1633 h -5.69091 v -22.0254 q -0.0308,-3.5991 -1.66114,-5.3218 -1.59961,-1.7226 -5.01416,-1.7226 -2.76855,0 -4.86035,1.4765 -2.09179,1.4766 -3.26074,3.876 V 1633 h -5.69092 v -33.2842 z"
       id="path3865" /><path
       d="m 599.2244,1633.6152 q -6.76758,0 -11.0127,-4.4297 -4.24512,-4.4604 -4.24512,-11.9047 v -1.0459 q 0,-4.9527 1.87647,-8.8286 1.90722,-3.9068 5.29101,-6.0909 3.41455,-2.2148 7.38282,-2.2148 6.49072,0 10.08984,4.2759 3.59912,4.2758 3.59912,12.2431 v 2.3687 H 589.6575 q 0.12305,4.9219 2.86084,7.9673 2.76856,3.0146 7.01367,3.0146 3.01465,0 5.10645,-1.2305 2.0918,-1.2304 3.66064,-3.2607 l 3.47608,2.707 q -4.1836,6.4292 -12.55078,6.4292 z m -0.70752,-29.8388 q -3.44532,0 -5.78321,2.5224 -2.33789,2.4917 -2.8916,7.0137 h 16.67285 v -0.4307 q -0.24609,-4.3374 -2.33789,-6.706 -2.09179,-2.3994 -5.66015,-2.3994 z"
       id="path3867" /><path
       d="m 632.60086,1633.6152 q -6.76758,0 -11.01269,-4.4297 -4.24512,-4.4604 -4.24512,-11.9047 v -1.0459 q 0,-4.9527 1.87646,-8.8286 1.90723,-3.9068 5.29102,-6.0909 3.41455,-2.2148 7.38281,-2.2148 6.49072,0 10.08984,4.2759 3.59913,4.2758 3.59913,12.2431 v 2.3687 h -22.54834 q 0.12304,4.9219 2.86084,7.9673 2.76855,3.0146 7.01367,3.0146 3.01465,0 5.10644,-1.2305 2.0918,-1.2304 3.66065,-3.2607 l 3.47607,2.707 q -4.18359,6.4292 -12.55078,6.4292 z m -0.70752,-29.8388 q -3.44531,0 -5.7832,2.5224 -2.33789,2.4917 -2.8916,7.0137 h 16.67285 v -0.4307 q -0.2461,-4.3374 -2.33789,-6.706 -2.0918,-2.3994 -5.66016,-2.3994 z"
       id="path3869" /><path
       d="m 668.25369,1604.8223 q -1.29199,-0.2154 -2.79931,-0.2154 -5.59864,0 -7.59815,4.7681 V 1633 h -5.69092 v -33.2842 h 5.53711 l 0.0923,3.8452 q 2.79931,-4.4604 7.93652,-4.4604 1.66113,0 2.52246,0.4307 z"
       id="path3871" /><path
       d="m 2094.0906,1734.7881 q -0.8306,7.1059 -5.2603,10.9819 -4.3989,3.8452 -11.7202,3.8452 -7.9365,0 -12.7353,-5.6909 -4.7681,-5.6909 -4.7681,-15.227 v -4.3067 q 0,-6.2446 2.2148,-10.9819 2.2456,-4.7373 6.3369,-7.2598 4.0914,-2.5532 9.4747,-2.5532 7.1367,0 11.4433,3.999 4.3067,3.9683 5.0142,11.0127 h -5.937 q -0.7691,-5.3525 -3.3531,-7.7519 -2.5532,-2.3994 -7.1674,-2.3994 -5.6602,0 -8.8902,4.1835 -3.1992,4.1836 -3.1992,11.9048 v 4.3374 q 0,7.2906 3.0454,11.5972 3.0454,4.3066 8.521,4.3066 4.9219,0 7.5366,-2.2148 2.6455,-2.2456 3.5069,-7.7827 z"
       id="path3873" /><path
       d="m 2107.4412,1749 h -5.691 v -47.25 h 5.691 z"
       id="path3875" /><path
       d="m 2115.0393,1732.0503 q 0,-4.8911 1.9072,-8.7979 1.938,-3.9067 5.3526,-6.0293 3.4453,-2.1225 7.8442,-2.1225 6.7984,0 10.9819,4.7065 4.2144,4.7066 4.2144,12.52 v 0.4 q 0,4.8603 -1.8765,8.7363 -1.8457,3.8452 -5.3217,5.9985 -3.4454,2.1533 -7.9366,2.1533 -6.7675,0 -10.9819,-4.7065 -4.1836,-4.7066 -4.1836,-12.4585 z m 5.7217,0.6768 q 0,5.5371 2.5532,8.8901 2.584,3.353 6.8906,3.353 4.3374,0 6.8907,-3.3838 2.5532,-3.4145 2.5532,-9.5361 0,-5.4756 -2.6148,-8.8594 -2.5839,-3.4145 -6.8906,-3.4145 -4.2143,0 -6.7983,3.353 -2.584,3.353 -2.584,9.5977 z"
       id="path3877" /><path
       d="m 2173.0251,1745.7085 q -3.3222,3.9067 -9.7514,3.9067 -5.3218,0 -8.1211,-3.0761 -2.7686,-3.107 -2.7993,-9.167 v -21.6563 h 5.6909 v 21.5025 q 0,7.5673 6.1523,7.5673 6.5215,0 8.6748,-4.8603 v -24.2095 h 5.691 V 1749 h -5.4141 z"
       id="path3879" /><path
       d="m 2185.822,1732.0811 q 0,-7.6597 3.6299,-12.3047 3.6299,-4.6758 9.5054,-4.6758 5.8447,0 9.2593,3.999 V 1701.75 h 5.6909 V 1749 h -5.2295 l -0.2769,-3.5684 q -3.4145,4.1836 -9.5053,4.1836 -5.7833,0 -9.4439,-4.7373 -3.6299,-4.7373 -3.6299,-12.3662 z m 5.6909,0.646 q 0,5.6601 2.3379,8.8593 2.3379,3.1992 6.46,3.1992 5.4141,0 7.9058,-4.8603 v -15.2886 q -2.5533,-4.7065 -7.8443,-4.7065 -4.1836,0 -6.5215,3.23 -2.3379,3.2299 -2.3379,9.5669 z"
       id="path3881" /></g><g
     clip-path="url(#clip15)"
     id="g207"
     transform="translate(-451,-359)"><g
       clip-path="url(#clip16)"
       id="g205"><g
         clip-path="url(#clip17)"
         id="g203"><path
           d="m 185.881,174.963 c -0.389,-0.077 -0.786,-0.107 -1.182,-0.09 -0.685,0.036 -1.356,0.211 -1.972,0.512 -2.484,1.199 -3.583,4.141 -2.494,6.675 l -0.036,0.051 11.798,28.504 c 11.288,-7.203 19.853,-17.962 24.342,-30.577 l -30.403,-5.139 z m -47.306,4.04 c -0.527,-2.313 -2.565,-3.966 -4.936,-4.004 -0.341,-0.004 -0.68,0.026 -1.015,0.09 l -0.051,-0.062 -30.139,5.116 c 4.526,12.516 13.056,23.188 24.266,30.362 l 11.68,-28.223 -0.092,-0.111 c 0.432,-0.998 0.532,-2.109 0.287,-3.168 z m 25.241,11.068 c -1.343,-2.504 -4.461,-3.444 -6.964,-2.102 -0.896,0.481 -1.629,1.216 -2.107,2.113 h -0.025 l -14.821,26.8 c 10.612,3.613 22.02,4.2 32.947,1.695 2.027,-0.461 4.006,-1.014 5.938,-1.66 l -14.856,-26.848 z m 46.92,-62.257 -22.804,20.411 0.012,0.065 c -2.143,1.873 -2.361,5.129 -0.488,7.271 0.664,0.76 1.536,1.307 2.508,1.576 l 0.028,0.123 29.537,8.508 c 1.277,-13.27 -1.811,-26.595 -8.793,-37.951 z m -42.367,2.287 c 0.132,2.843 2.543,5.042 5.386,4.91 1.008,-0.046 1.979,-0.387 2.795,-0.981 l 0.09,0.037 24.952,-17.692 c -9.498,-9.303 -21.789,-15.228 -34.984,-16.8641 l 1.734,30.5821 z m -26.424,4.041 c 2.299,1.671 5.518,1.163 7.189,-1.136 0.595,-0.819 0.936,-1.795 0.979,-2.807 l 0.127,-0.059 1.734,-30.6305 c -2.093,0.2515 -4.171,0.6095 -6.227,1.0735 -10.938,2.459 -20.971,7.926 -28.966,15.784 l 25.116,17.804 z m -13.389,23.144 c 2.742,-0.748 4.358,-3.577 3.61,-6.319 -0.267,-0.982 -0.82,-1.862 -1.588,-2.529 l 0.025,-0.122 -22.93,-20.509 c -6.995,11.386 -9.9974,24.777 -8.5329,38.06 l 29.3919,-8.481 z m 22.271,9.01 8.458,4.067 8.434,-4.059 2.095,-9.105 -5.837,-7.299 h -9.394 l -5.853,7.288 z"
           fill="#326ce5"
           transform="matrix(1.00094,0,0,1,2152.42,1523.89)"
           id="path195" /><path
           d="M 299.119,184.234 275.016,79.539 C 273.704,74.0544 270.001,69.4475 264.927,66.9867 L 167.362,20.4049 c -5.121,-2.4439 -11.072,-2.4439 -16.193,0 L 53.6236,67.0116 c -5.0754,2.4593 -8.7797,7.0659 -10.0924,12.5509 L 19.4669,184.255 c -0.5935,2.646 -0.5954,5.39 -0.0055,8.038 0.1737,0.806 0.4006,1.6 0.6793,2.376 0.4709,1.325 1.0945,2.591 1.858,3.772 0.3306,0.505 0.6793,0.996 1.0584,1.472 l 67.5193,83.946 c 0.2946,0.366 0.6198,0.699 0.9421,1.038 1.0594,1.128 2.2557,2.12 3.5611,2.951 1.6509,1.039 3.4502,1.821 5.3364,2.32 1.546,0.424 3.141,0.644 4.745,0.655 h 1.05 l 107.225,-0.025 c 0.652,-0.003 1.303,-0.042 1.951,-0.115 0.929,-0.105 1.849,-0.28 2.752,-0.523 0.647,-0.171 1.284,-0.375 1.91,-0.612 0.489,-0.186 0.976,-0.373 1.446,-0.599 0.704,-0.337 1.388,-0.717 2.046,-1.137 1.699,-1.068 3.212,-2.407 4.478,-3.964 l 2.059,-2.559 65.437,-81.404 c 1.254,-1.573 2.24,-3.342 2.917,-5.236 0.282,-0.779 0.513,-1.576 0.691,-2.386 0.592,-2.646 0.59,-5.391 -0.005,-8.038 z m -101.197,40.718 c 0.274,0.805 0.599,1.592 0.972,2.356 -0.596,1.045 -0.759,2.282 -0.452,3.445 1.42,3.251 3.154,6.356 5.177,9.27 1.133,1.489 2.178,3.043 3.131,4.654 0.235,0.435 0.542,1.11 0.765,1.571 1.663,2.78 0.758,6.382 -2.022,8.046 -2.78,1.663 -6.382,0.758 -8.045,-2.022 -0.197,-0.328 -0.36,-0.674 -0.489,-1.034 -0.223,-0.456 -0.533,-1.065 -0.722,-1.497 -0.667,-1.749 -1.233,-3.536 -1.695,-5.351 -1.012,-3.395 -2.354,-6.684 -4.007,-9.818 -0.718,-0.97 -1.788,-1.619 -2.98,-1.809 -0.186,-0.322 -0.878,-1.591 -1.249,-2.245 -17.368,6.577 -36.55,6.528 -53.884,-0.138 l -1.321,2.393 c -0.943,0.147 -1.82,0.574 -2.516,1.227 -1.991,3.268 -3.513,6.799 -4.522,10.49 -0.457,1.815 -1.02,3.601 -1.685,5.351 -0.186,0.429 -0.499,1.029 -0.722,1.485 v 0.012 l -0.009,0.011 c -1.089,3.05 -4.444,4.639 -7.494,3.55 -3.049,-1.089 -4.639,-4.444 -3.55,-7.494 0.132,-0.368 0.3,-0.723 0.503,-1.059 0.22,-0.463 0.514,-1.134 0.747,-1.57 0.952,-1.614 1.997,-3.172 3.129,-4.666 2.06,-2.991 3.83,-6.172 5.285,-9.499 0.155,-1.128 -0.026,-2.277 -0.52,-3.303 l 1.063,-2.545 c -15.981,-9.432 -27.9578,-24.385 -33.6716,-42.04 l -2.5442,0.433 c -0.9871,-0.701 -2.1508,-1.11 -3.3591,-1.183 -3.4813,0.666 -6.8897,1.669 -10.1768,2.995 -1.7069,0.768 -3.4562,1.438 -5.2393,2.006 -0.4219,0.117 -1.0307,0.233 -1.5121,0.338 -0.0388,0.014 -0.072,0.03 -0.1107,0.04 -0.0298,0.005 -0.0598,0.007 -0.0899,0.008 -3.0746,1.012 -6.3869,-0.661 -7.3981,-3.735 -1.0113,-3.075 0.6613,-6.387 3.7359,-7.399 0.3481,-0.114 0.7062,-0.196 1.0695,-0.243 l 0.0844,-0.021 0.0512,-0.014 c 0.4884,-0.115 1.1137,-0.277 1.5592,-0.362 1.8575,-0.258 3.7283,-0.409 5.6031,-0.451 3.5358,-0.232 7.0406,-0.807 10.4646,-1.719 1.0148,-0.646 1.8722,-1.511 2.5096,-2.531 l 2.4447,-0.714 c -2.6527,-18.426 1.5905,-37.183 11.9159,-52.674 l -1.8719,-1.668 c -0.0682,-1.211 -0.4747,-2.379 -1.1732,-3.37 -2.6892,-2.312 -5.5977,-4.355 -8.6841,-6.101 -1.6665,-0.85 -3.2828,-1.795 -4.8408,-2.831 -0.3541,-0.264 -0.8245,-0.661 -1.2091,-0.974 L 78.28,102.492 c -2.7648,-1.986 -3.4064,-5.8318 -1.436,-8.6077 1.1342,-1.3885 2.8623,-2.1531 4.6526,-2.0586 1.486,0.0637 2.9124,0.6019 4.0702,1.5356 0.3971,0.3113 0.9408,0.7277 1.2935,1.0307 1.3593,1.2855 2.6434,2.6482 3.8461,4.0813 2.3863,2.6217 5.0228,5.0047 7.872,7.1137 1.0677,0.562 2.3126,0.682 3.4686,0.336 0.695,0.508 1.397,1.007 2.105,1.497 10.261,-10.9061 23.547,-18.4965 38.153,-21.7965 3.476,-0.7873 7.003,-1.3295 10.556,-1.6228 l 0.138,-2.4681 c 0.907,-0.8059 1.564,-1.8543 1.895,-3.0216 0.128,-3.5424 -0.09,-7.0889 -0.65,-10.5891 -0.371,-1.8344 -0.637,-3.6885 -0.797,-5.5533 -0.015,-0.4247 0.008,-1.0113 0.014,-1.4955 0,-0.0554 -0.014,-0.1107 -0.014,-0.1633 -0.327,-3.2246 2.021,-6.1041 5.246,-6.4315 3.225,-0.3275 6.104,2.0211 6.432,5.2458 0.039,0.3924 0.04,0.7878 0,1.1802 0,0.5119 0.031,1.1898 0.013,1.6602 -0.16,1.8645 -0.428,3.7182 -0.801,5.5519 -0.564,3.5008 -0.785,7.0482 -0.662,10.5919 0.231,1.1846 0.916,2.2322 1.908,2.9191 0.021,0.422 0.09,1.8304 0.141,2.6065 18.459,1.6787 35.68,9.9999 48.466,23.4181 l 2.222,-1.587 c 1.193,0.205 2.42,0.072 3.542,-0.384 2.849,-2.114 5.485,-4.499 7.872,-7.1226 1.205,-1.4338 2.492,-2.7965 3.856,-4.0812 0.358,-0.3072 0.899,-0.7194 1.294,-1.0321 2.308,-2.2757 6.024,-2.2495 8.3,0.0585 2.276,2.308 2.249,6.0238 -0.059,8.2994 -0.294,0.29 -0.618,0.548 -0.966,0.77 -0.392,0.317 -0.909,0.758 -1.285,1.038 -1.562,1.036 -3.182,1.981 -4.852,2.831 -3.086,1.747 -5.995,3.79 -8.684,6.101 -0.783,0.916 -1.177,2.103 -1.096,3.306 -0.325,0.299 -1.467,1.31 -2.071,1.858 10.354,15.435 14.683,34.134 12.163,52.549 l 2.358,0.686 c 0.589,1.06 1.461,1.937 2.518,2.532 3.426,0.913 6.932,1.49 10.47,1.724 1.873,0.043 3.742,0.192 5.597,0.448 0.492,0.09 1.201,0.286 1.702,0.401 3.209,0.422 5.469,3.365 5.047,6.574 -0.422,3.209 -3.365,5.469 -6.574,5.047 -0.364,-0.048 -0.723,-0.13 -1.071,-0.245 l -0.084,-0.011 c -0.039,-0.009 -0.075,-0.03 -0.115,-0.041 -0.482,-0.104 -1.086,-0.209 -1.508,-0.32 -1.783,-0.573 -3.532,-1.248 -5.237,-2.022 -3.29,-1.327 -6.702,-2.33 -10.186,-2.996 -1.206,-0.038 -2.379,0.398 -3.268,1.214 -0.83,-0.158 -1.662,-0.304 -2.496,-0.437 -5.645,17.764 -17.624,32.833 -33.657,42.341 z"
           fill="#326ce5"
           transform="matrix(1.00094,0,0,1,2152.42,1523.89)"
           id="path197" /><path
           d="M 311.846,186.918 285.55,72.6977 c -1.431,-5.9849 -5.472,-11.012 -11.01,-13.6965 L 168.102,8.18604 c -5.587,-2.66677 -12.08,-2.66677 -17.668,0 L 44.0057,59.0317 c -5.5373,2.682 -9.5796,7.7064 -11.0139,13.6895 L 6.74169,186.948 c -1.19612,5.32 -0.20139,10.897 2.76004,15.474 0.36109,0.554 0.74427,1.091 1.15937,1.608 l 73.6647,91.593 c 3.9089,4.772 9.7403,7.555 15.9082,7.591 l 118.132,-0.027 c 6.167,-0.035 11.998,-2.814 15.91,-7.582 l 73.638,-91.601 c 3.819,-4.81 5.264,-11.087 3.932,-17.082 z m -12.724,5.348 c -0.177,0.809 -0.407,1.605 -0.689,2.384 -0.677,1.895 -1.664,3.665 -2.919,5.238 l -65.437,81.401 -2.056,2.562 c -1.268,1.557 -2.782,2.896 -4.483,3.964 -0.656,0.42 -1.337,0.8 -2.039,1.137 -0.473,0.219 -0.955,0.417 -1.446,0.595 -0.626,0.238 -1.265,0.444 -1.913,0.616 -0.903,0.243 -1.823,0.418 -2.752,0.524 -0.647,0.073 -1.299,0.111 -1.95,0.113 l -107.226,0.025 h -1.051 c -1.603,-0.01 -3.198,-0.229 -4.744,-0.653 -1.885,-0.5 -3.6833,-1.283 -5.3333,-2.323 -1.3062,-0.83 -2.5034,-1.821 -3.5638,-2.949 -0.3224,-0.34 -0.6475,-0.674 -0.9408,-1.038 L 23.0584,199.914 c -0.3763,-0.474 -0.7291,-0.966 -1.0583,-1.475 -0.7635,-1.18 -1.3871,-2.446 -1.858,-3.771 -0.2787,-0.777 -0.5057,-1.571 -0.6793,-2.378 -0.5897,-2.647 -0.5878,-5.391 0.0055,-8.037 L 43.5326,79.5583 C 44.846,74.0744 48.5502,69.4689 53.625,67.0102 l 97.546,-46.6025 c 5.122,-2.4439 11.073,-2.4439 16.194,0 l 97.562,46.5817 c 5.074,2.4609 8.777,7.0678 10.089,12.5523 l 24.103,104.6933 c 0.594,2.645 0.595,5.389 0.003,8.034 z"
           fill="#ffffff"
           transform="matrix(1.00094,0,0,1,2152.42,1523.89)"
           id="path199" /><path
           d="m 257.07,175.848 c -0.498,-0.114 -1.209,-0.311 -1.698,-0.401 -1.856,-0.256 -3.724,-0.407 -5.597,-0.451 -3.539,-0.231 -7.046,-0.807 -10.473,-1.718 -1.058,-0.596 -1.929,-1.473 -2.518,-2.535 l -2.358,-0.686 c 2.52,-18.414 -1.807,-37.113 -12.16,-52.548 0.603,-0.548 1.746,-1.56 2.068,-1.857 -0.08,-1.203 0.313,-2.39 1.096,-3.307 2.689,-2.31 5.598,-4.354 8.684,-6.101 1.67,-0.849 3.29,-1.794 4.852,-2.83 0.376,-0.28 0.891,-0.723 1.285,-1.038 2.733,-1.742 3.537,-5.3698 1.795,-8.1031 -1.742,-2.7333 -5.37,-3.5371 -8.103,-1.7951 -0.347,0.2212 -0.67,0.4784 -0.964,0.7673 -0.398,0.3141 -0.941,0.7263 -1.295,1.0335 -1.364,1.2846 -2.652,2.6473 -3.858,4.0812 -2.387,2.6242 -5.023,5.0092 -7.872,7.1222 -1.122,0.456 -2.349,0.589 -3.542,0.385 l -2.222,1.586 C 201.404,94.0352 184.183,85.7139 165.724,84.0353 c -0.054,-0.7762 -0.12,-2.1818 -0.141,-2.6065 -0.991,-0.6874 -1.675,-1.7349 -1.905,-2.9191 -0.123,-3.5438 0.098,-7.0911 0.661,-10.5919 0.372,-1.8334 0.638,-3.6866 0.796,-5.5506 0.018,-0.4703 -0.01,-1.1538 -0.01,-1.6615 0.325,-3.225 -2.027,-6.1022 -5.252,-6.4266 -3.225,-0.3244 -6.102,2.027 -6.426,5.2519 -0.04,0.3924 -0.04,0.7878 0,1.1802 0,0.0553 0.013,0.1079 0.014,0.1633 -0.006,0.4842 -0.029,1.0708 -0.014,1.4941 0.16,1.8653 0.426,3.7198 0.797,5.5547 0.56,3.5002 0.778,7.0467 0.65,10.5891 -0.331,1.1662 -0.989,2.2136 -1.895,3.0188 l -0.138,2.4709 c -3.553,0.2932 -7.08,0.8355 -10.556,1.6228 -14.605,3.3004 -27.889,10.8903 -38.148,21.7951 -0.711,-0.49 -1.414,-0.988 -2.112,-1.497 -1.155,0.346 -2.3993,0.225 -3.4666,-0.336 -2.8491,-2.109 -5.4856,-4.491 -7.872,-7.1123 -1.2013,-1.433 -2.4841,-2.7957 -3.8419,-4.0813 -0.3556,-0.3044 -0.8993,-0.7194 -1.2977,-1.0376 -1.1578,-0.9337 -2.5842,-1.4719 -4.0702,-1.5357 -1.7908,-0.0937 -3.519,0.672 -4.6526,2.0614 -1.9704,2.7759 -1.3288,6.6225 1.436,8.6085 l 0.0899,0.063 c 0.3819,0.313 0.8523,0.713 1.2064,0.971 1.5579,1.037 3.1742,1.983 4.8408,2.834 3.0861,1.747 5.9941,3.791 8.6827,6.104 0.6984,0.99 1.1053,2.157 1.1746,3.367 l 1.8691,1.671 c -10.3244,15.491 -14.5666,34.248 -11.9131,52.673 l -2.4447,0.712 c -0.6379,1.018 -1.4953,1.882 -2.5096,2.527 -3.4243,0.914 -6.9295,1.492 -10.466,1.725 -1.8743,0.043 -3.7447,0.194 -5.6017,0.451 -0.4483,0.083 -1.0708,0.241 -1.5592,0.363 l -0.0512,0.011 -0.083,0.025 c -3.209,0.422 -5.4684,3.365 -5.0466,6.574 0.4219,3.209 3.3653,5.469 6.5743,5.047 0.3622,-0.048 0.7192,-0.129 1.0663,-0.243 l 0.0872,-0.014 c 0.0387,-0.009 0.0719,-0.028 0.1107,-0.035 0.4814,-0.111 1.0874,-0.225 1.5107,-0.34 1.7827,-0.569 3.5315,-1.239 5.2379,-2.008 3.2881,-1.326 6.6973,-2.329 10.1796,-2.995 1.2076,0.074 2.3703,0.485 3.3563,1.186 l 2.5456,-0.436 c 5.7146,17.655 17.692,32.609 33.674,42.04 l -1.064,2.545 c 0.495,1.026 0.676,2.175 0.522,3.303 -1.456,3.326 -3.225,6.506 -5.285,9.496 -1.133,1.493 -2.178,3.051 -3.131,4.665 -0.233,0.44 -0.527,1.114 -0.75,1.574 -1.668,2.776 -0.769,6.378 2.006,8.046 2.776,1.667 6.378,0.769 8.046,-2.007 0.197,-0.328 0.362,-0.675 0.492,-1.036 l 0.009,-0.011 v -0.014 c 0.222,-0.456 0.536,-1.055 0.722,-1.483 0.665,-1.749 1.228,-3.536 1.685,-5.351 1.009,-3.691 2.531,-7.222 4.522,-10.49 0.696,-0.653 1.573,-1.081 2.516,-1.228 l 1.324,-2.394 c 17.333,6.666 36.514,6.714 53.881,0.137 0.371,0.662 1.063,1.926 1.245,2.246 1.193,0.19 2.263,0.841 2.982,1.812 1.653,3.134 2.996,6.422 4.009,9.817 0.462,1.815 1.028,3.602 1.695,5.351 0.189,0.432 0.498,1.038 0.722,1.497 1.093,3.05 4.451,4.637 7.501,3.544 3.049,-1.092 4.636,-4.45 3.544,-7.5 -0.129,-0.36 -0.293,-0.706 -0.489,-1.034 -0.223,-0.461 -0.53,-1.134 -0.761,-1.571 -0.953,-1.611 -1.998,-3.165 -3.131,-4.654 -2.023,-2.914 -3.757,-6.019 -5.177,-9.27 -0.308,-1.162 -0.147,-2.4 0.448,-3.445 -0.373,-0.764 -0.698,-1.551 -0.972,-2.356 16.033,-9.507 28.012,-24.577 33.657,-42.341 0.756,0.12 2.071,0.35 2.499,0.437 0.888,-0.815 2.06,-1.251 3.265,-1.213 3.483,0.665 6.893,1.668 10.182,2.995 1.707,0.775 3.456,1.45 5.241,2.023 0.422,0.11 1.024,0.215 1.508,0.322 0.04,0.011 0.076,0.028 0.115,0.039 l 0.083,0.012 c 3.075,1.009 6.386,-0.665 7.395,-3.741 1.009,-3.075 -0.665,-6.386 -3.741,-7.395 -0.344,-0.113 -0.697,-0.194 -1.056,-0.242 z m -55.478,-59.471 -24.954,17.69 -0.087,-0.041 c -2.298,1.676 -5.52,1.172 -7.196,-1.126 -0.596,-0.817 -0.938,-1.791 -0.984,-2.8 l -0.028,-0.014 -1.733,-30.5793 c 13.194,1.6383 25.484,7.5653 34.981,16.8703 z m -47.008,33.519 h 9.391 l 5.839,7.299 -2.093,9.103 -8.434,4.059 -8.459,-4.067 -2.097,-9.107 z m -8.834,-49.318 c 2.056,-0.463 4.136,-0.8208 6.229,-1.0713 l -1.736,30.6263 -0.127,0.061 c -0.12,2.839 -2.52,5.044 -5.359,4.924 -1.013,-0.042 -1.99,-0.383 -2.809,-0.979 l -0.049,0.028 -25.115,-17.808 c 7.995,-7.858 18.028,-13.324 28.966,-15.781 z m -38.074,27.226 22.93,20.509 -0.025,0.125 c 2.144,1.865 2.37,5.116 0.504,7.26 -0.667,0.767 -1.546,1.319 -2.527,1.587 l -0.023,0.1 -29.3921,8.48 c -1.4645,-13.282 1.5381,-26.674 8.5331,-38.059 z m 30.701,54.482 -11.678,28.219 C 115.49,203.33 106.962,192.656 102.438,180.14 l 30.137,-5.119 0.051,0.068 c 0.333,-0.064 0.671,-0.094 1.01,-0.09 2.842,0.042 5.112,2.38 5.069,5.222 -0.01,0.672 -0.151,1.334 -0.415,1.951 z m 34.471,36.288 c -10.927,2.506 -22.335,1.921 -32.948,-1.692 l 14.821,-26.8 h 0.025 c 1.349,-2.507 4.474,-3.445 6.981,-2.096 0.885,0.477 1.612,1.202 2.091,2.087 h 0.11 l 14.859,26.845 c -1.929,0.644 -3.908,1.197 -5.939,1.659 z m 19.148,-7.956 -11.798,-28.507 0.036,-0.051 c -1.087,-2.533 0.012,-5.473 2.495,-6.672 0.616,-0.302 1.286,-0.476 1.971,-0.512 0.396,-0.018 0.793,0.011 1.183,0.087 l 0.051,-0.064 30.405,5.139 c -4.489,12.616 -13.054,23.377 -24.343,30.581 z m 27.536,-44.852 -29.54,-8.509 -0.028,-0.124 c -2.743,-0.758 -4.353,-3.596 -3.595,-6.34 0.268,-0.972 0.816,-1.844 1.575,-2.508 l -0.011,-0.059 22.803,-20.408 c 6.982,11.356 10.07,24.679 8.794,37.949 z"
           fill="#ffffff"
           transform="matrix(1.00094,0,0,1,2152.42,1523.89)"
           id="path201" /></g></g></g><g
     clip-path="url(#clip18)"
     id="g223"
     transform="translate(-451,-359)"><g
       clip-path="url(#clip19)"
       filter="url(#fx1)"
       transform="translate(1503,490)"
       id="g213"><g
         clip-path="url(#clip20)"
         id="g211"><path
           d="M 22.2228,22.2228 H 588.223 V 203.508 H 340.098 v 27.965 h 34.874 l -69.749,69.75 -69.75,-69.75 h 34.875 V 203.508 H 22.2228 Z"
           stroke="#000000"
           stroke-width="5"
           stroke-miterlimit="8"
           fill-rule="evenodd"
           id="path209" /></g></g><g
       clip-path="url(#clip21)"
       filter="url(#fx2)"
       transform="translate(1592,493)"
       id="g221"><g
         clip-path="url(#clip22)"
         id="g219"><path
           d="m 36.3281,-13.5352 c -0.5273,4.51176 -2.1924,7.99321 -4.9951,10.44438 -2.8027,2.451172 -6.5283,3.676757 -11.1768,3.676757 -5.039,0 -9.0771,-1.806637 -12.11421,-5.419917 C 5.00488,-8.44726 3.48633,-13.2812 3.48633,-19.3359 v -4.1016 c 0,-3.9648 0.70801,-7.4512 2.12402,-10.459 1.41602,-3.0078 3.42285,-5.3174 6.02055,-6.9287 2.5976,-1.6113 5.6054,-2.417 9.0234,-2.417 4.5312,0 8.1641,1.2647 10.8984,3.794 2.7344,2.5293 4.3262,6.0302 4.7754,10.5029 h -5.6543 c -0.4883,-3.4088 -1.5478,-5.8772 -3.1787,-7.4053 -1.6308,-1.528 -3.9111,-2.292 -6.8408,-2.292 -3.5938,0 -6.4111,1.3293 -8.4522,3.9878 -2.041,2.6586 -3.06148,6.441 -3.06148,11.3473 v 4.1345 c 0,4.6329 0.96678,8.3177 2.90038,11.05433 1.9336,2.73667 4.6387,4.105 8.1152,4.105 3.125,0 5.5225,-0.70801 7.1924,-2.12402 1.67,-1.41602 2.7784,-3.88181 3.3252,-7.39751 z m 5.2962,-2.6074 c 0,-3.1054 0.6104,-5.8984 1.8311,-8.3789 1.2207,-2.4805 2.9199,-4.3945 5.0977,-5.7422 2.1777,-1.3476 4.663,-2.0215 7.456,-2.0215 4.3164,0 7.8076,1.4942 10.4736,4.4825 2.6661,2.9882 3.9991,6.9629 3.9991,11.9238 v 0.3809 c 0,3.0859 -0.5909,5.85445 -1.7725,8.30562 -1.1816,2.45117 -2.8711,4.36035 -5.0684,5.72754 -2.1972,1.3671837 -4.7216,2.050777 -7.5732,2.050777 -4.2969,0 -7.7783,-1.49414 -10.4443,-4.482417 -2.666,-2.98828 -3.9991,-6.94332 -3.9991,-11.86522 z m 5.4493,0.6446 c 0,3.5156 0.8154,6.33784 2.4463,8.46675 1.6308,2.12891 3.8134,3.19336 6.5478,3.19336 2.7539,0 4.9414,-1.0791 6.5625,-3.2373 1.6211,-2.15821 2.4316,-5.18071 2.4316,-9.06741 0,-3.4765 -0.8252,-6.2939 -2.4755,-8.4521 -1.6504,-2.1582 -3.8428,-3.2373 -6.5772,-3.2373 -2.6758,0 -4.834,1.0644 -6.4746,3.1933 -1.6406,2.1289 -2.4609,5.1758 -2.4609,9.1407 z m 34.9153,-16.2012 0.1758,3.9844 c 2.4219,-3.0469 5.5859,-4.5704 9.4922,-4.5704 6.6992,0 10.0781,3.7793 10.1371,11.3379 V 0 h -5.4203 v -20.9766 c -0.0195,-2.2851 -0.542,-3.9746 -1.5674,-5.0683 -1.0254,-1.0938 -2.6221,-1.6406 -4.79,-1.6406 -1.7578,0 -3.3008,0.4687 -4.6289,1.4062 -1.3282,0.9375 -2.3633,2.168 -3.1055,3.6914 V 0 H 76.862 V -31.6992 Z M 112.184,0 v -27.5098 h -5.01 v -4.1894 h 5.01 v -3.252 c 0,-3.3984 0.908,-6.0254 2.725,-7.8808 1.816,-1.8555 4.385,-2.7832 7.705,-2.7832 1.25,0 2.49,0.1649 3.721,0.4948 l -0.293,4.3685 c -0.918,-0.1758 -1.895,-0.2637 -2.93,-0.2637 -1.758,0 -3.115,0.5143 -4.072,1.5429 -0.957,1.0286 -1.436,2.5029 -1.436,4.4231 v 3.3504 h 6.768 v 4.1894 h -6.768 V 0 Z m 23.848,0 h -5.42 v -31.6992 h 5.42 z m -5.859,-40.1074 c 0,-0.8789 0.268,-1.6211 0.805,-2.2266 0.537,-0.6054 1.333,-0.9082 2.388,-0.9082 1.055,0 1.855,0.3028 2.402,0.9082 0.547,0.6055 0.821,1.3477 0.821,2.2266 0,0.8789 -0.274,1.6113 -0.821,2.1972 -0.547,0.586 -1.347,0.879 -2.402,0.879 -1.055,0 -1.851,-0.293 -2.388,-0.879 -0.537,-0.5859 -0.805,-1.3183 -0.805,-2.1972 z m 12.975,23.9941 c 0,-4.8633 1.152,-8.7744 3.457,-11.7334 2.304,-2.959 5.322,-4.4385 9.053,-4.4385 3.71,0 6.65,1.2696 8.818,3.8086 V -45 h 5.42 V 0 h -4.981 l -0.263,-3.39844 c -2.168,2.656252 -5.186,3.984377 -9.053,3.984377 -3.672,0 -6.665,-1.503906 -8.98,-4.511717 -2.314,-3.00781 -3.471,-6.93362 -3.471,-11.77732 z m 5.42,0.6153 c 0,3.5937 0.742,6.4062 2.226,8.43745 1.485,2.03125 3.535,3.04688 6.153,3.04688 3.437,0 5.947,-1.54297 7.529,-4.62891 V -23.2031 c -1.621,-2.9883 -4.111,-4.4824 -7.471,-4.4824 -2.656,0 -4.726,1.0253 -6.211,3.0761 -1.484,2.0508 -2.226,5.0879 -2.226,9.1114 z m 42.855,16.083937 c -4.297,0 -7.793,-1.411132 -10.489,-4.233397 -2.695,-2.82227 -4.043,-6.59664 -4.043,-11.32324 v -0.9961 c 0,-3.1445 0.601,-5.9521 1.802,-8.4228 1.201,-2.4707 2.881,-4.4043 5.039,-5.8008 2.158,-1.3965 4.497,-2.0948 7.017,-2.0948 4.121,0 7.324,1.3575 9.609,4.0723 2.285,2.7149 3.428,6.6016 3.428,11.6602 v 2.2558 h -21.475 c 0.078,3.125 0.991,5.64944 2.739,7.57327 1.748,1.92383 3.97,2.88574 6.665,2.88574 1.915,0 3.536,-0.39063 4.864,-1.17188 1.328,-0.78125 2.49,-1.8164 3.486,-3.10546 l 3.311,2.57812 c -2.657,4.08203 -6.641,6.123047 -11.953,6.123047 z M 190.749,-27.832 c -2.188,0 -4.024,0.7959 -5.508,2.3877 -1.484,1.5918 -2.402,3.8232 -2.754,6.6943 h 15.879 v -0.4102 c -0.156,-2.7539 -0.899,-4.8876 -2.227,-6.4013 -1.328,-1.5137 -3.125,-2.2705 -5.39,-2.2705 z m 24.157,-3.8672 0.175,3.9844 c 2.422,-3.0469 5.586,-4.5704 9.493,-4.5704 6.699,0 10.078,3.7793 10.136,11.3379 V 0 h -5.42 v -20.9766 c -0.019,-2.2851 -0.542,-3.9746 -1.567,-5.0683 -1.025,-1.0938 -2.622,-1.6406 -4.79,-1.6406 -1.758,0 -3.301,0.4687 -4.629,1.4062 -1.328,0.9375 -2.363,2.168 -3.105,3.6914 V 0 h -5.42 v -31.6992 z m 34.882,-7.6758 v 7.6758 h 5.918 v 4.1894 h -5.918 v 19.68296 c 0,1.27105 0.264,2.22435 0.791,2.85988 0.528,0.63552 1.426,0.95329 2.696,0.95329 0.625,0 1.484,-0.11719 2.578,-0.35156 V 0.00366211 C 254.427,0.391846 253.04,0.585937 251.693,0.585937 c -2.422,0 -4.248,-0.732421 -5.479,-2.197267 -1.23,-1.46484 -1.846,-3.54492 -1.846,-6.24023 V -27.5098 h -5.771 v -4.1894 h 5.771 V -39.375 Z M 267.803,0 h -5.42 v -31.6992 h 5.42 z m -5.86,-40.1074 c 0,-0.8789 0.269,-1.6211 0.806,-2.2266 0.537,-0.6054 1.333,-0.9082 2.388,-0.9082 1.054,0 1.855,0.3028 2.402,0.9082 0.547,0.6055 0.82,1.3477 0.82,2.2266 0,0.8789 -0.273,1.6113 -0.82,2.1972 -0.547,0.586 -1.348,0.879 -2.402,0.879 -1.055,0 -1.851,-0.293 -2.388,-0.879 -0.537,-0.5859 -0.806,-1.3183 -0.806,-2.1972 z M 295.807,0 c -0.312,-0.625 -0.566,-1.73828 -0.761,-3.33984 -2.52,2.617184 -5.528,3.925777 -9.024,3.925777 -3.125,0 -5.688,-0.883789 -7.69,-2.651367 -2.002,-1.76758 -3.003,-4.00879 -3.003,-6.72363 0,-3.30074 1.255,-5.86424 3.764,-7.69044 2.51,-1.8262 6.04,-2.7392 10.591,-2.7392 h 5.274 v -2.4903 c 0,-1.8945 -0.567,-3.4033 -1.7,-4.5263 -1.132,-1.1231 -2.802,-1.6846 -5.009,-1.6846 -1.934,0 -3.555,0.4883 -4.864,1.4648 -1.308,0.9766 -1.962,2.1582 -1.962,3.5449 h -5.45 c 0,-1.582 0.562,-3.1103 1.685,-4.5849 1.123,-1.4746 2.646,-2.6416 4.57,-3.501 1.924,-0.8594 4.038,-1.2891 6.343,-1.2891 3.652,0 6.514,0.9131 8.584,2.7393 2.07,1.8262 3.144,4.3408 3.223,7.5439 v 14.58989 c 0,2.91016 0.371,5.22461 1.113,6.94336 V 0 Z m -8.994,-4.13086 c 1.699,0 3.311,-0.43945 4.834,-1.31836 1.524,-0.8789 2.627,-2.02148 3.311,-3.42773 v -6.50395 h -4.248 c -6.641,0 -9.961,1.9434 -9.961,5.83012 0,1.69922 0.566,3.02734 1.699,3.98437 1.133,0.95704 2.588,1.43555 4.365,1.43555 z M 314.782,0 h -5.42 v -45 h 5.42 z"
           fill="#ffffff"
           transform="translate(56.2904,95)"
           id="path215" /><path
           d="m 16.8164,-3.83789 c 1.9336,0 3.6231,-0.58594 5.0684,-1.75781 1.4453,-1.17188 2.2461,-2.63672 2.4023,-4.39453 h 5.127 c -0.0977,1.8164 -0.7227,3.54492 -1.875,5.18554 -1.1524,1.64063 -2.6905,2.94922 -4.6143,3.925784 -1.9238,0.9765622 -3.96,1.464843 -6.1084,1.464843 C 12.5,0.585937 9.06738,-0.854492 6.51855,-3.73535 3.96973,-6.61621 2.69531,-10.5566 2.69531,-15.5566 v -0.9082 c 0,-3.086 0.56641,-5.8301 1.69922,-8.2325 1.13281,-2.4023 2.75879,-4.2675 4.87793,-5.5957 2.11914,-1.3281 4.62404,-1.9922 7.51464,-1.9922 3.5547,0 6.5088,1.0645 8.8623,3.1934 2.3535,2.1289 3.6084,4.8926 3.7647,8.291 h -5.127 c -0.1562,-2.0508 -0.9326,-3.7353 -2.3291,-5.0537 -1.3965,-1.3183 -3.1201,-1.9775 -5.1709,-1.9775 -2.7539,0 -4.8877,0.9912 -6.4014,2.9736 -1.51363,1.9824 -2.27047,4.8486 -2.27047,8.5986 v 1.0254 c 0,3.6524 0.75196,6.46487 2.25587,8.43753 1.5039,1.97265 3.6523,2.95898 6.4453,2.95898 z M 33.6035,-16.1426 c 0,-3.1054 0.6104,-5.8984 1.8311,-8.3789 1.2207,-2.4805 2.9199,-4.3945 5.0976,-5.7422 2.1778,-1.3476 4.6631,-2.0215 7.4561,-2.0215 4.3164,0 7.8076,1.4942 10.4736,4.4825 2.666,2.9882 3.999,6.9629 3.999,11.9238 v 0.3809 c 0,3.0859 -0.5908,5.85445 -1.7724,8.30562 -1.1817,2.45117 -2.8711,4.36035 -5.0684,5.72754 -2.1973,1.3671837 -4.7217,2.050777 -7.5732,2.050777 -4.2969,0 -7.7783,-1.49414 -10.4444,-4.482417 -2.666,-2.98828 -3.999,-6.94332 -3.999,-11.86522 z m 5.4492,0.6446 c 0,3.5156 0.8155,6.33784 2.4463,8.46675 1.6309,2.12891 3.8135,3.19336 6.5479,3.19336 2.7539,0 4.9414,-1.0791 6.5625,-3.2373 1.6211,-2.15821 2.4316,-5.18071 2.4316,-9.06741 0,-3.4765 -0.8252,-6.2939 -2.4756,-8.4521 -1.6504,-2.1582 -3.8427,-3.2373 -6.5771,-3.2373 -2.6758,0 -4.834,1.0644 -6.4746,3.1933 -1.6407,2.1289 -2.461,5.1758 -2.461,9.1407 z m 34.9154,-16.2012 0.1758,3.9844 c 2.4219,-3.0469 5.5859,-4.5704 9.4922,-4.5704 6.6992,0 10.0781,3.7793 10.1367,11.3379 V 0 h -5.4199 v -20.9766 c -0.0196,-2.2851 -0.542,-3.9746 -1.5674,-5.0683 -1.0254,-1.0938 -2.6221,-1.6406 -4.7901,-1.6406 -1.7578,0 -3.3007,0.4687 -4.6289,1.4062 -1.3281,0.9375 -2.3632,2.168 -3.1054,3.6914 V 0 h -5.42 v -31.6992 z m 34.8829,-7.6758 v 7.6758 h 5.918 v 4.1894 h -5.918 v 19.68296 c 0,1.27105 0.264,2.22435 0.791,2.85988 0.527,0.63552 1.426,0.95329 2.695,0.95329 0.625,0 1.485,-0.11719 2.578,-0.35156 V 0.00366211 C 113.49,0.391846 112.103,0.585937 110.755,0.585937 c -2.422,0 -4.248,-0.732421 -5.478,-2.197267 -1.231,-1.46484 -1.846,-3.54492 -1.846,-6.24023 V -27.5098 h -5.7715 v -4.1894 h 5.7715 v -7.6758 z m 25.28,39.960937 c -4.297,0 -7.793,-1.411132 -10.488,-4.233397 -2.696,-2.82227 -4.043,-6.59664 -4.043,-11.32324 v -0.9961 c 0,-3.1445 0.6,-5.9521 1.801,-8.4228 1.202,-2.4707 2.881,-4.4043 5.039,-5.8008 2.159,-1.3965 4.497,-2.0948 7.017,-2.0948 4.121,0 7.324,1.3575 9.609,4.0723 2.286,2.7149 3.428,6.6016 3.428,11.6602 v 2.2558 H 125.02 c 0.078,3.125 0.991,5.64944 2.739,7.57327 1.748,1.92383 3.969,2.88574 6.665,2.88574 1.914,0 3.535,-0.39063 4.863,-1.17188 1.328,-0.78125 2.49,-1.8164 3.486,-3.10546 l 3.311,2.57812 c -2.656,4.08203 -6.641,6.123047 -11.953,6.123047 z M 133.457,-27.832 c -2.187,0 -4.023,0.7959 -5.508,2.3877 -1.484,1.5918 -2.402,3.8232 -2.754,6.6943 h 15.879 v -0.4102 c -0.156,-2.7539 -0.898,-4.8876 -2.226,-6.4013 -1.328,-1.5137 -3.125,-2.2705 -5.391,-2.2705 z m 29.665,7.705 7.031,-11.5722 h 6.328 L 166.11,-16.0254 176.803,0 h -6.269 L 163.21,-11.8652 155.885,0 h -6.298 l 10.693,-16.0254 -10.371,-15.6738 h 6.269 z m 26.51,-19.248 v 7.6758 h 5.918 v 4.1894 h -5.918 v 19.68296 c 0,1.27105 0.264,2.22435 0.791,2.85988 0.528,0.63552 1.426,0.95329 2.695,0.95329 0.625,0 1.485,-0.11719 2.579,-0.35156 V 0.00366211 C 194.271,0.391846 192.884,0.585937 191.536,0.585937 c -2.421,0 -4.248,-0.732421 -5.478,-2.197267 -1.231,-1.46484 -1.846,-3.54492 -1.846,-6.24023 V -27.5098 h -5.771 v -4.1894 h 5.771 v -7.6758 z"
           fill="#ffffff"
           transform="translate(117.02,166)"
           id="path217" /></g></g></g><path
     d="m 1064.5,143.5 h 566 v 181.286 h -248.13 v 27.964 h 34.88 l -69.75,69.75 -69.75,-69.75 h 34.88 V 324.786 H 1064.5 Z"
     stroke="#000000"
     stroke-width="4.58333"
     stroke-miterlimit="8"
     fill-rule="evenodd"
     id="path225" /><g
     aria-label="Confidential context"
     id="text229"
     style="font-size:60px;font-family:Roboto, Roboto_MSFontService, sans-serif;fill:#ffffff"><path
       d="m 1223.8981,205.46484 q -0.791,6.76758 -5.0098,10.45899 -4.1894,3.66211 -11.1621,3.66211 -7.5586,0 -12.1289,-5.41992 -4.541,-5.41993 -4.541,-14.50196 v -4.10156 q 0,-5.94727 2.1093,-10.45898 2.1387,-4.51172 6.0352,-6.91407 3.8965,-2.43164 9.0234,-2.43164 6.7969,0 10.8985,3.8086 4.1015,3.77929 4.7754,10.48828 h -5.6543 q -0.7324,-5.09766 -3.1934,-7.38282 -2.4316,-2.28515 -6.8262,-2.28515 -5.3906,0 -8.4668,3.98437 -3.0468,3.98438 -3.0468,11.33789 v 4.13086 q 0,6.94336 2.9004,11.04493 2.9004,4.10156 8.1152,4.10156 4.6875,0 7.1777,-2.10938 2.5196,-2.13867 3.3399,-7.41211 z"
       style="font-size:60px;font-family:Roboto, Roboto_MSFontService, sans-serif;fill:#ffffff"
       id="path3935" /><path
       d="m 1229.2887,202.85742 q 0,-4.6582 1.8164,-8.3789 1.8457,-3.72071 5.0977,-5.74219 3.2812,-2.02149 7.4707,-2.02149 6.4746,0 10.4589,4.48243 4.0137,4.48242 4.0137,11.92382 v 0.38086 q 0,4.62891 -1.7871,8.32032 -1.7578,3.6621 -5.0684,5.71289 -3.2812,2.05078 -7.5585,2.05078 -6.4454,0 -10.459,-4.48242 -3.9844,-4.48243 -3.9844,-11.86524 z m 5.4492,0.64453 q 0,5.27344 2.4317,8.4668 2.4609,3.19336 6.5625,3.19336 4.1308,0 6.5625,-3.22266 2.4316,-3.25195 2.4316,-9.08203 0,-5.21484 -2.4902,-8.4375 -2.461,-3.25195 -6.5625,-3.25195 -4.0137,0 -6.4746,3.19336 -2.461,3.19336 -2.461,9.14062 z"
       style="font-size:60px;font-family:Roboto, Roboto_MSFontService, sans-serif;fill:#ffffff"
       id="path3937" /><path
       d="m 1270.0699,187.30078 0.1758,3.98438 q 3.6328,-4.57032 9.4922,-4.57032 10.0488,0 10.1367,11.33789 V 219 h -5.4199 v -20.97656 q -0.029,-3.42774 -1.582,-5.06836 -1.5235,-1.64063 -4.7754,-1.64063 -2.6367,0 -4.6289,1.40625 -1.9922,1.40625 -3.1055,3.69141 V 219 h -5.4199 v -31.69922 z"
       style="font-size:60px;font-family:Roboto, Roboto_MSFontService, sans-serif;fill:#ffffff"
       id="path3939" /><path
       d="m 1299.8649,219 v -27.50977 h -5.0098 v -4.18945 h 5.0098 v -2.69531 q 0,-5.30274 3.0175,-8.26172 3.0469,-2.95898 8.584,-2.95898 3.2813,0 8.291,1.7871 l -0.9082,4.57032 q -3.6621,-1.46485 -6.9726,-1.46485 -3.4863,0 -5.0391,1.58203 -1.5234,1.55274 -1.5234,4.6875 v 2.75391 h 6.4746 v 4.18945 h -6.4746 V 219 Z m 22.5879,0 h -5.4493 v -31.69922 h 5.4493 z"
       style="font-size:60px;font-family:Roboto, Roboto_MSFontService, sans-serif;fill:#ffffff"
       id="path3941" /><path
       d="m 1329.9528,202.88672 q 0,-7.29492 3.457,-11.71875 3.457,-4.45313 9.0527,-4.45313 5.5664,0 8.8184,3.8086 V 174 h 5.4199 v 45 h -4.9805 l -0.2636,-3.39844 q -3.252,3.98438 -9.0528,3.98438 -5.5078,0 -8.9941,-4.51172 -3.457,-4.51172 -3.457,-11.77735 z m 5.4199,0.61523 q 0,5.39063 2.2265,8.4375 2.2266,3.04688 6.1524,3.04688 5.1562,0 7.5293,-4.62891 v -14.56055 q -2.4317,-4.48242 -7.4707,-4.48242 -3.9844,0 -6.211,3.07617 -2.2265,3.07618 -2.2265,9.11133 z"
       style="font-size:60px;font-family:Roboto, Roboto_MSFontService, sans-serif;fill:#ffffff"
       id="path3943" /><path
       d="m 1378.2633,219.58594 q -6.4453,0 -10.4883,-4.21875 -4.0429,-4.24805 -4.0429,-11.33789 v -0.9961 q 0,-4.71679 1.7871,-8.4082 1.8164,-3.7207 5.039,-5.80078 3.252,-2.10938 7.0313,-2.10938 6.1816,0 9.6094,4.07227 3.4277,4.07226 3.4277,11.66016 v 2.25585 h -21.4746 q 0.1172,4.6875 2.7246,7.5879 2.6367,2.87109 6.6797,2.87109 2.8711,0 4.8633,-1.17188 1.9921,-1.17187 3.4863,-3.10546 l 3.3105,2.57812 q -3.9843,6.12305 -11.9531,6.12305 z m -0.6738,-28.41797 q -3.2813,0 -5.5078,2.40234 -2.2266,2.37305 -2.7539,6.67969 h 15.8789 v -0.41016 q -0.2344,-4.13086 -2.2266,-6.38672 -1.9922,-2.28515 -5.3906,-2.28515 z"
       style="font-size:60px;font-family:Roboto, Roboto_MSFontService, sans-serif;fill:#ffffff"
       id="path3945" /><path
       d="m 1402.0231,187.30078 0.1758,3.98438 q 3.6328,-4.57032 9.4921,-4.57032 10.0489,0 10.1368,11.33789 V 219 h -5.42 v -20.97656 q -0.029,-3.42774 -1.582,-5.06836 -1.5234,-1.64063 -4.7754,-1.64063 -2.6367,0 -4.6289,1.40625 -1.9922,1.40625 -3.1055,3.69141 V 219 h -5.4199 v -31.69922 z"
       style="font-size:60px;font-family:Roboto, Roboto_MSFontService, sans-serif;fill:#ffffff"
       id="path3947" /><path
       d="m 1437.3551,179.625 v 7.67578 h 5.918 v 4.18945 h -5.918 v 19.65821 q 0,1.90429 0.791,2.87109 0.791,0.9375 2.6953,0.9375 0.9375,0 2.5782,-0.35156 V 219 q -2.1387,0.58594 -4.1602,0.58594 -3.6328,0 -5.4785,-2.19727 -1.8457,-2.19726 -1.8457,-6.24023 v -19.65821 h -5.7715 v -4.18945 h 5.7715 V 179.625 Z"
       style="font-size:60px;font-family:Roboto, Roboto_MSFontService, sans-serif;fill:#ffffff"
       id="path3949" /><path
       d="m 1455.4899,219 h -5.42 v -31.69922 h 5.42 z m -5.8594,-40.10742 q 0,-1.31836 0.791,-2.22656 0.8203,-0.90821 2.4024,-0.90821 1.582,0 2.4023,0.90821 0.8203,0.9082 0.8203,2.22656 0,1.31836 -0.8203,2.19726 -0.8203,0.87891 -2.4023,0.87891 -1.5821,0 -2.4024,-0.87891 -0.791,-0.8789 -0.791,-2.19726 z"
       style="font-size:60px;font-family:Roboto, Roboto_MSFontService, sans-serif;fill:#ffffff"
       id="path3951" /><path
       d="m 1483.7321,219 q -0.4688,-0.9375 -0.7618,-3.33984 -3.7793,3.92578 -9.0234,3.92578 -4.6875,0 -7.7051,-2.63672 -2.9883,-2.66602 -2.9883,-6.73828 0,-4.95117 3.75,-7.67578 3.7793,-2.75391 10.6055,-2.75391 h 5.2734 v -2.49023 q 0,-2.8418 -1.6992,-4.51172 -1.6992,-1.69922 -5.0097,-1.69922 -2.9004,0 -4.8633,1.46484 -1.9629,1.46485 -1.9629,3.54492 h -5.4492 q 0,-2.37304 1.6699,-4.57031 1.6992,-2.22656 4.5703,-3.51562 2.9004,-1.28907 6.3574,-1.28907 5.4785,0 8.584,2.75391 3.1055,2.72461 3.2227,7.5293 v 14.58984 q 0,4.36523 1.1132,6.94336 V 219 Z m -8.9942,-4.13086 q 2.5488,0 4.834,-1.31836 2.2852,-1.31836 3.3105,-3.42773 v -6.50391 h -4.248 q -9.9609,0 -9.9609,5.83008 0,2.54883 1.6992,3.98437 1.6992,1.43555 4.3652,1.43555 z"
       style="font-size:60px;font-family:Roboto, Roboto_MSFontService, sans-serif;fill:#ffffff"
       id="path3953" /><path
       d="m 1502.6871,219 h -5.4199 v -45 h 5.4199 z"
       style="font-size:60px;font-family:Roboto, Roboto_MSFontService, sans-serif;fill:#ffffff"
       id="path3955" /><path
       d="m 1265.1155,286.16211 q 2.9004,0 5.0683,-1.75781 2.168,-1.75782 2.4024,-4.39453 h 5.1269 q -0.1464,2.7246 -1.875,5.18554 -1.7285,2.46094 -4.6289,3.92578 -2.8711,1.46485 -6.0937,1.46485 -6.4746,0 -10.3125,-4.30664 -3.8086,-4.33594 -3.8086,-11.83594 v -0.9082 q 0,-4.62891 1.6992,-8.23243 1.6992,-3.60351 4.8633,-5.5957 3.1933,-1.99219 7.5293,-1.99219 5.332,0 8.8476,3.19336 3.545,3.19336 3.7793,8.29102 h -5.1269 q -0.2344,-3.07617 -2.3438,-5.03906 -2.08,-1.99219 -5.1562,-1.99219 -4.1309,0 -6.416,2.98828 -2.2559,2.95898 -2.2559,8.58398 v 1.02539 q 0,5.47852 2.2559,8.4375 2.2558,2.95899 6.4453,2.95899 z"
       id="path3957" /><path
       d="m 1282.3713,273.85742 q 0,-4.6582 1.8164,-8.3789 1.8457,-3.72071 5.0977,-5.74219 3.2813,-2.02149 7.4707,-2.02149 6.4746,0 10.459,4.48243 4.0137,4.48242 4.0137,11.92382 v 0.38086 q 0,4.62891 -1.7871,8.32032 -1.7579,3.6621 -5.0684,5.71289 -3.2813,2.05078 -7.5586,2.05078 -6.4453,0 -10.459,-4.48242 -3.9844,-4.48243 -3.9844,-11.86524 z m 5.4493,0.64453 q 0,5.27344 2.4316,8.4668 2.4609,3.19336 6.5625,3.19336 4.1309,0 6.5625,-3.22266 2.4316,-3.25195 2.4316,-9.08203 0,-5.21484 -2.4902,-8.4375 -2.4609,-3.25195 -6.5625,-3.25195 -4.0137,0 -6.4746,3.19336 -2.4609,3.19336 -2.4609,9.14062 z"
       id="path3959" /><path
       d="m 1323.1526,258.30078 0.1758,3.98438 q 3.6328,-4.57032 9.4922,-4.57032 10.0488,0 10.1367,11.33789 V 290 h -5.4199 v -20.97656 q -0.029,-3.42774 -1.5821,-5.06836 -1.5234,-1.64063 -4.7754,-1.64063 -2.6367,0 -4.6289,1.40625 -1.9922,1.40625 -3.1054,3.69141 V 290 h -5.42 v -31.69922 z"
       id="path3961" /><path
       d="m 1358.4846,250.625 v 7.67578 h 5.918 v 4.18945 h -5.918 v 19.65821 q 0,1.90429 0.791,2.87109 0.7911,0.9375 2.6953,0.9375 0.9375,0 2.5782,-0.35156 V 290 q -2.1387,0.58594 -4.1602,0.58594 -3.6328,0 -5.4785,-2.19727 -1.8457,-2.19726 -1.8457,-6.24023 v -19.65821 h -5.7715 v -4.18945 h 5.7715 V 250.625 Z"
       id="path3963" /><path
       d="m 1383.885,290.58594 q -6.4453,0 -10.4883,-4.21875 -4.0429,-4.24805 -4.0429,-11.33789 v -0.9961 q 0,-4.71679 1.7871,-8.4082 1.8164,-3.7207 5.039,-5.80078 3.252,-2.10938 7.0313,-2.10938 6.1816,0 9.6094,4.07227 3.4277,4.07226 3.4277,11.66016 v 2.25585 h -21.4746 q 0.1172,4.6875 2.7246,7.5879 2.6367,2.87109 6.6797,2.87109 2.8711,0 4.8633,-1.17188 1.9921,-1.17187 3.4863,-3.10546 l 3.3105,2.57812 q -3.9843,6.12305 -11.9531,6.12305 z m -0.6738,-28.41797 q -3.2813,0 -5.5078,2.40234 -2.2266,2.37305 -2.7539,6.67969 h 15.8789 v -0.41016 q -0.2344,-4.13086 -2.2266,-6.38672 -1.9922,-2.28515 -5.3906,-2.28515 z"
       id="path3965" /><path
       d="m 1413.1526,269.87305 7.0312,-11.57227 h 6.3282 L 1416.1409,273.97461 1426.8342,290 h -6.2695 L 1413.2405,278.13477 1405.9163,290 h -6.2989 l 10.6934,-16.02539 -10.3711,-15.67383 h 6.2695 z"
       id="path3967" /><path
       d="m 1439.6077,250.625 v 7.67578 h 5.9179 v 4.18945 h -5.9179 v 19.65821 q 0,1.90429 0.791,2.87109 0.791,0.9375 2.6953,0.9375 0.9375,0 2.5781,-0.35156 V 290 q -2.1387,0.58594 -4.1601,0.58594 -3.6328,0 -5.4786,-2.19727 -1.8457,-2.19726 -1.8457,-6.24023 v -19.65821 h -5.7714 v -4.18945 h 5.7714 V 250.625 Z"
       id="path3969" /></g><rect
     x="493"
     y="816"
     width="500"
     height="110"
     fill="#90ff99"
     id="rect231" /><g
     aria-label="Attestation"
     id="text233"
     style="font-size:63px;font-family:Roboto, Roboto_MSFontService, sans-serif"><path
       d="M 617.91113,881.31055 H 599.14648 L 594.93213,893 h -6.09082 l 17.10351,-44.78906 h 5.16797 L 628.24707,893 h -6.06006 z m -16.98047,-4.86035 h 15.22705 l -7.6289,-20.94874 z"
       style="font-size:63px;font-family:Roboto, Roboto_MSFontService, sans-serif"
       id="path3804" /><path
       d="m 640.58252,851.65625 v 8.05957 h 6.21387 v 4.39893 h -6.21387 v 20.64111 q 0,1.99951 0.83057,3.01465 0.83056,0.98437 2.83007,0.98437 0.98438,0 2.70704,-0.36914 V 893 q -2.24561,0.61523 -4.36817,0.61523 -3.81445,0 -5.75244,-2.30712 -1.93799,-2.30713 -1.93799,-6.55225 v -20.64111 h -6.06006 v -4.39893 h 6.06006 v -8.05957 z"
       style="font-size:63px;font-family:Roboto, Roboto_MSFontService, sans-serif"
       id="path3806" /><path
       d="m 661.16211,851.65625 v 8.05957 h 6.21387 v 4.39893 h -6.21387 v 20.64111 q 0,1.99951 0.83057,3.01465 0.83056,0.98437 2.83007,0.98437 0.98438,0 2.70704,-0.36914 V 893 q -2.24561,0.61523 -4.36817,0.61523 -3.81445,0 -5.75244,-2.30712 -1.93799,-2.30713 -1.93799,-6.55225 v -20.64111 h -6.06006 v -4.39893 h 6.06006 v -8.05957 z"
       style="font-size:63px;font-family:Roboto, Roboto_MSFontService, sans-serif"
       id="path3808" /><path
       d="m 687.83252,893.61523 q -6.76758,0 -11.0127,-4.42968 -4.24511,-4.46045 -4.24511,-11.90479 v -1.0459 q 0,-4.95263 1.87646,-8.82861 1.90723,-3.90674 5.29102,-6.09082 3.41455,-2.21484 7.38281,-2.21484 6.49072,0 10.08984,4.27587 3.59912,4.27588 3.59912,12.24317 v 2.36865 h -22.54834 q 0.12305,4.92188 2.86084,7.96729 2.76856,3.01464 7.01368,3.01464 3.01465,0 5.10644,-1.23046 2.0918,-1.23047 3.66065,-3.26075 l 3.47607,2.70704 q -4.18359,6.42919 -12.55078,6.42919 z M 687.125,863.77637 q -3.44531,0 -5.7832,2.52246 -2.33789,2.4917 -2.8916,7.01367 h 16.67285 v -0.43066 q -0.2461,-4.33741 -2.33789,-6.70606 -2.0918,-2.39941 -5.66016,-2.39941 z"
       style="font-size:63px;font-family:Roboto, Roboto_MSFontService, sans-serif"
       id="path3810" /><path
       d="m 726.77686,884.17139 q 0,-2.30713 -1.75342,-3.56836 -1.72266,-1.29199 -6.06006,-2.21485 -4.30664,-0.92285 -6.85986,-2.21484 -2.52247,-1.29199 -3.75293,-3.07617 -1.19971,-1.78418 -1.19971,-4.24512 0,-4.09131 3.44531,-6.92139 3.47608,-2.83007 8.85938,-2.83007 5.66015,0 9.16699,2.92236 3.5376,2.92236 3.5376,7.4751 h -5.72168 q 0,-2.33789 -1.99952,-4.02979 -1.96875,-1.69189 -4.98339,-1.69189 -3.10694,0 -4.86036,1.35351 -1.75341,1.35352 -1.75341,3.5376 0,2.06104 1.63037,3.10693 1.63037,1.0459 5.87549,1.99952 4.27588,0.95361 6.92138,2.27636 2.64551,1.32276 3.90674,3.19922 1.29199,1.8457 1.29199,4.52197 0,4.46045 -3.56836,7.16748 -3.56836,2.67627 -9.25927,2.67627 -3.99903,0 -7.0752,-1.41503 -3.07617,-1.41504 -4.82959,-3.9375 -1.72265,-2.55323 -1.72265,-5.50635 h 5.69091 q 0.15381,2.86084 2.27637,4.55273 2.15332,1.66113 5.66016,1.66113 3.22998,0 5.16797,-1.29199 1.96875,-1.32275 1.96875,-3.50683 z"
       style="font-size:63px;font-family:Roboto, Roboto_MSFontService, sans-serif"
       id="path3812" /><path
       d="m 747.60254,851.65625 v 8.05957 h 6.21387 v 4.39893 h -6.21387 v 20.64111 q 0,1.99951 0.83057,3.01465 0.83056,0.98437 2.83007,0.98437 0.98438,0 2.70703,-0.36914 V 893 q -2.2456,0.61523 -4.36816,0.61523 -3.81445,0 -5.75244,-2.30712 -1.93799,-2.30713 -1.93799,-6.55225 v -20.64111 h -6.06006 v -4.39893 h 6.06006 v -8.05957 z"
       style="font-size:63px;font-family:Roboto, Roboto_MSFontService, sans-serif"
       id="path3814" /><path
       d="m 781.00977,893 q -0.49219,-0.98438 -0.79981,-3.50684 -3.96826,4.12207 -9.47461,4.12207 -4.92187,0 -8.09033,-2.76855 -3.1377,-2.79932 -3.1377,-7.0752 0,-5.19873 3.9375,-8.05957 3.96827,-2.8916 11.13575,-2.8916 h 5.53711 v -2.61474 q 0,-2.98389 -1.78418,-4.73731 -1.78418,-1.78418 -5.26026,-1.78418 -3.04541,0 -5.10644,1.53809 -2.06104,1.53808 -2.06104,3.72217 h -5.72168 q 0,-2.4917 1.75342,-4.79883 1.78418,-2.33789 4.79883,-3.69141 3.04541,-1.35351 6.67529,-1.35351 5.75244,0 9.01318,2.8916 3.26075,2.86084 3.38379,7.90576 v 15.31934 q 0,4.58349 1.16895,7.29052 V 893 Z m -9.44385,-4.3374 q 2.67627,0 5.07568,-1.38428 2.39942,-1.38428 3.47608,-3.59912 v -6.8291 h -4.46045 q -10.45899,0 -10.45899,6.12158 0,2.67627 1.78418,4.18359 1.78418,1.50733 4.5835,1.50733 z"
       style="font-size:63px;font-family:Roboto, Roboto_MSFontService, sans-serif"
       id="path3816" /><path
       d="m 802.45068,851.65625 v 8.05957 h 6.21387 v 4.39893 h -6.21387 v 20.64111 q 0,1.99951 0.83057,3.01465 0.83057,0.98437 2.83008,0.98437 0.98437,0 2.70703,-0.36914 V 893 q -2.24561,0.61523 -4.36816,0.61523 -3.81446,0 -5.75245,-2.30712 -1.93798,-2.30713 -1.93798,-6.55225 v -20.64111 h -6.06006 v -4.39893 h 6.06006 v -8.05957 z"
       style="font-size:63px;font-family:Roboto, Roboto_MSFontService, sans-serif"
       id="path3818" /><path
       d="m 821.49219,893 h -5.69092 v -33.28418 h 5.69092 z m -6.15235,-42.11279 q 0,-1.38428 0.83057,-2.33789 0.86133,-0.95362 2.52246,-0.95362 1.66113,0 2.52246,0.95362 0.86133,0.95361 0.86133,2.33789 0,1.38427 -0.86133,2.30713 -0.86133,0.92285 -2.52246,0.92285 -1.66113,0 -2.52246,-0.92285 -0.83057,-0.92286 -0.83057,-2.30713 z"
       style="font-size:63px;font-family:Roboto, Roboto_MSFontService, sans-serif"
       id="path3820" /><path
       d="m 829.09033,876.05029 q 0,-4.89111 1.90723,-8.79785 1.93799,-3.90674 5.35254,-6.0293 3.44531,-2.12255 7.84424,-2.12255 6.79834,0 10.98193,4.70654 4.21435,4.70654 4.21435,12.52002 v 0.3999 q 0,4.86035 -1.87646,8.73633 -1.8457,3.84521 -5.32178,5.99853 -3.44531,2.15332 -7.93652,2.15332 -6.76758,0 -10.98193,-4.70654 -4.1836,-4.70654 -4.1836,-12.45849 z m 5.72168,0.67676 q 0,5.53711 2.55322,8.89014 2.58399,3.35302 6.89063,3.35302 4.3374,0 6.89062,-3.38378 2.55323,-3.41456 2.55323,-9.53614 0,-5.47558 -2.61475,-8.85937 -2.58398,-3.41455 -6.89062,-3.41455 -4.21436,0 -6.79834,3.35302 -2.58399,3.35303 -2.58399,9.59766 z"
       style="font-size:63px;font-family:Roboto, Roboto_MSFontService, sans-serif"
       id="path3822" /><path
       d="m 871.91064,859.71582 0.18457,4.18359 q 3.81446,-4.79882 9.9668,-4.79882 10.55127,0 10.64356,11.90478 V 893 h -5.69092 v -22.02539 q -0.0308,-3.59912 -1.66113,-5.32178 -1.59961,-1.72265 -5.01416,-1.72265 -2.76856,0 -4.86036,1.47656 -2.09179,1.47656 -3.26074,3.87597 V 893 h -5.69092 v -33.28418 z"
       style="font-size:63px;font-family:Roboto, Roboto_MSFontService, sans-serif"
       id="path3824" /></g><g
     clip-path="url(#clip23)"
     id="g253"
     transform="translate(-451,-359)"><g
       clip-path="url(#clip24)"
       id="g251"><g
         clip-path="url(#clip25)"
         id="g249"><path
           d="M 44.4375,217.25 H 192.563 V 19.75 H 44.4375 Z M 49.375,24.6875 h 138.25 V 212.313 H 49.375 Z"
           transform="matrix(1.05485,0,0,1,1068,954)"
           id="path235" /><path
           d="m 69.1251,56.7813 h 98.7499 v 4.9375 H 69.1251 Z"
           transform="matrix(1.05485,0,0,1,1068,954)"
           id="path237" /><path
           d="m 69.1251,76.5313 h 98.7499 v 4.9375 H 69.1251 Z"
           transform="matrix(1.05485,0,0,1,1068,954)"
           id="path239" /><path
           d="m 69.1251,96.2813 h 98.7499 v 4.9377 H 69.1251 Z"
           transform="matrix(1.05485,0,0,1,1068,954)"
           id="path241" /><path
           d="M 69.1251,116.031 H 118.5 v 4.938 H 69.1251 Z"
           transform="matrix(1.05485,0,0,1,1068,954)"
           id="path243" /><path
           d="m 118.5,165.406 h 49.375 v 4.938 H 118.5 Z"
           transform="matrix(1.05485,0,0,1,1068,954)"
           id="path245" /><path
           d="m 98.2391,151.317 -12.45,12.45 -12.4499,-12.45 -3.4908,3.491 12.4499,12.45 -12.4499,12.45 3.4908,3.491 12.4499,-12.45 12.45,12.45 3.4909,-3.491 -12.45,-12.45 12.45,-12.45 z"
           transform="matrix(1.05485,0,0,1,1068,954)"
           id="path247" /></g></g></g><path
     d="m 685.5,1322.9375 993.101,-3e-4 v -6.875 l -993.101,3e-4 z m 988.518,10.3121 27.502,-13.75 -27.502,-13.75 z"
     id="path255" /><path
     d="m 746.72,926.66 -0.57,12.34 -1.67,12.35 -2.68,12.15 -3.65,11.89 -4.53,11.43 -5.3,10.98 -6,10.41 -6.72,9.73 -7.31,8.97 -7.83,8.09 -8.32,7.16 -8.73,6.08 -9.04,4.94 -9.3,3.67 -9.48,2.29 -4.9,0.6 -4.7,0.19 -4.57,0.19 0.28,-0.02 -4.56,0.56 0.39,-0.07 -9.07,2.19 0.46,-0.14 -8.88,3.5 0.39,-0.19 -8.69,4.75 0.32,-0.19 -8.44,5.87 0.29,-0.22 -8,6.94 0.22,-0.21 -7.63,7.88 0.2,-0.22 -7.13,8.75 0.17,-0.22 -6.57,9.5 0.15,-0.24 -5.87,10.19 0.11,-0.22 -5.19,10.69 0.11,-0.24 -4.44,11.25 0.09,-0.25 -3.56,11.56 0.1,-0.4 -2.42,13.33 -6.761,-1.23 2.451,-13.52 3.66,-11.89 4.53,-11.49 5.3,-10.92 6.01,-10.41 6.72,-9.73 7.3,-8.97 7.83,-8.09 8.25,-7.15 8.74,-6.09 9.04,-4.94 9.3,-3.67 9.48,-2.29 4.9,-0.6 4.7,-0.19 4.57,-0.19 -0.28,0.02 4.56,-0.56 -0.39,0.07 9.07,-2.19 -0.46,0.14 8.88,-3.5 -0.39,0.19 8.69,-4.75 -0.32,0.19 8.44,-5.87 -0.28,0.21 8.06,-6.94 -0.22,0.22 7.62,-7.88 -0.2,0.22 7.13,-8.75 -0.16,0.22 6.56,-9.5 -0.15,0.24 5.87,-10.19 -0.11,0.22 5.18,-10.75 -0.1,0.23 4.44,-11.19 -0.09,0.26 3.56,-11.62 -0.07,0.26 2.63,-11.87 -0.05,0.28 1.62,-12.06 -0.02,0.3 0.56,-12.19 z m -181.7,233.84 -16.52,25.93 -10.831,-28.78 z"
     id="path257" /><g
     clip-path="url(#clip26)"
     id="g269"
     transform="translate(-451,-359)"><g
       clip-path="url(#clip27)"
       id="g267"><g
         clip-path="url(#clip28)"
         id="g265"><path
           d="m 274.552,115.209 c 0,63.629 -51.581,115.209 -115.209,115.209 -63.6285,0 -115.2094,-51.58 -115.2094,-115.209 C 44.1336,51.5809 95.7145,0 159.343,0 222.971,0 274.552,51.5809 274.552,115.209 Z"
           fill="#90ff99"
           transform="matrix(1.00099,0,0,1,3044,1535)"
           id="path259" /><path
           d="m 274.552,115.209 c 0,63.629 -51.581,115.209 -115.209,115.209 -63.6285,0 -115.2094,-51.58 -115.2094,-115.209 C 44.1336,51.5809 95.7145,0 159.343,0 c 22.178,0 42.892,6.26666 60.469,17.1258 -4.545,4.5497 -7.355,10.8319 -7.355,17.7705 0,13.8877 11.258,25.1459 25.146,25.1459 7.172,0 13.642,-3.0021 18.223,-7.8188 11.842,18.1025 18.726,39.7402 18.726,62.9856 z M 262.749,34.8963 c 0,6.716 -2.633,12.8171 -6.923,17.3271 -9.273,-14.1761 -21.586,-26.184 -36.014,-35.0976 4.551,-4.5566 10.842,-7.37535 17.791,-7.37535 13.888,0 25.146,11.25815 25.146,25.14585 z M 176.554,163.715 c 19.348,-6.851 31.779,-24.499 32.92,-43.777 l 30.493,-10.798 c 3.576,35.929 -17.576,71.008 -53.135,83.6 C 145.02,207.545 99.1236,185.653 84.3178,143.841 69.512,102.03 91.4043,56.1323 133.216,41.3265 c 35.732,-12.6528 74.448,1.4962 94.193,31.9748 l -30.41,10.7681 c -12.992,-14.5621 -33.972,-20.635 -53.505,-13.7179 -25.781,9.1295 -39.281,37.4305 -30.152,63.2115 9.13,25.782 37.431,39.281 63.212,30.152 z"
           fill-rule="evenodd"
           transform="matrix(1.00099,0,0,1,3044,1535)"
           id="path261" /><path
           d="m 35.8425,278.329 h 7.1926 c -0.1444,2.357 -0.7939,4.45 -1.9485,6.278 -1.1386,1.828 -2.7343,3.256 -4.787,4.282 -2.0367,1.027 -4.4904,1.54 -7.361,1.54 -2.2452,0 -4.2578,-0.385 -6.0379,-1.155 -1.7801,-0.786 -3.3036,-1.908 -4.5705,-3.368 -1.2509,-1.459 -2.2051,-3.223 -2.8626,-5.292 -0.6575,-2.069 -0.9862,-4.386 -0.9862,-6.952 v -2.43 c 0,-2.566 0.3367,-4.883 1.0103,-6.952 0.6895,-2.084 1.6678,-3.856 2.9347,-5.316 1.2829,-1.459 2.8145,-2.582 4.5946,-3.368 1.7801,-0.786 3.7687,-1.178 5.9657,-1.178 2.9188,0 5.3804,0.529 7.385,1.587 2.0207,1.059 3.5843,2.518 4.6908,4.379 1.1226,1.86 1.7962,3.977 2.0207,6.35 h -7.2166 c -0.0802,-1.411 -0.3609,-2.606 -0.842,-3.584 -0.4811,-0.994 -1.2108,-1.74 -2.189,-2.237 -0.9622,-0.513 -2.2452,-0.77 -3.8489,-0.77 -1.2028,0 -2.2531,0.224 -3.1512,0.673 -0.8981,0.449 -1.6518,1.131 -2.2612,2.045 -0.6094,0.914 -1.0665,2.069 -1.3712,3.464 -0.2887,1.379 -0.433,2.999 -0.433,4.86 v 2.477 c 0,1.812 0.1363,3.408 0.409,4.787 0.2726,1.363 0.6895,2.518 1.2508,3.464 0.5773,0.93 1.3151,1.636 2.2132,2.117 0.914,0.465 2.0126,0.697 3.2955,0.697 1.5075,0 2.7504,-0.24 3.7286,-0.721 0.9783,-0.481 1.724,-1.195 2.2371,-2.141 0.5293,-0.946 0.842,-2.125 0.9382,-3.536 z m 10.392,-1.131 v -0.505 c 0,-1.908 0.2726,-3.665 0.8178,-5.268 0.5453,-1.62 1.3391,-3.023 2.3815,-4.21 1.0424,-1.186 2.3252,-2.109 3.8488,-2.766 1.5236,-0.674 3.2715,-1.01 5.2442,-1.01 1.9727,0 3.7283,0.336 5.2678,1.01 1.5395,0.657 2.8307,1.58 3.873,2.766 1.0587,1.187 1.8603,2.59 2.4058,4.21 0.545,1.603 0.818,3.36 0.818,5.268 v 0.505 c 0,1.893 -0.273,3.649 -0.818,5.268 -0.5455,1.604 -1.3471,3.007 -2.4058,4.21 -1.0423,1.187 -2.3252,2.109 -3.8489,2.767 -1.5231,0.657 -3.2715,0.986 -5.2437,0.986 -1.9726,0 -3.7287,-0.329 -5.2683,-0.986 -1.5236,-0.658 -2.8145,-1.58 -3.8729,-2.767 -1.0424,-1.203 -1.8362,-2.606 -2.3815,-4.21 -0.5452,-1.619 -0.8178,-3.375 -0.8178,-5.268 z m 6.928,-0.505 v 0.505 c 0,1.091 0.096,2.109 0.2884,3.055 0.1925,0.946 0.4973,1.78 0.9145,2.502 0.4326,0.705 0.994,1.259 1.6838,1.66 0.6892,0.401 1.5313,0.601 2.5258,0.601 0.9623,0 1.788,-0.2 2.4777,-0.601 0.6892,-0.401 1.2429,-0.955 1.6596,-1.66 0.4172,-0.722 0.7215,-1.556 0.914,-2.502 0.2088,-0.946 0.313,-1.964 0.313,-3.055 v -0.505 c 0,-1.059 -0.1042,-2.053 -0.313,-2.983 -0.1925,-0.946 -0.505,-1.78 -0.9381,-2.502 -0.4167,-0.737 -0.9699,-1.315 -1.6596,-1.732 -0.6898,-0.417 -1.5237,-0.625 -2.5018,-0.625 -0.9781,0 -1.812,0.208 -2.5018,0.625 -0.6738,0.417 -1.227,0.995 -1.6596,1.732 -0.4172,0.722 -0.722,1.556 -0.9145,2.502 -0.1924,0.93 -0.2884,1.924 -0.2884,2.983 z m 28.77,-7.217 v 20.471 h -6.928 v -26.028 h 6.4949 z m -1.01,6.543 h -1.8767 c 0,-1.924 0.2489,-3.656 0.7457,-5.196 0.4973,-1.555 1.1947,-2.878 2.0927,-3.969 0.8981,-1.106 1.965,-1.948 3.1997,-2.526 1.2507,-0.593 2.646,-0.889 4.1855,-0.889 1.2189,0 2.3335,0.176 3.3439,0.529 1.0105,0.352 1.8762,0.914 2.5978,1.683 0.7379,0.77 1.2988,1.789 1.6837,3.055 0.4013,1.267 0.6014,2.815 0.6014,4.643 v 16.598 h -6.9756 v -16.622 c 0,-1.155 -0.1606,-2.053 -0.4814,-2.694 -0.3207,-0.642 -0.7939,-1.091 -1.4189,-1.347 -0.6097,-0.273 -1.3636,-0.409 -2.2616,-0.409 -0.9299,0 -1.7397,0.184 -2.4294,0.553 -0.6738,0.369 -1.2347,0.882 -1.6838,1.54 -0.4331,0.641 -0.762,1.395 -0.9863,2.261 -0.2248,0.866 -0.3367,1.796 -0.3367,2.79 z m 35.9145,6.736 c 0,-0.497 -0.144,-0.946 -0.433,-1.347 -0.288,-0.401 -0.826,-0.77 -1.611,-1.107 -0.77,-0.352 -1.885,-0.673 -3.344,-0.962 -1.316,-0.288 -2.542,-0.65 -3.681,-1.082 -1.123,-0.449 -2.101,-0.987 -2.935,-1.612 -0.817,-0.626 -1.459,-1.363 -1.924,-2.213 -0.465,-0.866 -0.698,-1.853 -0.698,-2.959 0,-1.091 0.233,-2.117 0.698,-3.079 0.481,-0.962 1.163,-1.812 2.045,-2.55 0.898,-0.754 1.988,-1.339 3.271,-1.756 1.299,-0.433 2.759,-0.649 4.378,-0.649 2.261,0 4.202,0.36 5.822,1.082 1.635,0.721 2.886,1.716 3.752,2.983 0.882,1.251 1.323,2.678 1.323,4.281 h -6.928 c 0,-0.673 -0.144,-1.274 -0.433,-1.803 -0.272,-0.546 -0.705,-0.971 -1.299,-1.276 -0.577,-0.32 -1.33,-0.48 -2.261,-0.48 -0.77,0 -1.435,0.136 -1.997,0.409 -0.561,0.256 -0.994,0.609 -1.298,1.058 -0.289,0.433 -0.434,0.914 -0.434,1.443 0,0.401 0.081,0.762 0.241,1.083 0.177,0.304 0.457,0.585 0.842,0.842 0.385,0.256 0.882,0.496 1.492,0.721 0.625,0.209 1.395,0.401 2.309,0.578 1.876,0.384 3.552,0.889 5.027,1.515 1.476,0.61 2.646,1.444 3.513,2.502 0.865,1.042 1.299,2.413 1.299,4.113 0,1.155 -0.257,2.213 -0.77,3.175 -0.513,0.963 -1.251,1.805 -2.214,2.526 -0.962,0.706 -2.116,1.259 -3.464,1.66 -1.33,0.385 -2.83,0.578 -4.498,0.578 -2.421,0 -4.474,-0.433 -6.158,-1.3 -1.668,-0.865 -2.935,-1.964 -3.801,-3.295 -0.85,-1.347 -1.275,-2.726 -1.275,-4.137 h 6.568 c 0.032,0.946 0.272,1.707 0.721,2.285 0.466,0.577 1.051,0.994 1.756,1.25 0.722,0.257 1.5,0.385 2.334,0.385 0.898,0 1.643,-0.12 2.237,-0.36 0.593,-0.257 1.042,-0.594 1.347,-1.01 0.32,-0.434 0.481,-0.931 0.481,-1.492 z m 23.983,-18.836 v 4.908 h -15.155 v -4.908 z m -11.402,-6.422 h 6.928 v 24.609 c 0,0.753 0.096,1.33 0.289,1.732 0.208,0.4 0.513,0.681 0.914,0.841 0.4,0.145 0.906,0.217 1.515,0.217 0.433,0 0.818,-0.016 1.155,-0.048 0.353,-0.048 0.649,-0.096 0.89,-0.145 l 0.024,5.1 c -0.594,0.193 -1.235,0.345 -1.924,0.457 -0.69,0.112 -1.452,0.169 -2.286,0.169 -1.523,0 -2.854,-0.249 -3.993,-0.746 -1.122,-0.514 -1.989,-1.331 -2.598,-2.454 -0.609,-1.122 -0.914,-2.598 -0.914,-4.426 z m 27.327,32.932 c -2.021,0 -3.833,-0.321 -5.437,-0.963 -1.603,-0.657 -2.967,-1.563 -4.089,-2.718 -1.107,-1.154 -1.957,-2.494 -2.55,-4.017 -0.593,-1.539 -0.89,-3.175 -0.89,-4.907 v -0.963 c 0,-1.972 0.281,-3.776 0.842,-5.412 0.561,-1.636 1.363,-3.055 2.405,-4.258 1.059,-1.203 2.342,-2.125 3.849,-2.766 1.508,-0.658 3.208,-0.986 5.1,-0.986 1.844,0 3.48,0.304 4.907,0.914 1.428,0.609 2.622,1.475 3.584,2.598 0.979,1.122 1.717,2.469 2.214,4.041 0.497,1.556 0.745,3.288 0.745,5.196 v 2.886 h -20.687 v -4.618 h 13.88 v -0.53 c 0,-0.962 -0.176,-1.82 -0.53,-2.573 -0.336,-0.77 -0.849,-1.38 -1.539,-1.829 -0.69,-0.449 -1.571,-0.673 -2.646,-0.673 -0.914,0 -1.7,0.2 -2.358,0.601 -0.657,0.401 -1.194,0.963 -1.611,1.684 -0.401,0.722 -0.706,1.572 -0.914,2.55 -0.193,0.963 -0.289,2.021 -0.289,3.175 v 0.963 c 0,1.042 0.144,2.004 0.433,2.886 0.305,0.882 0.729,1.644 1.275,2.285 0.561,0.642 1.235,1.139 2.02,1.492 0.802,0.353 1.708,0.529 2.719,0.529 1.251,0 2.413,-0.24 3.488,-0.722 1.09,-0.496 2.028,-1.243 2.814,-2.237 l 3.368,3.657 c -0.545,0.785 -1.291,1.539 -2.237,2.261 -0.93,0.721 -2.053,1.315 -3.368,1.78 -1.315,0.449 -2.814,0.674 -4.498,0.674 z m 21.939,-37.431 v 36.949 h -6.952 v -36.949 z m 13.037,0 v 36.949 h -6.952 v -36.949 z m 19.774,31.08 v -11.595 c 0,-0.834 -0.137,-1.547 -0.409,-2.141 -0.273,-0.609 -0.698,-1.082 -1.275,-1.419 -0.561,-0.337 -1.291,-0.505 -2.189,-0.505 -0.77,0 -1.435,0.136 -1.996,0.409 -0.562,0.257 -0.995,0.633 -1.3,1.131 -0.305,0.48 -0.456,1.05 -0.456,1.707 h -6.928 c 0,-1.106 0.256,-2.157 0.769,-3.151 0.514,-0.994 1.259,-1.868 2.237,-2.622 0.978,-0.77 2.141,-1.371 3.488,-1.804 1.363,-0.433 2.887,-0.649 4.571,-0.649 2.021,0 3.817,0.336 5.388,1.01 1.572,0.673 2.807,1.684 3.705,3.031 0.914,1.347 1.371,3.031 1.371,5.051 v 11.138 c 0,1.427 0.088,2.598 0.264,3.512 0.177,0.898 0.433,1.684 0.77,2.357 v 0.409 h -7 c -0.336,-0.705 -0.593,-1.587 -0.769,-2.645 -0.161,-1.075 -0.241,-2.15 -0.241,-3.224 z m 0.914,-9.983 0.048,3.921 h -3.873 c -0.914,0 -1.708,0.104 -2.382,0.313 -0.673,0.208 -1.226,0.505 -1.659,0.89 -0.433,0.368 -0.754,0.802 -0.962,1.299 -0.193,0.497 -0.289,1.042 -0.289,1.635 0,0.594 0.136,1.131 0.409,1.612 0.273,0.465 0.665,0.834 1.178,1.107 0.514,0.256 1.115,0.385 1.805,0.385 1.042,0 1.948,-0.209 2.718,-0.626 0.77,-0.417 1.363,-0.93 1.78,-1.539 0.433,-0.61 0.658,-1.187 0.674,-1.732 l 1.828,2.934 c -0.256,0.658 -0.61,1.34 -1.059,2.045 -0.433,0.706 -0.986,1.372 -1.659,1.997 -0.674,0.609 -1.484,1.114 -2.43,1.515 -0.946,0.385 -2.069,0.578 -3.368,0.578 -1.652,0 -3.151,-0.329 -4.498,-0.986 -1.331,-0.674 -2.39,-1.596 -3.175,-2.767 -0.77,-1.187 -1.155,-2.534 -1.155,-4.041 0,-1.363 0.257,-2.574 0.77,-3.633 0.513,-1.058 1.266,-1.948 2.261,-2.67 1.01,-0.738 2.269,-1.291 3.776,-1.66 1.508,-0.385 3.256,-0.577 5.245,-0.577 z m 24.152,-10.176 v 4.908 h -15.155 v -4.908 z m -11.403,-6.422 h 6.928 v 24.609 c 0,0.753 0.097,1.33 0.289,1.732 0.209,0.4 0.513,0.681 0.914,0.841 0.401,0.145 0.906,0.217 1.516,0.217 0.433,0 0.818,-0.016 1.154,-0.048 0.353,-0.048 0.649,-0.096 0.89,-0.145 l 0.024,5.1 c -0.593,0.193 -1.234,0.345 -1.924,0.457 -0.69,0.112 -1.451,0.169 -2.285,0.169 -1.524,0 -2.855,-0.249 -3.993,-0.746 -1.123,-0.514 -1.989,-1.331 -2.599,-2.454 -0.609,-1.122 -0.914,-2.598 -0.914,-4.426 z m 22.66,6.422 v 26.028 h -6.952 v -26.028 z m -7.384,-6.783 c 0,-1.01 0.352,-1.844 1.058,-2.502 0.705,-0.657 1.652,-0.986 2.838,-0.986 1.171,0 2.109,0.329 2.815,0.986 0.722,0.658 1.082,1.492 1.082,2.502 0,1.01 -0.36,1.844 -1.082,2.502 -0.706,0.657 -1.644,0.986 -2.815,0.986 -1.186,0 -2.133,-0.329 -2.838,-0.986 -0.706,-0.658 -1.058,-1.492 -1.058,-2.502 z m 12.003,20.062 v -0.505 c 0,-1.908 0.273,-3.665 0.818,-5.268 0.545,-1.62 1.339,-3.023 2.382,-4.21 1.042,-1.186 2.325,-2.109 3.849,-2.766 1.523,-0.674 3.271,-1.01 5.243,-1.01 1.973,0 3.729,0.336 5.269,1.01 1.539,0.657 2.83,1.58 3.873,2.766 1.058,1.187 1.86,2.59 2.405,4.21 0.545,1.603 0.818,3.36 0.818,5.268 v 0.505 c 0,1.893 -0.273,3.649 -0.818,5.268 -0.545,1.604 -1.347,3.007 -2.405,4.21 -1.043,1.187 -2.326,2.109 -3.849,2.767 -1.524,0.657 -3.272,0.986 -5.245,0.986 -1.972,0 -3.728,-0.329 -5.267,-0.986 -1.524,-0.658 -2.815,-1.58 -3.873,-2.767 -1.043,-1.203 -1.837,-2.606 -2.382,-4.21 -0.545,-1.619 -0.818,-3.375 -0.818,-5.268 z m 6.928,-0.505 v 0.505 c 0,1.091 0.096,2.109 0.289,3.055 0.192,0.946 0.497,1.78 0.914,2.502 0.433,0.705 0.994,1.259 1.684,1.66 0.689,0.401 1.531,0.601 2.525,0.601 0.963,0 1.789,-0.2 2.478,-0.601 0.69,-0.401 1.243,-0.955 1.66,-1.66 0.417,-0.722 0.722,-1.556 0.914,-2.502 0.209,-0.946 0.313,-1.964 0.313,-3.055 v -0.505 c 0,-1.059 -0.104,-2.053 -0.313,-2.983 -0.192,-0.946 -0.505,-1.78 -0.938,-2.502 -0.417,-0.737 -0.97,-1.315 -1.66,-1.732 -0.689,-0.417 -1.523,-0.625 -2.502,-0.625 -0.978,0 -1.812,0.208 -2.502,0.625 -0.673,0.417 -1.226,0.995 -1.659,1.732 -0.417,0.722 -0.722,1.556 -0.914,2.502 -0.193,0.93 -0.289,1.924 -0.289,2.983 z m 28.77,-7.217 v 20.471 h -6.928 v -26.028 h 6.495 z m -1.01,6.543 h -1.876 c 0,-1.924 0.248,-3.656 0.745,-5.196 0.498,-1.555 1.195,-2.878 2.093,-3.969 0.898,-1.106 1.965,-1.948 3.199,-2.526 1.252,-0.593 2.647,-0.889 4.186,-0.889 1.219,0 2.333,0.176 3.344,0.529 1.01,0.352 1.876,0.914 2.598,1.683 0.737,0.77 1.299,1.789 1.684,3.055 0.401,1.267 0.601,2.815 0.601,4.643 v 16.598 h -6.976 v -16.622 c 0,-1.155 -0.16,-2.053 -0.481,-2.694 -0.321,-0.642 -0.794,-1.091 -1.419,-1.347 -0.61,-0.273 -1.363,-0.409 -2.261,-0.409 -0.931,0 -1.741,0.184 -2.43,0.553 -0.674,0.369 -1.235,0.882 -1.684,1.54 -0.433,0.641 -0.762,1.395 -0.986,2.261 -0.225,0.866 -0.337,1.796 -0.337,2.79 z"
           transform="matrix(1.00099,0,0,1,3044,1535)"
           id="path263" /></g></g></g></svg>
