<svg width="449" height="449" viewBox="0 0 449 449" fill="none" xmlns="http://www.w3.org/2000/svg">
<circle cx="224.5" cy="224.5" r="224.5" fill="#90FF99"/>
<path fill-rule="evenodd" clip-rule="evenodd" d="M449 224.5C449 348.488 348.488 449 224.5 449C100.512 449 0 348.488 0 224.5C0 100.512 100.512 0 224.5 0C267.717 0 308.081 12.2114 342.332 33.3718C333.476 42.2375 328 54.4792 328 68C328 95.062 349.938 117 377 117C390.975 117 403.584 111.15 412.51 101.764C435.585 137.039 449 179.203 449 224.5ZM426 68C426 81.087 420.87 92.9757 412.51 101.764C394.44 74.1401 370.446 50.7411 342.332 33.3718C351.201 24.4928 363.459 19 377 19C404.062 19 426 40.938 426 68ZM258.039 319.019C295.741 305.669 319.963 271.28 322.187 233.715L381.607 212.673C388.575 282.686 347.358 351.042 278.067 375.578C196.591 404.429 107.155 361.768 78.3037 280.293C49.4529 198.818 92.1134 109.381 173.589 80.53C243.217 55.8743 318.66 83.4456 357.135 142.837L297.877 163.82C272.561 135.444 231.68 123.61 193.616 137.089C143.378 154.879 117.073 210.027 134.862 260.265C152.652 310.504 207.8 336.809 258.039 319.019Z" fill="black"/>
</svg>
