<svg width="1050" height="222" viewBox="0 0 1050 222" fill="none" xmlns="http://www.w3.org/2000/svg">
<g clip-path="url(#clip0_656_230)">
<rect width="1050" height="222" transform="matrix(-1 0 0 1 1050 0)" fill="#75FB7A"/>
<rect width="1050" height="222" transform="matrix(-1 0 0 1 1050 0)" fill="url(#paint0_linear_656_230)"/>
<g clip-path="url(#clip1_656_230)">
    <!-- Constellation logo  -->
<g>
<path d="M105.999 165.999C144.659 165.999 175.999 134.659 175.999 95.9994C175.999 57.3397 144.659 26 105.999 26C67.3397 26 36 57.3397 36 95.9994C36 134.659 67.3397 165.999 105.999 165.999Z" fill="black"/>
<path d="M164.856 57.4665C159.19 48.8898 151.689 41.6325 142.908 36.2573C140.061 39.0311 138.29 42.9047 138.29 47.1939C138.29 55.6269 145.126 62.4632 153.559 62.4632C158.036 62.4632 162.063 60.5363 164.856 57.4665Z" fill="#75FB7A"/>
<path d="M136.428 98.8826C135.509 114.662 122.424 127.175 106.414 127.175C89.8083 127.175 76.3468 113.714 76.3468 97.1081C76.3468 80.5024 89.8083 67.0408 106.414 67.0408C115.347 67.0408 123.369 70.9381 128.876 77.1233L147.384 70.5711C138.684 57.166 123.585 48.2974 106.414 48.2974C79.4567 48.2974 57.6033 70.1508 57.6033 97.1081C57.6033 124.065 79.4567 145.919 106.414 145.919C133.371 145.919 155.225 124.065 155.225 97.1081C155.225 95.4895 155.144 93.8897 154.99 92.3116L136.428 98.8829L136.428 98.8826Z" fill="#75FB7A"/>
<path d="M164.611 57.7236C167.222 54.9838 168.829 51.2774 168.829 47.1937C168.829 38.7606 161.992 31.9243 153.559 31.9243C149.334 31.9243 145.51 33.6408 142.745 36.4143C151.504 41.8275 158.979 49.1172 164.611 57.7236H164.611Z" fill="black"/>
</g>
</g>
<path d="M164.852 188.776V194.997H161.379V184.088H164.681V186.091H164.802C165.044 185.424 165.456 184.9 166.038 184.522C166.62 184.138 167.314 183.946 168.119 183.946C168.886 183.946 169.551 184.119 170.115 184.465C170.683 184.806 171.123 185.284 171.436 185.899C171.753 186.51 171.909 187.225 171.904 188.044V194.997H168.431V188.726C168.436 188.12 168.282 187.647 167.97 187.306C167.662 186.965 167.234 186.794 166.684 186.794C166.32 186.794 165.998 186.875 165.718 187.036C165.444 187.192 165.231 187.417 165.079 187.71C164.932 188.004 164.857 188.359 164.852 188.776Z" fill="black"/>
<path d="M154.088 195.203C152.943 195.203 151.958 194.969 151.134 194.5C150.315 194.027 149.683 193.369 149.238 192.526C148.797 191.678 148.577 190.696 148.577 189.578C148.577 188.456 148.797 187.474 149.238 186.631C149.683 185.783 150.315 185.125 151.134 184.657C151.958 184.183 152.943 183.946 154.088 183.946C155.234 183.946 156.217 184.183 157.036 184.657C157.86 185.125 158.492 185.783 158.932 186.631C159.377 187.474 159.6 188.456 159.6 189.578C159.6 190.696 159.377 191.678 158.932 192.526C158.492 193.369 157.86 194.027 157.036 194.5C156.217 194.969 155.234 195.203 154.088 195.203ZM154.11 192.583C154.526 192.583 154.879 192.455 155.168 192.199C155.457 191.943 155.677 191.588 155.828 191.134C155.985 190.679 156.063 190.154 156.063 189.557C156.063 188.951 155.985 188.421 155.828 187.966C155.677 187.512 155.457 187.157 155.168 186.901C154.879 186.645 154.526 186.517 154.11 186.517C153.679 186.517 153.314 186.645 153.016 186.901C152.722 187.157 152.498 187.512 152.341 187.966C152.19 188.421 152.114 188.951 152.114 189.557C152.114 190.154 152.19 190.679 152.341 191.134C152.498 191.588 152.722 191.943 153.016 192.199C153.314 192.455 153.679 192.583 154.11 192.583Z" fill="black"/>
<path d="M143.313 194.997V184.088H146.786V194.997H143.313ZM145.053 182.817C144.565 182.817 144.146 182.656 143.795 182.334C143.445 182.007 143.27 181.614 143.27 181.155C143.27 180.7 143.445 180.312 143.795 179.99C144.146 179.663 144.565 179.5 145.053 179.5C145.545 179.5 145.964 179.663 146.31 179.99C146.66 180.312 146.835 180.7 146.835 181.155C146.835 181.614 146.66 182.007 146.31 182.334C145.964 182.656 145.545 182.817 145.053 182.817Z" fill="black"/>
<path d="M141.54 184.088V186.645H134.658V184.088H141.54ZM136.1 181.475H139.573V191.567C139.573 191.78 139.606 191.953 139.673 192.085C139.744 192.213 139.845 192.306 139.978 192.362C140.111 192.414 140.269 192.441 140.454 192.441C140.586 192.441 140.726 192.429 140.873 192.405C141.024 192.377 141.138 192.353 141.214 192.334L141.739 194.841C141.574 194.888 141.339 194.948 141.036 195.019C140.738 195.09 140.38 195.135 139.964 195.154C139.149 195.191 138.451 195.097 137.869 194.869C137.291 194.637 136.848 194.278 136.54 193.79C136.237 193.302 136.091 192.689 136.1 191.95V181.475Z" fill="black"/>
<path d="M126.739 195.182C126.043 195.182 125.425 195.066 124.886 194.834C124.351 194.597 123.927 194.242 123.614 193.769C123.307 193.291 123.153 192.692 123.153 191.972C123.153 191.366 123.259 190.854 123.472 190.438C123.685 190.021 123.979 189.683 124.353 189.422C124.727 189.162 125.158 188.965 125.646 188.833C126.133 188.695 126.654 188.603 127.208 188.556C127.828 188.499 128.328 188.44 128.707 188.378C129.085 188.312 129.36 188.219 129.531 188.101C129.706 187.978 129.793 187.805 129.793 187.583V187.547C129.793 187.183 129.668 186.901 129.417 186.702C129.166 186.503 128.827 186.404 128.401 186.404C127.942 186.404 127.573 186.503 127.293 186.702C127.014 186.901 126.836 187.175 126.761 187.526L123.558 187.412C123.652 186.749 123.896 186.157 124.289 185.637C124.687 185.111 125.231 184.699 125.923 184.401C126.619 184.098 127.454 183.946 128.43 183.946C129.126 183.946 129.767 184.029 130.354 184.195C130.942 184.356 131.453 184.593 131.889 184.905C132.324 185.213 132.66 185.592 132.897 186.041C133.139 186.491 133.259 187.005 133.259 187.583V194.997H129.992V193.478H129.907C129.713 193.847 129.464 194.159 129.161 194.415C128.863 194.671 128.51 194.862 128.103 194.99C127.701 195.118 127.246 195.182 126.739 195.182ZM127.812 192.909C128.186 192.909 128.522 192.834 128.82 192.682C129.123 192.531 129.365 192.322 129.545 192.057C129.725 191.787 129.815 191.475 129.815 191.12V190.083C129.715 190.135 129.594 190.182 129.452 190.225C129.315 190.267 129.164 190.308 128.998 190.345C128.832 190.383 128.662 190.416 128.487 190.445C128.311 190.473 128.143 190.499 127.982 190.523C127.656 190.575 127.376 190.656 127.144 190.764C126.917 190.873 126.742 191.015 126.619 191.191C126.5 191.361 126.441 191.565 126.441 191.801C126.441 192.161 126.569 192.436 126.825 192.625C127.085 192.815 127.414 192.909 127.812 192.909Z" fill="black"/>
<path d="M121.453 180.452V194.997H117.98V180.452H121.453Z" fill="black"/>
<path d="M115.77 180.452V194.997H112.297V180.452H115.77Z" fill="black"/>
<path d="M105.346 195.203C104.204 195.203 103.22 194.978 102.391 194.529C101.567 194.074 100.933 193.428 100.488 192.59C100.047 191.747 99.8271 190.746 99.8271 189.585C99.8271 188.459 100.05 187.474 100.495 186.631C100.94 185.783 101.567 185.125 102.377 184.657C103.186 184.183 104.141 183.946 105.239 183.946C106.016 183.946 106.726 184.067 107.37 184.309C108.014 184.55 108.57 184.907 109.039 185.381C109.507 185.854 109.872 186.439 110.132 187.135C110.393 187.826 110.523 188.62 110.523 189.514V190.381H101.042V188.364H107.292C107.287 187.995 107.199 187.666 107.029 187.377C106.858 187.088 106.624 186.863 106.326 186.702C106.032 186.536 105.694 186.453 105.31 186.453C104.922 186.453 104.574 186.541 104.266 186.716C103.958 186.887 103.714 187.121 103.534 187.419C103.355 187.713 103.26 188.047 103.25 188.421V190.473C103.25 190.918 103.338 191.309 103.513 191.645C103.688 191.977 103.937 192.235 104.259 192.419C104.581 192.604 104.964 192.696 105.409 192.696C105.717 192.696 105.997 192.654 106.248 192.568C106.498 192.483 106.714 192.358 106.894 192.192C107.074 192.026 107.209 191.823 107.299 191.581L110.488 191.674C110.355 192.389 110.064 193.011 109.614 193.541C109.169 194.067 108.584 194.477 107.86 194.77C107.135 195.059 106.297 195.203 105.346 195.203Z" fill="black"/>
<path d="M98.5913 184.088V186.645H91.7092V184.088H98.5913ZM93.1509 181.475H96.6239V191.567C96.6239 191.78 96.6571 191.953 96.7234 192.085C96.7944 192.213 96.8962 192.306 97.0288 192.362C97.1613 192.414 97.32 192.441 97.5046 192.441C97.6372 192.441 97.7769 192.429 97.9237 192.405C98.0752 192.377 98.1888 192.353 98.2646 192.334L98.7901 194.841C98.6244 194.888 98.39 194.948 98.087 195.019C97.7887 195.09 97.4312 195.135 97.0146 195.154C96.2002 195.191 95.5018 195.097 94.9194 194.869C94.3417 194.637 93.899 194.278 93.5913 193.79C93.2882 193.302 93.1415 192.689 93.1509 191.95V181.475Z" fill="black"/>
<path d="M90.4538 187.419L87.2649 187.505C87.2318 187.277 87.1418 187.076 86.995 186.901C86.8482 186.721 86.6565 186.581 86.4197 186.482C86.1877 186.378 85.9178 186.326 85.6101 186.326C85.2076 186.326 84.8643 186.406 84.5802 186.567C84.3009 186.728 84.1636 186.946 84.1683 187.22C84.1636 187.434 84.2488 187.618 84.424 187.774C84.6039 187.931 84.9235 188.056 85.3828 188.151L87.4851 188.549C88.5741 188.757 89.3837 189.103 89.914 189.585C90.4491 190.068 90.719 190.708 90.7237 191.503C90.719 192.251 90.4964 192.902 90.0561 193.456C89.6205 194.01 89.0239 194.441 88.2663 194.749C87.5087 195.052 86.6423 195.203 85.6669 195.203C84.1091 195.203 82.8804 194.884 81.9808 194.245C81.0859 193.601 80.5746 192.739 80.4467 191.659L83.8771 191.574C83.9529 191.972 84.1494 192.275 84.4666 192.483C84.7838 192.692 85.1887 192.796 85.6811 192.796C86.1262 192.796 86.4884 192.713 86.7677 192.547C87.0471 192.381 87.1891 192.161 87.1939 191.887C87.1891 191.64 87.0802 191.444 86.8672 191.297C86.6541 191.146 86.3203 191.027 85.8657 190.942L83.9623 190.58C82.8686 190.381 82.0542 190.014 81.5192 189.479C80.9841 188.939 80.719 188.253 80.7237 187.419C80.719 186.69 80.9131 186.068 81.3061 185.551C81.6991 185.031 82.2578 184.633 82.9822 184.358C83.7067 184.084 84.5613 183.946 85.5462 183.946C87.0234 183.946 88.1882 184.256 89.0405 184.877C89.8927 185.492 90.3639 186.34 90.4538 187.419Z" fill="black"/>
<path d="M71.7269 188.776V194.997H68.2539V184.088H71.5565V186.091H71.6772C71.9187 185.424 72.3306 184.9 72.913 184.522C73.4954 184.138 74.189 183.946 74.994 183.946C75.761 183.946 76.4263 184.119 76.9897 184.465C77.5579 184.806 77.9982 185.284 78.3107 185.899C78.628 186.51 78.7842 187.225 78.7795 188.044V194.997H75.3065V188.726C75.3112 188.12 75.1573 187.647 74.8448 187.306C74.537 186.965 74.1085 186.794 73.5593 186.794C73.1947 186.794 72.8728 186.875 72.5934 187.036C72.3188 187.192 72.1057 187.417 71.9542 187.71C71.8074 188.004 71.7317 188.359 71.7269 188.776Z" fill="black"/>
<path d="M60.9634 195.203C59.8176 195.203 58.8327 194.969 58.0089 194.5C57.1897 194.027 56.5576 193.369 56.1126 192.526C55.6722 191.678 55.4521 190.696 55.4521 189.578C55.4521 188.456 55.6722 187.474 56.1126 186.631C56.5576 185.783 57.1897 185.125 58.0089 184.657C58.8327 184.183 59.8176 183.946 60.9634 183.946C62.1093 183.946 63.0917 184.183 63.9109 184.657C64.7347 185.125 65.3668 185.783 65.8072 186.631C66.2522 187.474 66.4748 188.456 66.4748 189.578C66.4748 190.696 66.2522 191.678 65.8072 192.526C65.3668 193.369 64.7347 194.027 63.9109 194.5C63.0917 194.969 62.1093 195.203 60.9634 195.203ZM60.9847 192.583C61.4014 192.583 61.7541 192.455 62.043 192.199C62.3318 191.943 62.552 191.588 62.7035 191.134C62.8597 190.679 62.9379 190.154 62.9379 189.557C62.9379 188.951 62.8597 188.421 62.7035 187.966C62.552 187.512 62.3318 187.157 62.043 186.901C61.7541 186.645 61.4014 186.517 60.9847 186.517C60.5539 186.517 60.1893 186.645 59.891 186.901C59.5974 187.157 59.3725 187.512 59.2163 187.966C59.0647 188.421 58.989 188.951 58.989 189.557C58.989 190.154 59.0647 190.679 59.2163 191.134C59.3725 191.588 59.5974 191.943 59.891 192.199C60.1893 192.455 60.5539 192.583 60.9847 192.583Z" fill="black"/>
<path d="M53.8594 185.722H50.3082C50.2609 185.357 50.1638 185.028 50.017 184.734C49.8703 184.441 49.6761 184.19 49.4347 183.982C49.1932 183.773 48.9067 183.615 48.5753 183.506C48.2486 183.392 47.8864 183.335 47.4886 183.335C46.7831 183.335 46.1747 183.508 45.6634 183.854C45.1567 184.199 44.7661 184.699 44.4915 185.352C44.2216 186.006 44.0866 186.796 44.0866 187.725C44.0866 188.69 44.224 189.5 44.4986 190.153C44.7779 190.802 45.1686 191.292 45.6705 191.624C46.1771 191.95 46.776 192.114 47.4673 192.114C47.8556 192.114 48.2083 192.064 48.5256 191.965C48.8475 191.865 49.1293 191.721 49.3707 191.531C49.617 191.337 49.8182 191.103 49.9744 190.828C50.1354 190.549 50.2467 190.234 50.3082 189.884L53.8594 189.905C53.7978 190.549 53.6108 191.183 53.2983 191.808C52.9905 192.433 52.5668 193.004 52.027 193.52C51.4872 194.031 50.8291 194.439 50.0526 194.742C49.2808 195.045 48.3954 195.196 47.3963 195.196C46.08 195.196 44.901 194.907 43.8594 194.33C42.8224 193.747 42.0033 192.9 41.402 191.787C40.8007 190.674 40.5 189.32 40.5 187.725C40.5 186.124 40.8054 184.768 41.4162 183.655C42.027 182.542 42.8532 181.697 43.8949 181.119C44.9366 180.542 46.1037 180.253 47.3963 180.253C48.277 180.253 49.0914 180.376 49.8395 180.622C50.5876 180.864 51.2457 181.219 51.8139 181.688C52.3821 182.152 52.8438 182.722 53.1989 183.399C53.554 184.076 53.7741 184.85 53.8594 185.722Z" fill="black"/>

  <!-- Big C -->
<path d="M943.241 126.981C940.663 171.27 903.935 206.392 859 206.392C812.392 206.392 774.608 168.608 774.608 122C774.608 75.3917 812.392 37.6084 859 37.6084C884.073 37.6084 906.589 48.547 922.046 65.9076L973.994 47.517C949.574 9.89214 907.196 -15 859 -15C783.337 -15 722 46.3373 722 122C722 197.663 783.337 259 859 259C934.663 259 996 197.663 996 122C996 117.457 995.773 112.967 995.341 108.537L943.242 126.981L943.241 126.981Z" fill="#75FB7A"/>

    <!-- Green lines -->
<path id="ellipseSegment" d="M436 228C451.175 195.573 584.212 36.9867 739 0" stroke="#75FB7A"/>
<path id="ellipseSegment2" d="M497 223C522.907 141.082 604.184 41.4649 688 0" stroke="#75FB7A" stroke-dasharray="4 4"/>

    <!-- First white dot, oscillating along the visible elliptical segment -->
    <circle r="9" fill="white">
      <animateMotion repeatCount="indefinite" dur="15s" keyTimes="0;0.5;1" keyPoints="0;1;0">
        <mpath href="#ellipseSegment" />
        <set attributeName="rotate" to="auto" />
      </animateMotion>
    </circle>

    <!-- Second white dot, oscillating along the visible circular segment -->
    <circle r="6.5" fill="white">
      <animateMotion repeatCount="indefinite" dur="5s">
        <mpath href="#ellipseSegment2" />
        <set attributeName="rotate" to="auto-reverse" />
      </animateMotion>
    </circle>
  </g>

  <defs>
    <linearGradient id="paint0_linear_656_230" x1="404.25" y1="6.45992e-06" x2="725.04" y2="379.312" gradientUnits="userSpaceOnUse">
      <stop/>
      <stop offset="0.400144" stop-color="#1C012C" stop-opacity="0.800319"/>
      <stop offset="0.612326" stop-color="#3B025D" stop-opacity="0.577126"/>
      <stop offset="1" stop-color="#8B04DD" stop-opacity="0"/>
    </linearGradient>
    <clipPath id="clip0_656_230">
      <rect width="1050" height="222" fill="white"/>
    </clipPath>
  </defs>
</svg>


