<?xml version="1.0" encoding="UTF-8" standalone="no"?>
<svg
   width="1050"
   height="222"
   viewBox="0 0 1050 222"
   fill="none"
   version="1.1"
   id="svg37"
   sodipodi:docname="banner.svg"
   inkscape:version="1.1 (c68e22c387, 2021-05-23)"
   xmlns:inkscape="http://www.inkscape.org/namespaces/inkscape"
   xmlns:sodipodi="http://sodipodi.sourceforge.net/DTD/sodipodi-0.dtd"
   xmlns="http://www.w3.org/2000/svg"
   xmlns:svg="http://www.w3.org/2000/svg">
  <sodipodi:namedview
     id="namedview39"
     pagecolor="#ffffff"
     bordercolor="#666666"
     borderopacity="1.0"
     inkscape:pageshadow="2"
     inkscape:pageopacity="0.0"
     inkscape:pagecheckerboard="0"
     showgrid="false"
     inkscape:zoom="1.192381"
     inkscape:cx="524.58065"
     inkscape:cy="111.1222"
     inkscape:window-width="2560"
     inkscape:window-height="1351"
     inkscape:window-x="-9"
     inkscape:window-y="-9"
     inkscape:window-maximized="1"
     inkscape:current-layer="g27" />
  <style
     id="style3">
    .outer-dot {
      animation: rotate 12s linear infinite;
      transform-origin: 835.47003px 136.45601px;
    }
    .inner-dot {
      animation: move 5s ease-in-out alternate infinite;
      transform-origin: 835.47003px 136.45601px;
    }
    .most-inner-dot {
      animation: move 4s -2s ease-in-out alternate infinite;
      transform-origin: 835.47003px 136.45601px;
    }
    @keyframes rotate {
      to { transform: rotate(360deg); }
    }
    @keyframes move {
      0% { transform: rotate(0deg); }
      100% { transform: rotate(180deg); }
    }
  </style>
  <g
     clip-path="url(#clip0_1_2)"
     id="g27">
    <rect
       width="1050"
       height="222"
       fill="black"
       id="rect2" />
    <g
       clip-path="url(#clip1_1_2)"
       id="g8">
      <path
         fill-rule="evenodd"
         clip-rule="evenodd"
         d="M176.416 93.9239C176.416 128.127 148.595 155.848 114.274 155.848C79.9534 155.848 52.132 128.124 52.132 93.9239C52.132 59.7237 79.9534 32 114.274 32C125.794 31.9814 137.09 35.1693 146.89 41.2044C145.62 42.4699 144.615 43.9741 143.933 45.6296C143.252 47.2851 142.907 49.059 142.918 50.8485C142.93 52.6379 143.298 54.4072 144.002 56.0537C144.705 57.7002 145.729 59.1912 147.015 60.4401C148.301 61.689 149.824 62.671 151.494 63.329C153.163 63.9871 154.948 64.3082 156.743 64.2736C158.539 64.239 160.31 63.8495 161.953 63.1276C163.596 62.4058 165.079 61.3659 166.316 60.0685C172.924 70.1305 176.435 81.8986 176.416 93.9239V93.9239ZM166.316 60.0685C161.305 52.4385 154.673 45.9987 146.89 41.2044C149.412 38.6907 152.826 37.2682 156.393 37.245C159.96 37.2219 163.393 38.6 165.947 41.0808C168.502 43.5616 169.973 46.9454 170.042 50.4993C170.111 54.0532 168.772 57.4912 166.316 60.0685V60.0685ZM123.547 119.99C128.501 118.242 132.827 115.077 135.986 110.892C139.144 106.707 140.994 101.686 141.304 96.4587L157.751 90.6663C158.792 101.174 155.932 111.698 149.712 120.246C143.493 128.794 134.344 134.774 123.999 137.055C113.653 139.336 102.827 137.759 93.5689 132.623C84.3111 127.486 77.2634 119.147 73.7593 109.182C70.2551 99.2178 70.5375 88.3188 74.5531 78.5476C78.5686 68.7764 86.0388 60.8107 95.5503 56.1574C105.062 51.5041 115.955 50.486 126.169 53.2958C136.383 56.1056 145.209 62.5483 150.978 71.4051L134.575 77.1975C131.353 73.5921 127.209 70.9274 122.585 69.4885C117.961 68.0497 113.031 67.8909 108.323 69.0291C103.616 70.1673 99.3072 72.5598 95.859 75.9503C92.4108 79.3409 89.9527 83.602 88.7477 88.2776C87.5428 92.9532 87.6364 97.8673 89.0186 102.494C90.4007 107.121 93.0193 111.286 96.5941 114.543C100.169 117.801 104.566 120.029 109.313 120.988C114.061 121.948 118.981 121.602 123.547 119.99V119.99Z"
         fill="#90FF99"
         id="path4" />
      <path
         d="M47.5205 180.496H51.3957C51.34 181.691 50.9779 182.853 50.3439 183.869C49.7178 184.864 48.8226 185.662 47.7613 186.173C46.5217 186.755 45.1619 187.038 43.792 187C42.6747 187.018 41.5657 186.807 40.534 186.379C39.5873 185.966 38.7455 185.347 38.0705 184.567C37.3676 183.733 36.8421 182.766 36.5259 181.723C36.1571 180.513 35.9779 179.253 35.9945 177.989V176.681C35.981 175.414 36.1678 174.153 36.5481 172.944C36.8796 171.896 37.4179 170.924 38.1314 170.086C38.8178 169.307 39.6685 168.689 40.6226 168.277C41.6351 167.845 42.727 167.63 43.828 167.645C45.2064 167.601 46.5747 167.894 47.8139 168.497C48.8623 169.029 49.7391 169.845 50.3439 170.85C50.9619 171.891 51.3339 173.059 51.4317 174.265H47.5343C47.5137 173.598 47.3593 172.941 47.0804 172.334C46.8332 171.812 46.4168 171.389 45.8984 171.131C45.2502 170.828 44.5378 170.686 43.8224 170.718C43.2354 170.705 42.6535 170.829 42.1229 171.079C41.6261 171.333 41.2058 171.714 40.9049 172.182C40.543 172.754 40.2922 173.388 40.1659 174.053C39.9974 174.913 39.9185 175.788 39.9306 176.665V177.997C39.921 178.859 39.9952 179.72 40.152 180.568C40.2691 181.222 40.4975 181.852 40.8274 182.429C41.1152 182.909 41.5273 183.303 42.0204 183.569C42.5746 183.832 43.1837 183.961 43.7975 183.944C44.4892 183.968 45.1775 183.835 45.8099 183.555C46.3238 183.308 46.7463 182.905 47.0167 182.405C47.3255 181.814 47.4976 181.162 47.5205 180.496V180.496ZM53.1257 179.889V179.613C53.115 178.652 53.2646 177.696 53.5686 176.783C53.8409 175.951 54.2776 175.181 54.853 174.519C55.4244 173.874 56.1339 173.366 56.929 173.032C57.8228 172.653 58.7866 172.465 59.7579 172.48C60.7327 172.466 61.6998 172.654 62.5979 173.032C63.3983 173.364 64.1128 173.872 64.6877 174.519C65.2695 175.178 65.7111 175.949 65.9859 176.783C66.2876 177.696 66.4363 178.652 66.4261 179.613V179.889C66.4349 180.85 66.2863 181.806 65.9859 182.719C65.7079 183.551 65.2666 184.32 64.6877 184.981C64.1165 185.626 63.407 186.135 62.6117 186.47C61.715 186.838 60.7522 187.018 59.7828 187C58.8095 187.015 57.8433 186.833 56.9428 186.465C56.1446 186.128 55.431 185.619 54.853 184.975C54.2804 184.313 53.844 183.544 53.5686 182.714C53.2667 181.803 53.1171 180.848 53.1257 179.889V179.889ZM56.8626 179.613V179.889C56.8582 180.445 56.9111 180.999 57.0203 181.544C57.1097 182.013 57.2761 182.464 57.513 182.879C57.7351 183.249 58.0475 183.556 58.4209 183.773C58.8379 183.999 59.3081 184.111 59.7828 184.095C60.2493 184.108 60.7109 183.997 61.1198 183.773C61.491 183.558 61.7993 183.25 62.0138 182.879C62.2516 182.462 62.4181 182.008 62.5065 181.536C62.6238 180.992 62.6804 180.437 62.6754 179.881V179.605C62.6791 179.066 62.6224 178.529 62.5065 178.002C62.4165 177.528 62.2462 177.073 62.0028 176.656C61.7899 176.274 61.4808 175.954 61.1059 175.727C60.6907 175.506 60.2272 175.39 59.7565 175.39C59.2858 175.39 58.8223 175.506 58.4071 175.727C58.0368 175.959 57.7297 176.278 57.513 176.656C57.2757 177.075 57.1092 177.53 57.0203 178.002C56.9116 178.533 56.8587 179.074 56.8626 179.616V179.613ZM72.3828 175.735V186.741H68.646V172.751H72.1476L72.3828 175.735ZM71.8292 179.252H70.8161C70.8088 178.306 70.9489 177.364 71.2313 176.461C71.4676 175.684 71.8509 174.961 72.3607 174.328C72.8237 173.749 73.4149 173.285 74.0879 172.971C74.7941 172.644 75.5652 172.48 76.3439 172.491C76.9568 172.481 77.567 172.574 78.1486 172.767C78.6831 172.949 79.1642 173.26 79.5492 173.672C79.9799 174.144 80.2912 174.711 80.4571 175.327C80.6895 176.133 80.7987 176.97 80.781 177.809V186.741H77.0137V177.807C77.0383 177.31 76.9493 176.815 76.7535 176.358C76.5993 176.03 76.3266 175.771 75.9896 175.633C75.6023 175.476 75.1866 175.402 74.7689 175.415C74.3144 175.404 73.8643 175.507 73.4596 175.713C73.0932 175.91 72.7814 176.194 72.5517 176.541C72.3048 176.911 72.124 177.322 72.0175 177.754C71.895 178.245 71.8345 178.749 71.8375 179.255L71.8292 179.252ZM91.2054 182.871C91.2074 182.611 91.1259 182.358 90.9729 182.148C90.74 181.878 90.4404 181.672 90.1037 181.552C89.5229 181.315 88.9177 181.142 88.2989 181.037C87.624 180.891 86.9607 180.697 86.3143 180.455C85.7509 180.236 85.2186 179.945 84.731 179.588C84.3057 179.268 83.9522 178.864 83.693 178.4C83.4359 177.909 83.3065 177.362 83.3165 176.808C83.3134 176.235 83.4422 175.669 83.693 175.153C83.9615 174.622 84.3387 174.152 84.8002 173.774C85.321 173.349 85.9198 173.028 86.5634 172.831C87.3265 172.589 88.1237 172.47 88.9245 172.48C90.001 172.454 91.0712 172.652 92.0662 173.062C92.879 173.397 93.5804 173.953 94.0896 174.668C94.5663 175.34 94.8163 176.145 94.8038 176.968H91.067C91.0733 176.63 90.9923 176.295 90.8317 175.997C90.6798 175.699 90.4338 175.458 90.1314 175.313C89.7718 175.149 89.3821 175.061 88.9867 175.054C88.5913 175.048 88.1988 175.123 87.8339 175.274C87.5527 175.397 87.3105 175.593 87.1336 175.843C86.9801 176.072 86.8991 176.342 86.9011 176.618C86.8983 176.819 86.9428 177.019 87.0312 177.2C87.1448 177.384 87.3003 177.539 87.4851 177.652C87.7371 177.812 88.0064 177.942 88.2879 178.041C88.6958 178.171 89.1119 178.274 89.5335 178.35C90.4627 178.537 91.3713 178.814 92.2461 179.177C92.9806 179.461 93.6324 179.923 94.1422 180.521C94.6304 181.151 94.8785 181.932 94.8425 182.727C94.8484 183.322 94.7057 183.909 94.4273 184.435C94.1339 184.969 93.7256 185.433 93.2316 185.792C92.6649 186.194 92.0328 186.495 91.3631 186.683C90.5736 186.9 89.7573 187.005 88.9384 186.994C87.7912 187.028 86.6526 186.789 85.6167 186.297C84.7894 185.894 84.0822 185.283 83.5656 184.523C83.1282 183.863 82.8899 183.091 82.8792 182.3H86.4222C86.417 182.741 86.5527 183.171 86.8098 183.53C87.0575 183.836 87.385 184.068 87.7564 184.2C88.1612 184.341 88.5872 184.411 89.0159 184.407C89.4268 184.42 89.8364 184.354 90.2227 184.214C90.5103 184.099 90.761 183.909 90.9479 183.662C91.1178 183.436 91.2091 183.161 91.2081 182.879L91.2054 182.871ZM104.143 172.748V175.385H95.9719V172.748H104.143ZM97.9925 169.297H101.729V182.537C101.714 182.854 101.767 183.171 101.884 183.467C101.986 183.673 102.162 183.835 102.377 183.919C102.645 184.007 102.926 184.047 103.207 184.038C103.443 184.038 103.65 184.038 103.83 184.01C104.01 183.982 104.182 183.96 104.312 183.933V186.675C103.972 186.781 103.625 186.863 103.274 186.92C102.866 186.983 102.453 187.014 102.039 187.011C101.301 187.027 100.568 186.89 99.8859 186.608C99.2846 186.337 98.7916 185.873 98.4853 185.29C98.1261 184.55 97.9568 183.733 97.9925 182.912V169.297ZM112.732 186.997C111.73 187.013 110.734 186.837 109.798 186.479C108.98 186.159 108.239 185.672 107.623 185.048C107.006 184.425 106.528 183.679 106.219 182.86C105.896 182.018 105.732 181.124 105.737 180.223V179.707C105.729 178.723 105.883 177.745 106.194 176.811C106.475 175.973 106.916 175.196 107.492 174.524C108.062 173.878 108.772 173.369 109.568 173.037C111.297 172.342 113.227 172.327 114.966 172.996C115.713 173.305 116.376 173.784 116.904 174.395C117.449 175.028 117.856 175.767 118.099 176.565C118.378 177.47 118.513 178.413 118.501 179.359V180.91H107.337V178.427H114.811V178.151C114.822 177.677 114.728 177.206 114.534 176.772C114.363 176.368 114.073 176.025 113.704 175.787C113.274 175.531 112.779 175.406 112.278 175.426C111.832 175.414 111.391 175.526 111.005 175.749C110.644 175.973 110.345 176.284 110.136 176.654C109.905 177.087 109.739 177.551 109.643 178.033C109.536 178.596 109.484 179.167 109.488 179.74V180.259C109.483 180.784 109.561 181.308 109.721 181.809C109.871 182.258 110.105 182.674 110.41 183.036C110.71 183.38 111.081 183.654 111.498 183.839C111.962 184.032 112.462 184.126 112.965 184.115C113.613 184.12 114.255 183.988 114.847 183.726C115.443 183.453 115.963 183.041 116.364 182.523L118.18 184.49C117.844 184.955 117.438 185.365 116.976 185.706C116.424 186.119 115.811 186.441 115.157 186.661C114.374 186.906 113.556 187.021 112.735 187L112.732 186.997ZM124.568 166.881V186.741H120.818V166.881H124.568ZM131.599 166.881V186.741H127.851V166.881H131.599ZM142.264 183.585V177.362C142.276 176.968 142.201 176.575 142.046 176.212C141.904 175.89 141.662 175.623 141.356 175.448C140.995 175.252 140.588 175.157 140.177 175.172C139.806 175.163 139.438 175.237 139.1 175.39C138.81 175.517 138.565 175.73 138.4 176C138.23 176.275 138.144 176.595 138.154 176.918H134.417C134.416 176.328 134.558 175.746 134.832 175.222C135.125 174.67 135.536 174.189 136.036 173.813C136.601 173.381 137.238 173.053 137.918 172.844C138.718 172.603 139.55 172.484 140.385 172.494C141.381 172.479 142.37 172.667 143.291 173.046C144.105 173.379 144.801 173.947 145.29 174.676C145.807 175.485 146.065 176.432 146.029 177.39V183.378C146.018 184.01 146.065 184.642 146.17 185.265C146.252 185.703 146.392 186.129 146.585 186.531V186.752H142.81C142.608 186.298 142.468 185.819 142.394 185.328C142.308 184.751 142.264 184.169 142.264 183.585V183.585ZM142.76 178.22L142.785 180.328H140.709C140.274 180.319 139.841 180.376 139.424 180.496C139.095 180.59 138.791 180.752 138.53 180.973C138.304 181.162 138.126 181.401 138.01 181.671C137.905 181.952 137.852 182.251 137.855 182.551C137.851 182.854 137.927 183.153 138.076 183.417C138.226 183.672 138.446 183.878 138.71 184.013C139.014 184.156 139.348 184.227 139.684 184.22C140.194 184.232 140.698 184.116 141.151 183.883C141.533 183.688 141.863 183.404 142.112 183.056C142.322 182.788 142.448 182.465 142.475 182.126L143.46 183.701C143.306 184.086 143.115 184.456 142.89 184.804C142.641 185.201 142.339 185.562 141.993 185.877C141.606 186.22 141.163 186.495 140.684 186.691C140.104 186.911 139.488 187.017 138.868 187.003C138.029 187.014 137.198 186.833 136.44 186.473C135.749 186.133 135.159 185.62 134.727 184.984C134.309 184.337 134.092 183.582 134.104 182.813C134.091 182.139 134.233 181.471 134.519 180.86C134.8 180.288 135.219 179.795 135.74 179.426C136.354 178.998 137.046 178.694 137.777 178.532C138.704 178.313 139.654 178.209 140.606 178.223L142.76 178.22ZM155.786 172.751V175.388H147.612V172.751H155.786ZM149.635 169.3H153.372V182.54C153.357 182.857 153.41 183.174 153.527 183.469C153.629 183.676 153.805 183.837 154.02 183.922C154.288 184.01 154.569 184.05 154.85 184.04C155.083 184.04 155.291 184.04 155.473 184.013C155.656 183.985 155.822 183.963 155.952 183.936L155.966 186.677C155.626 186.784 155.279 186.866 154.928 186.923C154.52 186.986 154.109 187.016 153.696 187.014C152.957 187.029 152.223 186.892 151.54 186.611C150.93 186.339 150.429 185.869 150.12 185.279C149.761 184.539 149.591 183.722 149.627 182.901L149.635 169.3ZM161.859 172.751V186.741H158.108V172.751H161.859ZM157.87 169.104C157.863 168.853 157.91 168.602 158.008 168.37C158.107 168.139 158.254 167.931 158.441 167.761C158.874 167.419 159.41 167.232 159.963 167.232C160.516 167.232 161.052 167.419 161.485 167.761C161.67 167.933 161.816 168.142 161.917 168.373C162.017 168.604 162.069 168.854 162.069 169.106C162.069 169.357 162.017 169.607 161.917 169.838C161.816 170.069 161.67 170.278 161.485 170.45C161.052 170.793 160.516 170.979 159.963 170.979C159.41 170.979 158.874 170.793 158.441 170.45C158.254 170.28 158.107 170.071 158.008 169.839C157.91 169.607 157.863 169.356 157.87 169.104V169.104ZM164.345 179.889V179.613C164.337 178.653 164.487 177.698 164.79 176.786C165.063 175.953 165.499 175.183 166.075 174.521C166.646 173.877 167.356 173.369 168.151 173.035C169.045 172.656 170.008 172.468 170.98 172.483C171.954 172.469 172.922 172.657 173.82 173.035C174.62 173.367 175.335 173.875 175.91 174.521C176.492 175.18 176.934 175.951 177.208 176.786C177.509 177.699 177.658 178.655 177.648 179.616V179.892C177.657 180.853 177.508 181.809 177.208 182.722C176.931 183.555 176.489 184.324 175.91 184.984C175.338 185.629 174.629 186.138 173.833 186.473C172.937 186.841 171.974 187.021 171.005 187.003C170.031 187.017 169.065 186.834 168.165 186.465C167.366 186.128 166.653 185.619 166.075 184.975C165.502 184.313 165.066 183.544 164.79 182.714C164.491 181.802 164.342 180.848 164.35 179.889H164.345ZM168.082 179.613V179.889C168.076 180.445 168.128 180.999 168.237 181.544C168.326 182.016 168.493 182.469 168.729 182.887C168.951 183.257 169.264 183.564 169.637 183.781C170.054 184.007 170.524 184.118 170.999 184.104C171.466 184.117 171.927 184.006 172.336 183.781C172.707 183.565 173.016 183.257 173.233 182.887C173.468 182.469 173.635 182.015 173.726 181.544C173.841 181 173.898 180.445 173.894 179.889V179.613C173.897 179.075 173.84 178.537 173.726 178.011C173.633 177.537 173.462 177.082 173.219 176.665C173.007 176.281 172.698 175.961 172.322 175.735C171.907 175.514 171.443 175.399 170.973 175.399C170.502 175.399 170.039 175.514 169.623 175.735C169.253 175.967 168.946 176.286 168.729 176.665C168.493 177.084 168.327 177.538 168.237 178.011C168.131 178.539 168.081 179.077 168.087 179.616L168.082 179.613ZM183.613 175.738V186.741H179.876V172.751H183.378L183.613 175.738ZM183.059 179.255H182.046C182.034 178.308 182.17 177.365 182.45 176.461C182.686 175.684 183.069 174.96 183.58 174.328C184.041 173.749 184.631 173.284 185.304 172.971C186.011 172.644 186.783 172.48 187.563 172.491C188.175 172.481 188.784 172.574 189.365 172.767C189.9 172.949 190.381 173.259 190.765 173.672C191.197 174.143 191.509 174.711 191.673 175.327C191.908 176.133 192.018 176.97 192 177.809V186.741H188.235V177.807C188.26 177.311 188.172 176.816 187.978 176.358C187.822 176.03 187.549 175.771 187.211 175.633C186.824 175.476 186.408 175.402 185.991 175.415C185.536 175.404 185.086 175.507 184.681 175.713C184.316 175.911 184.004 176.195 183.773 176.541C183.526 176.911 183.347 177.322 183.242 177.754C183.117 178.245 183.056 178.749 183.059 179.255V179.255Z"
         fill="#90FF99"
         id="path6" />
    </g>
    <path
       fill-rule="evenodd"
       clip-rule="evenodd"
       d="M965.512 150.485C967.553 188.06 947.377 224.969 911.428 242.5C863.525 265.86 805.755 245.963 782.395 198.06C759.035 150.157 778.931 92.3866 826.834 69.0267C863.128 51.3283 905.086 58.4599 933.45 83.7896L989.953 56.2364C945.006 1.57982 866.927 -17.2784 800.536 15.0973C722.848 52.9814 690.581 146.671 728.465 224.359C766.349 302.046 860.039 334.313 937.727 296.429C1003.8 264.211 1037.01 191.63 1022.17 122.856L965.512 150.485Z"
       fill="black"
       id="path14" />
    <mask
       id="path-6-inside-1_1_2"
       fill="white">
      <path
         fill-rule="evenodd"
         clip-rule="evenodd"
         d="M930.546 137.899C932.588 175.474 912.411 212.384 876.462 229.914C828.559 253.274 770.789 233.378 747.429 185.474C724.069 137.571 743.965 79.8009 791.869 56.441C828.162 38.7426 870.12 45.8742 898.485 71.2039L954.987 43.6507C910.04 -11.0059 831.962 -29.8641 765.57 2.51157C687.882 40.3957 655.615 134.085 693.5 211.773C731.384 289.461 825.073 321.728 902.761 283.844C968.831 251.625 1002.05 179.044 987.204 110.27L930.546 137.899Z"
         id="path16" />
    </mask>
    <path
       id="shadow"
       fill="#ffffff"
       opacity="0.1"
       fill-rule="evenodd"
       d="m 850.97,390.956 c 132.5,0 240,-107.2 240,-239.5 a 239.8,239.8 0 0 0 -240,-239.5 239.8,239.8 0 0 0 -240,239.5 239.8,239.8 0 0 0 240,239.5 z m 60.4,-148.5 a 96.5,96.5 0 0 0 54.1,-92 l 56.7,-27.6 a 156.6,156.6 0 1 1 -32.2,-66.699995 l -56.6,27.6 a 96.5,96.5 0 1 0 -22,158.699995 z"
       clip-rule="evenodd"
       style="opacity:0.18" />
    <circle
       stroke="#90ff99"
       stroke-width="3"
       cx="835.47003"
       cy="136.45601"
       r="224.5"
       id="circle5" />
    <path
       stroke="#90ff99"
       stroke-width="3"
       fill="#000000"
       d="m 930.47,130.256 a 96.5,96.5 0 1 1 -32,-66.699995 l 56.5,-27.6 a 156.6,156.6 0 1 0 32.2,66.599995 z"
       id="path7" />
    <circle
       class="outer-dot"
       fill="#ffffff"
       r="37.5"
       cy="-88.543991"
       cx="833.47003"
       id="circle9" />
    <circle
       class="inner-dot"
       fill="#ffffff"
       r="21"
       cx="909.97003"
       cy="271.95602"
       id="circle11" />
    <circle
       class="most-inner-dot"
       fill="#ffffff"
       r="12"
       cx="879.97003"
       cy="222.95601"
       id="circle13" />
  </g>
  <defs
     id="defs35">
    <clipPath
       id="clip0_1_2">
      <rect
         width="1050"
         height="222"
         fill="white"
         id="rect29" />
    </clipPath>
    <clipPath
       id="clip1_1_2">
      <rect
         width="156"
         height="155"
         fill="white"
         transform="translate(36 32)"
         id="rect32" />
    </clipPath>
  </defs>
</svg>
