<svg width="3988" height="1380" xmlns="http://www.w3.org/2000/svg" xmlns:xlink="http://www.w3.org/1999/xlink" xml:space="preserve" overflow="hidden"><defs><filter id="fx0" x="-10%" y="-10%" width="120%" height="120%" filterUnits="userSpaceOnUse" primitiveUnits="userSpaceOnUse"><feComponentTransfer color-interpolation-filters="sRGB"><feFuncR type="discrete" tableValues="0.000000 0.000000"/><feFuncG type="discrete" tableValues="0.000000 0.000000"/><feFuncB type="discrete" tableValues="0.000000 0.000000"/><feFuncA type="linear" slope="0.400000" intercept="0.000000"/></feComponentTransfer><feGaussianBlur stdDeviation="6.111111 6.111111"/></filter><filter id="fx1" x="-10%" y="-10%" width="120%" height="120%" filterUnits="userSpaceOnUse" primitiveUnits="userSpaceOnUse"><feComponentTransfer color-interpolation-filters="sRGB"><feFuncR type="discrete" tableValues="0.000000 0.000000"/><feFuncG type="discrete" tableValues="0.000000 0.000000"/><feFuncB type="discrete" tableValues="0.000000 0.000000"/><feFuncA type="linear" slope="0.400000" intercept="0.000000"/></feComponentTransfer><feGaussianBlur stdDeviation="6.111111 6.111111"/></filter><clipPath id="clip2"><rect x="1.38947" y="1.38928" width="3035.67" height="390.667"/></clipPath><clipPath id="clip3"><rect x="1.38965" y="1.38928" width="1560.67" height="390.667"/></clipPath></defs><g transform="translate(-192 -444)"><g><g clip-path="url(#clip2)" filter="url(#fx0)" transform="translate(631 537)"><g><g><rect x="19.7228" y="19.7226" width="2999" height="354" fill="#FF8181" fill-opacity="1"/></g></g></g><rect x="641" y="547" width="2999" height="354" fill="#FF8181" fill-opacity="1"/><text fill="#000000" fill-opacity="1" font-family="Inter,Inter_MSFontService,sans-serif" font-style="normal" font-variant="normal" font-weight="700" font-stretch="normal" font-size="50" text-anchor="start" direction="ltr" writing-mode="lr-tb" unicode-bidi="normal" text-decoration="none" transform="matrix(1 0 0 1 317.094 721)">Normal </text><text fill="#000000" fill-opacity="1" font-family="Inter,Inter_MSFontService,sans-serif" font-style="normal" font-variant="normal" font-weight="700" font-stretch="normal" font-size="50" text-anchor="start" direction="ltr" writing-mode="lr-tb" unicode-bidi="normal" text-decoration="none" transform="matrix(1 0 0 1 261.246 782)">Kubernetes</text><g><g><g><path d="M83.8399 41.9199C83.8399 65.0717 65.0717 83.8399 41.9199 83.8399 18.7682 83.8399 5.30706e-15 65.0717 5.30706e-15 41.9199 0 18.7682 18.7682 0 41.9199-5.30706e-15 65.0717-1.06141e-14 83.8399 18.7682 83.8399 41.9199Z" fill="#90FF99" fill-rule="nonzero" fill-opacity="1" transform="matrix(1 0 0 1.00191 195.012 1482)"/><path d="M83.8399 41.9199C83.8399 65.0717 65.0717 83.8399 41.9199 83.8399 18.7682 83.8399 0 65.0717 0 41.9199 0 18.7682 18.7682 9.80967e-07 41.9199 9.80967e-07 49.9897 9.80967e-07 57.5266 2.28018 63.9222 6.23137 62.2685 7.88683 61.246 10.1727 61.246 12.6973 61.246 17.7505 65.3424 21.8469 70.3956 21.8469 73.0051 21.8469 75.3595 20.7546 77.0262 19.002 81.3349 25.5887 83.8399 33.4618 83.8399 41.9199ZM79.5452 12.6973C79.5452 15.141 78.5872 17.361 77.0262 19.002 73.6521 13.8439 69.1718 9.47467 63.9222 6.23137 65.5783 4.57344 67.8671 3.54779 70.3956 3.54779 75.4488 3.54779 79.5452 7.64418 79.5452 12.6973ZM48.1825 59.5691C55.2225 57.0763 59.7453 50.655 60.1606 43.6406L71.2558 39.7115C72.5569 52.7847 64.8607 65.5486 51.9223 70.1301 36.7086 75.5173 20.0086 67.5514 14.6214 52.3379 9.23415 37.1244 17.1999 20.4242 32.4135 15.037 45.4149 10.4332 59.502 15.5814 66.6863 26.6713L55.6213 30.5894C50.8941 25.2909 43.2606 23.0812 36.1531 25.598 26.7724 28.9199 21.8605 39.2174 25.1822 48.5982 28.5041 57.9791 38.8016 62.8909 48.1825 59.5691Z" fill="#000000" fill-rule="evenodd" fill-opacity="1" transform="matrix(1 0 0 1.00191 195.012 1482)"/><path d="M133.55 48.0189 141.295 48.0189C141.14 50.5575 140.441 52.8109 139.197 54.7797 137.971 56.7482 136.253 58.2855 134.043 59.3905 131.849 60.4958 129.207 61.0483 126.116 61.0483 123.699 61.0483 121.532 60.6339 119.615 59.8051 117.698 58.9585 116.058 57.75 114.693 56.1785 113.346 54.6068 112.319 52.7076 111.611 50.4796 110.903 48.252 110.549 45.7571 110.549 42.9942L110.549 40.3776C110.549 37.6148 110.912 35.1197 111.637 32.8917 112.379 30.6471 113.433 28.739 114.797 27.1675 116.178 25.596 117.827 24.3873 119.744 23.5409 121.661 22.6948 123.802 22.2721 126.168 22.2721 129.311 22.2721 131.962 22.8418 134.12 23.9812 136.296 25.1211 137.98 26.6928 139.171 28.696 140.38 30.699 141.105 32.9786 141.347 35.5343L133.576 35.5343C133.49 34.0145 133.188 32.7282 132.67 31.6745 132.152 30.604 131.366 29.8011 130.313 29.2657 129.277 28.713 127.895 28.4368 126.168 28.4368 124.873 28.4368 123.742 28.6783 122.775 29.1617 121.808 29.6453 120.996 30.3797 120.34 31.3638 119.684 32.348 119.192 33.5914 118.864 35.0938 118.553 36.5786 118.397 38.3227 118.397 40.3262L118.397 42.9942C118.397 44.9454 118.544 46.6633 118.838 48.1487 119.131 49.6164 119.58 50.8598 120.185 51.8788 120.806 52.88 121.601 53.6398 122.568 54.1581 123.552 54.6587 124.735 54.9091 126.116 54.9091 127.74 54.9091 129.078 54.6499 130.131 54.1322 131.185 53.6138 131.988 52.8458 132.54 51.8268 133.11 50.8079 133.447 49.5385 133.55 48.0189ZM144.74 46.8015 144.74 46.2578C144.74 44.2026 145.034 42.3117 145.621 40.5848 146.208 38.841 147.063 37.3302 148.185 36.0521 149.308 34.7745 150.689 33.7815 152.33 33.073 153.97 32.348 155.852 31.9856 157.977 31.9856 160.101 31.9856 161.991 32.348 163.649 33.073 165.307 33.7815 166.697 34.7745 167.819 36.0521 168.959 37.3302 169.823 38.841 170.41 40.5848 170.997 42.3117 171.291 44.2026 171.291 46.2578L171.291 46.8015C171.291 48.8394 170.997 50.7304 170.41 52.4744 169.823 54.2012 168.959 55.712 167.819 57.0074 166.697 58.2855 165.316 59.2779 163.675 59.9864 162.035 60.6941 160.152 61.0483 158.029 61.0483 155.904 61.0483 154.013 60.6941 152.356 59.9864 150.715 59.2779 149.325 58.2855 148.185 57.0074 147.063 55.712 146.208 54.2012 145.621 52.4744 145.034 50.7304 144.74 48.8394 144.74 46.8015ZM152.201 46.2578 152.201 46.8015C152.201 47.9758 152.304 49.0726 152.511 50.091 152.718 51.11 153.046 52.008 153.496 52.7849 153.962 53.5447 154.566 54.1409 155.309 54.5726 156.051 55.0042 156.958 55.2202 158.029 55.2202 159.065 55.2202 159.954 55.0042 160.697 54.5726 161.439 54.1409 162.035 53.5447 162.483 52.7849 162.933 52.008 163.26 51.11 163.468 50.091 163.693 49.0726 163.805 47.9758 163.805 46.8015L163.805 46.2578C163.805 45.1178 163.693 44.0475 163.468 43.0455 163.26 42.0271 162.924 41.1291 162.458 40.3516 162.009 39.5577 161.413 38.936 160.671 38.4868 159.928 38.0381 159.03 37.8136 157.977 37.8136 156.923 37.8136 156.025 38.0381 155.283 38.4868 154.557 38.936 153.962 39.5577 153.496 40.3516 153.046 41.1291 152.718 42.0271 152.511 43.0455 152.304 44.0475 152.201 45.1178 152.201 46.2578ZM183.18 38.4868 183.18 60.5301 175.72 60.5301 175.72 32.5033 182.713 32.5033ZM182.092 45.5321 180.071 45.5321C180.071 43.46 180.339 41.595 180.874 39.9373 181.41 38.2623 182.161 36.8378 183.128 35.6635 184.095 34.4722 185.244 33.5653 186.573 32.9436 187.919 32.3049 189.422 31.9856 191.08 31.9856 192.393 31.9856 193.594 32.1756 194.68 32.5553 195.769 32.9349 196.701 33.5393 197.477 34.3682 198.273 35.1971 198.876 36.2941 199.29 37.6577 199.724 39.0221 199.938 40.6888 199.938 42.6571L199.938 60.5301 192.426 60.5301 192.426 42.6312C192.426 41.3878 192.255 40.4207 191.909 39.73 191.564 39.0393 191.054 38.5557 190.382 38.2795 189.725 37.986 188.912 37.8396 187.945 37.8396 186.944 37.8396 186.073 38.0381 185.33 38.4352 184.604 38.832 184 39.3848 183.517 40.093 183.05 40.7839 182.696 41.595 182.455 42.5277 182.213 43.46 182.092 44.4618 182.092 45.5321ZM220.764 52.7849C220.764 52.25 220.609 51.7665 220.299 51.3344 219.987 50.9029 219.408 50.5056 218.562 50.143 217.733 49.7633 216.535 49.4181 214.962 49.107 213.547 48.7963 212.225 48.4073 211 47.9415 209.79 47.458 208.737 46.8794 207.839 46.2058 206.959 45.5321 206.268 44.7382 205.766 43.823 205.266 42.8903 205.016 41.8282 205.016 40.6367 205.016 39.4626 205.266 38.3574 205.766 37.3212 206.285 36.2851 207.019 35.3701 207.97 34.5754 208.937 33.7637 210.109 33.1337 211.491 32.6845 212.89 32.2186 214.462 31.9856 216.206 31.9856 218.641 31.9856 220.73 32.3739 222.474 33.1509 224.235 33.9279 225.583 34.9987 226.515 36.3632 227.466 37.7098 227.94 39.2466 227.94 40.9734L220.48 40.9734C220.48 40.2484 220.325 39.6008 220.013 39.0311 219.72 38.4436 219.253 37.986 218.615 37.6577 217.993 37.3125 217.183 37.1401 216.18 37.1401 215.351 37.1401 214.634 37.2871 214.029 37.5804 213.426 37.8568 212.959 38.2364 212.63 38.7198 212.32 39.1863 212.165 39.704 212.165 40.2743 212.165 40.7058 212.251 41.0944 212.423 41.4397 212.613 41.7679 212.916 42.0702 213.33 42.3466 213.745 42.6228 214.281 42.8814 214.936 43.1236 215.61 43.3478 216.439 43.5551 217.423 43.7452 219.444 44.1595 221.248 44.7033 222.837 45.377 224.426 46.0335 225.686 46.9315 226.62 48.0709 227.551 49.1931 228.018 50.6697 228.018 52.5004 228.018 53.7438 227.742 54.8832 227.189 55.9193 226.636 56.9553 225.841 57.8622 224.805 58.6392 223.768 59.3989 222.527 59.9946 221.076 60.4261 219.642 60.8407 218.028 61.0483 216.232 61.0483 213.624 61.0483 211.415 60.582 209.601 59.6492 207.805 58.717 206.44 57.5339 205.508 56.1004 204.592 54.6499 204.134 53.1651 204.134 51.6455L211.207 51.6455C211.241 52.6645 211.501 53.4846 211.984 54.1062 212.485 54.7278 213.114 55.1765 213.874 55.4529 214.651 55.7292 215.489 55.8672 216.387 55.8672 217.354 55.8672 218.157 55.738 218.796 55.4788 219.434 55.2025 219.918 54.84 220.247 54.3913 220.592 53.9249 220.764 53.3895 220.764 52.7849ZM246.59 32.5033 246.59 37.7877 230.27 37.7877 230.27 32.5033ZM234.313 25.5876 241.772 25.5876 241.772 52.086C241.772 52.8977 241.875 53.5188 242.082 53.9508 242.307 54.3826 242.635 54.6847 243.066 54.8572 243.498 55.0129 244.043 55.0904 244.698 55.0904 245.165 55.0904 245.58 55.0733 245.942 55.0383 246.321 54.987 246.64 54.9351 246.9 54.8832L246.926 60.3748C246.287 60.582 245.597 60.7462 244.853 60.8666 244.112 60.9876 243.292 61.0483 242.392 61.0483 240.753 61.0483 239.319 60.7803 238.094 60.245 236.884 59.6923 235.952 58.8121 235.297 57.603 234.64 56.3945 234.313 54.8057 234.313 52.8368ZM263.737 61.0483C261.562 61.0483 259.61 60.7025 257.883 60.0118 256.156 59.3039 254.688 58.3284 253.48 57.0852 252.289 55.8418 251.372 54.3996 250.733 52.7595 250.095 51.1018 249.776 49.34 249.776 47.4752L249.776 46.4391C249.776 44.3149 250.078 42.3725 250.681 40.6108 251.286 38.8498 252.151 37.3212 253.273 36.0261 254.412 34.7308 255.794 33.7383 257.416 33.0477 259.041 32.3392 260.871 31.9856 262.908 31.9856 264.895 31.9856 266.656 32.3138 268.192 32.9696 269.729 33.6256 271.016 34.5583 272.052 35.7675 273.105 36.976 273.899 38.4265 274.435 40.1186 274.97 41.7939 275.237 43.6589 275.237 45.714L275.237 48.8219 252.961 48.8219 252.961 43.8484 267.907 43.8484 267.907 43.2787C267.907 42.2426 267.718 41.3187 267.337 40.5075 266.975 39.6787 266.422 39.0221 265.679 38.5387 264.938 38.0551 263.987 37.8136 262.831 37.8136 261.845 37.8136 261 38.0291 260.292 38.4606 259.584 38.8929 259.005 39.4973 258.555 40.2743 258.124 41.0513 257.797 41.9664 257.571 43.0196 257.364 44.0563 257.261 45.1957 257.261 46.4391L257.261 47.4752C257.261 48.5974 257.416 49.6336 257.728 50.5834 258.055 51.5333 258.512 52.3534 259.101 53.0441 259.706 53.7348 260.43 54.2703 261.276 54.6499 262.141 55.0301 263.115 55.2202 264.204 55.2202 265.55 55.2202 266.801 54.961 267.959 54.4427 269.133 53.9079 270.144 53.1044 270.989 52.0339L274.616 55.9712C274.029 56.8173 273.226 57.629 272.207 58.4059 271.206 59.1829 269.998 59.8223 268.581 60.3229 267.165 60.8063 265.55 61.0483 263.737 61.0483ZM287.36 20.7435 287.36 60.5301 279.874 60.5301 279.874 20.7435ZM301.4 20.7435 301.4 60.5301 293.914 60.5301 293.914 20.7435ZM322.692 54.2095 322.692 41.7248C322.692 40.8268 322.544 40.0583 322.251 39.4195 321.958 38.763 321.501 38.2541 320.879 37.8909 320.274 37.5285 319.488 37.3472 318.52 37.3472 317.691 37.3472 316.976 37.4938 316.371 37.7877 315.766 38.064 315.301 38.4696 314.973 39.005 314.644 39.5227 314.48 40.1361 314.48 40.844L307.02 40.844C307.02 39.6527 307.296 38.5215 307.849 37.4506 308.402 36.3801 309.205 35.4392 310.258 34.6274 311.311 33.7985 312.564 33.1509 314.015 32.6845 315.482 32.2186 317.122 31.9856 318.935 31.9856 321.112 31.9856 323.045 32.348 324.738 33.073 326.43 33.7985 327.76 34.8865 328.727 36.3372 329.711 37.7877 330.204 39.6008 330.204 41.7763L330.204 53.7697C330.204 55.3065 330.299 56.5669 330.488 57.5511 330.678 58.5182 330.955 59.3646 331.317 60.0896L331.317 60.5301 323.779 60.5301C323.416 59.7702 323.14 58.8203 322.951 57.6809 322.778 56.5237 322.692 55.3666 322.692 54.2095ZM323.676 43.46 323.728 47.6823 319.557 47.6823C318.573 47.6823 317.718 47.7945 316.993 48.0189 316.267 48.2438 315.671 48.5633 315.206 48.9776 314.739 49.3744 314.394 49.8408 314.17 50.3762 313.962 50.9117 313.858 51.4986 313.858 52.1374 313.858 52.7767 314.005 53.3552 314.299 53.873 314.592 54.3736 315.016 54.7709 315.568 55.0643 316.121 55.3406 316.769 55.4788 317.51 55.4788 318.633 55.4788 319.609 55.2546 320.438 54.8057 321.267 54.3566 321.906 53.8039 322.354 53.1479 322.821 52.4916 323.064 51.8698 323.08 51.2831L325.048 54.4427C324.772 55.1511 324.393 55.885 323.909 56.6447 323.443 57.4045 322.847 58.1214 322.122 58.7943 321.396 59.4509 320.524 59.9946 319.505 60.4261 318.487 60.8407 317.277 61.0483 315.878 61.0483 314.101 61.0483 312.486 60.6941 311.035 59.9864 309.602 59.2608 308.462 58.2678 307.616 57.0074 306.787 55.7292 306.372 54.2791 306.372 52.6557 306.372 51.1881 306.648 49.8838 307.201 48.7444 307.754 47.6044 308.566 46.6463 309.636 45.8694 310.725 45.0747 312.08 44.479 313.703 44.0816 315.326 43.6673 317.208 43.46 319.35 43.46ZM349.681 32.5033 349.681 37.7877 333.363 37.7877 333.363 32.5033ZM337.404 25.5876 344.864 25.5876 344.864 52.086C344.864 52.8977 344.968 53.5188 345.174 53.9508 345.4 54.3826 345.726 54.6847 346.16 54.8572 346.591 55.0129 347.134 55.0904 347.792 55.0904 348.258 55.0904 348.671 55.0733 349.035 55.0383 349.414 54.987 349.734 54.9351 349.993 54.8832L350.019 60.3748C349.381 60.582 348.69 60.7462 347.947 60.8666 347.203 60.9876 346.384 61.0483 345.486 61.0483 343.844 61.0483 342.412 60.7803 341.185 60.245 339.977 59.6923 339.045 58.8121 338.388 57.603 337.733 56.3945 337.404 54.8057 337.404 52.8368ZM361.803 32.5033 361.803 60.5301 354.318 60.5301 354.318 32.5033ZM353.853 25.1986C353.853 24.1111 354.232 23.2132 354.992 22.5053 355.752 21.7969 356.771 21.4432 358.048 21.4432 359.309 21.4432 360.319 21.7969 361.079 22.5053 361.856 23.2132 362.244 24.1111 362.244 25.1986 362.244 26.2867 361.856 27.1847 361.079 27.8931 360.319 28.601 359.309 28.9546 358.048 28.9546 356.771 28.9546 355.752 28.601 354.992 27.8931 354.232 27.1847 353.853 26.2867 353.853 25.1986ZM366.778 46.8015 366.778 46.2578C366.778 44.2026 367.071 42.3117 367.659 40.5848 368.246 38.841 369.101 37.3302 370.223 36.0521 371.345 34.7745 372.727 33.7815 374.368 33.073 376.008 32.348 377.89 31.9856 380.013 31.9856 382.138 31.9856 384.029 32.348 385.686 33.073 387.344 33.7815 388.735 34.7745 389.857 36.0521 390.996 37.3302 391.861 38.841 392.447 40.5848 393.035 42.3117 393.328 44.2026 393.328 46.2578L393.328 46.8015C393.328 48.8394 393.035 50.7304 392.447 52.4744 391.861 54.2012 390.996 55.712 389.857 57.0074 388.735 58.2855 387.353 59.2779 385.712 59.9864 384.072 60.6941 382.19 61.0483 380.065 61.0483 377.942 61.0483 376.051 60.6941 374.393 59.9864 372.753 59.2779 371.362 58.2855 370.223 57.0074 369.101 55.712 368.246 54.2012 367.659 52.4744 367.071 50.7304 366.778 48.8394 366.778 46.8015ZM374.238 46.2578 374.238 46.8015C374.238 47.9758 374.342 49.0726 374.549 50.091 374.757 51.11 375.083 52.008 375.533 52.7849 375.998 53.5447 376.603 54.1409 377.347 54.5726 378.088 55.0042 378.995 55.2202 380.065 55.2202 381.102 55.2202 381.992 55.0042 382.734 54.5726 383.477 54.1409 384.072 53.5447 384.521 52.7849 384.971 52.008 385.297 51.11 385.505 50.091 385.731 49.0726 385.843 47.9758 385.843 46.8015L385.843 46.2578C385.843 45.1178 385.731 44.0475 385.505 43.0455 385.297 42.0271 384.961 41.1291 384.494 40.3516 384.046 39.5577 383.451 38.936 382.707 38.4868 381.966 38.0381 381.068 37.8136 380.013 37.8136 378.96 37.8136 378.062 38.0381 377.32 38.4868 376.594 38.936 375.998 39.5577 375.533 40.3516 375.083 41.1291 374.757 42.0271 374.549 43.0455 374.342 44.0475 374.238 45.1178 374.238 46.2578ZM405.217 38.4868 405.217 60.5301 397.758 60.5301 397.758 32.5033 404.75 32.5033ZM404.129 45.5321 402.108 45.5321C402.108 43.46 402.377 41.595 402.911 39.9373 403.447 38.2623 404.198 36.8378 405.165 35.6635 406.132 34.4722 407.281 33.5653 408.61 32.9436 409.958 32.3049 411.459 31.9856 413.118 31.9856 414.43 31.9856 415.629 32.1756 416.718 32.5553 417.806 32.9349 418.738 33.5393 419.515 34.3682 420.31 35.1971 420.913 36.2941 421.328 37.6577 421.761 39.0221 421.976 40.6888 421.976 42.6571L421.976 60.5301 414.464 60.5301 414.464 42.6312C414.464 41.3878 414.292 40.4207 413.947 39.73 413.601 39.0393 413.091 38.5557 412.417 38.2795 411.762 37.986 410.95 37.8396 409.984 37.8396 408.982 37.8396 408.11 38.0381 407.366 38.4352 406.642 38.832 406.037 39.3848 405.553 40.093 405.088 40.7839 404.734 41.595 404.491 42.5277 404.25 43.46 404.129 44.4618 404.129 45.5321Z" fill="#000000" fill-rule="nonzero" fill-opacity="1" transform="matrix(1 0 0 1.00191 195.012 1482)"/></g></g></g><rect x="2694.5" y="962.5" width="889" height="70.0001" stroke="#7F7F7F" stroke-width="4.58333" stroke-linecap="butt" stroke-linejoin="miter" stroke-miterlimit="8" stroke-opacity="1" fill="none"/><text fill="#000000" fill-opacity="1" font-family="Inter,Inter_MSFontService,sans-serif" font-style="normal" font-variant="normal" font-weight="700" font-stretch="normal" font-size="46" text-anchor="start" direction="ltr" writing-mode="lr-tb" unicode-bidi="normal" text-decoration="none" transform="matrix(1 0 0 1 3007.05 1013)">Kubernetes</text><rect x="699.5" y="962.5" width="888" height="70.0001" stroke="#7F7F7F" stroke-width="4.58333" stroke-linecap="butt" stroke-linejoin="miter" stroke-miterlimit="8" stroke-opacity="1" fill="none"/><text fill="#000000" fill-opacity="1" font-family="Inter,Inter_MSFontService,sans-serif" font-style="normal" font-variant="normal" font-weight="700" font-stretch="normal" font-size="46" text-anchor="start" direction="ltr" writing-mode="lr-tb" unicode-bidi="normal" text-decoration="none" transform="matrix(1 0 0 1 764.1 1013)">Cloud &amp; </text><text fill="#000000" fill-opacity="1" font-family="Inter,Inter_MSFontService,sans-serif" font-style="normal" font-variant="normal" font-weight="700" font-stretch="normal" font-size="46" text-anchor="start" direction="ltr" writing-mode="lr-tb" unicode-bidi="normal" text-decoration="none" transform="matrix(1 0 0 1 949.725 1013)">datacenter</text><text fill="#000000" fill-opacity="1" font-family="Inter,Inter_MSFontService,sans-serif" font-style="normal" font-variant="normal" font-weight="700" font-stretch="normal" font-size="46" text-anchor="start" direction="ltr" writing-mode="lr-tb" unicode-bidi="normal" text-decoration="none" transform="matrix(1 0 0 1 1207.54 1013)">i</text><text fill="#000000" fill-opacity="1" font-family="Inter,Inter_MSFontService,sans-serif" font-style="normal" font-variant="normal" font-weight="700" font-stretch="normal" font-size="46" text-anchor="start" direction="ltr" writing-mode="lr-tb" unicode-bidi="normal" text-decoration="none" transform="matrix(1 0 0 1 1220.14 1013)">nfrastructure</text><rect x="1697.5" y="966.5" width="888" height="66" stroke="#7F7F7F" stroke-width="4.58333" stroke-linecap="butt" stroke-linejoin="miter" stroke-miterlimit="8" stroke-opacity="1" fill="none"/><text fill="#000000" fill-opacity="1" font-family="Inter,Inter_MSFontService,sans-serif" font-style="normal" font-variant="normal" font-weight="700" font-stretch="normal" font-size="46" text-anchor="start" direction="ltr" writing-mode="lr-tb" unicode-bidi="normal" text-decoration="none" transform="matrix(1 0 0 1 1977.56 1015)">Physical hosts</text><g clip-path="url(#clip3)" filter="url(#fx1)" transform="translate(2613 1307)"><g><g><rect x="19.7229" y="19.7227" width="1524" height="354" fill="#90FF99" fill-opacity="1"/></g></g></g><rect x="2623" y="1317" width="1524" height="354" fill="#90FF99" fill-opacity="1"/><rect x="699" y="1385" width="390" height="228" fill="#7F7F7F" fill-opacity="1"/><text fill="#FFFFFF" fill-opacity="1" font-family="Inter,Inter_MSFontService,sans-serif" font-style="normal" font-variant="normal" font-weight="400" font-stretch="normal" font-size="50" text-anchor="start" direction="ltr" writing-mode="lr-tb" unicode-bidi="normal" text-decoration="none" transform="matrix(1 0 0 1 761.099 1486)">Datacenter </text><text fill="#FFFFFF" fill-opacity="1" font-family="Inter,Inter_MSFontService,sans-serif" font-style="normal" font-variant="normal" font-weight="400" font-stretch="normal" font-size="50" text-anchor="start" direction="ltr" writing-mode="lr-tb" unicode-bidi="normal" text-decoration="none" transform="matrix(1 0 0 1 763.964 1547)">employees</text><rect x="1697" y="1385" width="389" height="228" fill="#7F7F7F" fill-opacity="1"/><text fill="#FFFFFF" fill-opacity="1" font-family="Inter,Inter_MSFontService,sans-serif" font-style="normal" font-variant="normal" font-weight="400" font-stretch="normal" font-size="50" text-anchor="start" direction="ltr" writing-mode="lr-tb" unicode-bidi="normal" text-decoration="none" transform="matrix(1 0 0 1 1849.03 1456)">OS</text><text fill="#FFFFFF" fill-opacity="1" font-family="Inter,Inter_MSFontService,sans-serif" font-style="normal" font-variant="normal" font-weight="400" font-stretch="normal" font-size="50" text-anchor="start" direction="ltr" writing-mode="lr-tb" unicode-bidi="normal" text-decoration="none" transform="matrix(1 0 0 1 1919.5 1456)">, </text><text fill="#FFFFFF" fill-opacity="1" font-family="Inter,Inter_MSFontService,sans-serif" font-style="normal" font-variant="normal" font-weight="400" font-stretch="normal" font-size="50" text-anchor="start" direction="ltr" writing-mode="lr-tb" unicode-bidi="normal" text-decoration="none" transform="matrix(1 0 0 1 1761.37 1517)">Hypervisor </text><text fill="#FFFFFF" fill-opacity="1" font-family="Inter,Inter_MSFontService,sans-serif" font-style="normal" font-variant="normal" font-weight="400" font-stretch="normal" font-size="50" text-anchor="start" direction="ltr" writing-mode="lr-tb" unicode-bidi="normal" text-decoration="none" transform="matrix(1 0 0 1 1846.74 1577)">etc.</text><rect x="2195" y="1385" width="390" height="228" fill="#7F7F7F" fill-opacity="1"/><text fill="#FFFFFF" fill-opacity="1" font-family="Inter,Inter_MSFontService,sans-serif" font-style="normal" font-variant="normal" font-weight="400" font-stretch="normal" font-size="50" text-anchor="start" direction="ltr" writing-mode="lr-tb" unicode-bidi="normal" text-decoration="none" transform="matrix(1 0 0 1 2301.18 1517)">A</text><text fill="#FFFFFF" fill-opacity="1" font-family="Inter,Inter_MSFontService,sans-serif" font-style="normal" font-variant="normal" font-weight="400" font-stretch="normal" font-size="50" text-anchor="start" direction="ltr" writing-mode="lr-tb" unicode-bidi="normal" text-decoration="none" transform="matrix(1 0 0 1 2335.56 1517)">dmin</text><text fill="#FFFFFF" fill-opacity="1" font-family="Inter,Inter_MSFontService,sans-serif" font-style="normal" font-variant="normal" font-weight="400" font-stretch="normal" font-size="50" text-anchor="start" direction="ltr" writing-mode="lr-tb" unicode-bidi="normal" text-decoration="none" transform="matrix(1 0 0 1 2453 1517)">s</text><rect x="2694.5" y="1728.5" width="889" height="70.0001" stroke="#7F7F7F" stroke-width="4.58333" stroke-linecap="butt" stroke-linejoin="miter" stroke-miterlimit="8" stroke-opacity="1" fill="none"/><text fill="#000000" fill-opacity="1" font-family="Inter,Inter_MSFontService,sans-serif" font-style="normal" font-variant="normal" font-weight="700" font-stretch="normal" font-size="46" text-anchor="start" direction="ltr" writing-mode="lr-tb" unicode-bidi="normal" text-decoration="none" transform="matrix(1 0 0 1 3007.05 1780)">Kubernetes</text><rect x="699.5" y="1728.5" width="888" height="70.0001" stroke="#7F7F7F" stroke-width="4.58333" stroke-linecap="butt" stroke-linejoin="miter" stroke-miterlimit="8" stroke-opacity="1" fill="none"/><text fill="#000000" fill-opacity="1" font-family="Inter,Inter_MSFontService,sans-serif" font-style="normal" font-variant="normal" font-weight="700" font-stretch="normal" font-size="46" text-anchor="start" direction="ltr" writing-mode="lr-tb" unicode-bidi="normal" text-decoration="none" transform="matrix(1 0 0 1 764.1 1780)">Cloud &amp; </text><text fill="#000000" fill-opacity="1" font-family="Inter,Inter_MSFontService,sans-serif" font-style="normal" font-variant="normal" font-weight="700" font-stretch="normal" font-size="46" text-anchor="start" direction="ltr" writing-mode="lr-tb" unicode-bidi="normal" text-decoration="none" transform="matrix(1 0 0 1 949.725 1780)">datacenter</text><text fill="#000000" fill-opacity="1" font-family="Inter,Inter_MSFontService,sans-serif" font-style="normal" font-variant="normal" font-weight="700" font-stretch="normal" font-size="46" text-anchor="start" direction="ltr" writing-mode="lr-tb" unicode-bidi="normal" text-decoration="none" transform="matrix(1 0 0 1 1207.54 1780)">i</text><text fill="#000000" fill-opacity="1" font-family="Inter,Inter_MSFontService,sans-serif" font-style="normal" font-variant="normal" font-weight="700" font-stretch="normal" font-size="46" text-anchor="start" direction="ltr" writing-mode="lr-tb" unicode-bidi="normal" text-decoration="none" transform="matrix(1 0 0 1 1220.14 1780)">nfrastructure</text><rect x="1697.5" y="1732.5" width="888" height="66" stroke="#7F7F7F" stroke-width="4.58333" stroke-linecap="butt" stroke-linejoin="miter" stroke-miterlimit="8" stroke-opacity="1" fill="none"/><text fill="#000000" fill-opacity="1" font-family="Inter,Inter_MSFontService,sans-serif" font-style="normal" font-variant="normal" font-weight="700" font-stretch="normal" font-size="46" text-anchor="start" direction="ltr" writing-mode="lr-tb" unicode-bidi="normal" text-decoration="none" transform="matrix(1 0 0 1 1977.56 1782)">Physical hosts</text><rect x="2694" y="1385" width="390" height="228" fill="#7F7F7F" fill-opacity="1"/><text fill="#FFFFFF" fill-opacity="1" font-family="Inter,Inter_MSFontService,sans-serif" font-style="normal" font-variant="normal" font-weight="400" font-stretch="normal" font-size="50" text-anchor="start" direction="ltr" writing-mode="lr-tb" unicode-bidi="normal" text-decoration="none" transform="matrix(1 0 0 1 2728.41 1517)">Control plane</text><rect x="3193" y="1385" width="390" height="228" fill="#7F7F7F" fill-opacity="1"/><text fill="#FFFFFF" fill-opacity="1" font-family="Inter,Inter_MSFontService,sans-serif" font-style="normal" font-variant="normal" font-weight="400" font-stretch="normal" font-size="50" text-anchor="start" direction="ltr" writing-mode="lr-tb" unicode-bidi="normal" text-decoration="none" transform="matrix(1 0 0 1 3301.45 1486)">Worker </text><text fill="#FFFFFF" fill-opacity="1" font-family="Inter,Inter_MSFontService,sans-serif" font-style="normal" font-variant="normal" font-weight="400" font-stretch="normal" font-size="50" text-anchor="start" direction="ltr" writing-mode="lr-tb" unicode-bidi="normal" text-decoration="none" transform="matrix(1 0 0 1 3314.35 1547)">nodes</text><rect x="3692" y="1385" width="390" height="228" fill="#000000" fill-opacity="1"/><text fill="#FFFFFF" fill-opacity="1" font-family="Inter,Inter_MSFontService,sans-serif" font-style="normal" font-variant="normal" font-weight="400" font-stretch="normal" font-size="50" text-anchor="start" direction="ltr" writing-mode="lr-tb" unicode-bidi="normal" text-decoration="none" transform="matrix(1 0 0 1 3773.08 1517)">Workload</text><rect x="1198" y="1385" width="389" height="228" fill="#7F7F7F" fill-opacity="1"/><text fill="#FFFFFF" fill-opacity="1" font-family="Inter,Inter_MSFontService,sans-serif" font-style="normal" font-variant="normal" font-weight="400" font-stretch="normal" font-size="50" text-anchor="start" direction="ltr" writing-mode="lr-tb" unicode-bidi="normal" text-decoration="none" transform="matrix(1 0 0 1 1244.48 1486)">Infrastructur</text><text fill="#FFFFFF" fill-opacity="1" font-family="Inter,Inter_MSFontService,sans-serif" font-style="normal" font-variant="normal" font-weight="400" font-stretch="normal" font-size="50" text-anchor="start" direction="ltr" writing-mode="lr-tb" unicode-bidi="normal" text-decoration="none" transform="matrix(1 0 0 1 1265.1 1547)">e software</text><text fill="#000000" fill-opacity="1" font-family="Inter,Inter_MSFontService,sans-serif" font-style="normal" font-variant="normal" font-weight="700" font-stretch="normal" font-size="55" text-anchor="start" direction="ltr" writing-mode="lr-tb" unicode-bidi="normal" text-decoration="none" transform="matrix(1 0 0 1 1503.64 517)">Entities that could maliciously access workload</text><text fill="#000000" fill-opacity="1" font-family="Inter,Inter_MSFontService,sans-serif" font-style="normal" font-variant="normal" font-weight="700" font-stretch="normal" font-size="55" text-anchor="start" direction="ltr" writing-mode="lr-tb" unicode-bidi="normal" text-decoration="none" transform="matrix(1 0 0 1 3059.44 1286)">Entities that are shielded</text><rect x="699" y="609" width="390" height="228" fill="#7F7F7F" fill-opacity="1"/><text fill="#FFFFFF" fill-opacity="1" font-family="Inter,Inter_MSFontService,sans-serif" font-style="normal" font-variant="normal" font-weight="400" font-stretch="normal" font-size="50" text-anchor="start" direction="ltr" writing-mode="lr-tb" unicode-bidi="normal" text-decoration="none" transform="matrix(1 0 0 1 761.099 711)">Datacenter </text><text fill="#FFFFFF" fill-opacity="1" font-family="Inter,Inter_MSFontService,sans-serif" font-style="normal" font-variant="normal" font-weight="400" font-stretch="normal" font-size="50" text-anchor="start" direction="ltr" writing-mode="lr-tb" unicode-bidi="normal" text-decoration="none" transform="matrix(1 0 0 1 763.964 772)">employees</text><rect x="1697" y="609" width="389" height="228" fill="#7F7F7F" fill-opacity="1"/><text fill="#FFFFFF" fill-opacity="1" font-family="Inter,Inter_MSFontService,sans-serif" font-style="normal" font-variant="normal" font-weight="400" font-stretch="normal" font-size="50" text-anchor="start" direction="ltr" writing-mode="lr-tb" unicode-bidi="normal" text-decoration="none" transform="matrix(1 0 0 1 1849.03 681)">OS</text><text fill="#FFFFFF" fill-opacity="1" font-family="Inter,Inter_MSFontService,sans-serif" font-style="normal" font-variant="normal" font-weight="400" font-stretch="normal" font-size="50" text-anchor="start" direction="ltr" writing-mode="lr-tb" unicode-bidi="normal" text-decoration="none" transform="matrix(1 0 0 1 1919.5 681)">, </text><text fill="#FFFFFF" fill-opacity="1" font-family="Inter,Inter_MSFontService,sans-serif" font-style="normal" font-variant="normal" font-weight="400" font-stretch="normal" font-size="50" text-anchor="start" direction="ltr" writing-mode="lr-tb" unicode-bidi="normal" text-decoration="none" transform="matrix(1 0 0 1 1761.37 742)">Hypervisor </text><text fill="#FFFFFF" fill-opacity="1" font-family="Inter,Inter_MSFontService,sans-serif" font-style="normal" font-variant="normal" font-weight="400" font-stretch="normal" font-size="50" text-anchor="start" direction="ltr" writing-mode="lr-tb" unicode-bidi="normal" text-decoration="none" transform="matrix(1 0 0 1 1846.74 802)">etc.</text><rect x="2195" y="609" width="390" height="228" fill="#7F7F7F" fill-opacity="1"/><text fill="#FFFFFF" fill-opacity="1" font-family="Inter,Inter_MSFontService,sans-serif" font-style="normal" font-variant="normal" font-weight="400" font-stretch="normal" font-size="50" text-anchor="start" direction="ltr" writing-mode="lr-tb" unicode-bidi="normal" text-decoration="none" transform="matrix(1 0 0 1 2301.18 741)">A</text><text fill="#FFFFFF" fill-opacity="1" font-family="Inter,Inter_MSFontService,sans-serif" font-style="normal" font-variant="normal" font-weight="400" font-stretch="normal" font-size="50" text-anchor="start" direction="ltr" writing-mode="lr-tb" unicode-bidi="normal" text-decoration="none" transform="matrix(1 0 0 1 2335.56 741)">dmin</text><text fill="#FFFFFF" fill-opacity="1" font-family="Inter,Inter_MSFontService,sans-serif" font-style="normal" font-variant="normal" font-weight="400" font-stretch="normal" font-size="50" text-anchor="start" direction="ltr" writing-mode="lr-tb" unicode-bidi="normal" text-decoration="none" transform="matrix(1 0 0 1 2453 741)">s</text><rect x="2694" y="609" width="390" height="228" fill="#7F7F7F" fill-opacity="1"/><text fill="#FFFFFF" fill-opacity="1" font-family="Inter,Inter_MSFontService,sans-serif" font-style="normal" font-variant="normal" font-weight="400" font-stretch="normal" font-size="50" text-anchor="start" direction="ltr" writing-mode="lr-tb" unicode-bidi="normal" text-decoration="none" transform="matrix(1 0 0 1 2728.41 741)">Control plane</text><rect x="3193" y="609" width="390" height="228" fill="#7F7F7F" fill-opacity="1"/><text fill="#FFFFFF" fill-opacity="1" font-family="Inter,Inter_MSFontService,sans-serif" font-style="normal" font-variant="normal" font-weight="400" font-stretch="normal" font-size="50" text-anchor="start" direction="ltr" writing-mode="lr-tb" unicode-bidi="normal" text-decoration="none" transform="matrix(1 0 0 1 3301.45 711)">Worker </text><text fill="#FFFFFF" fill-opacity="1" font-family="Inter,Inter_MSFontService,sans-serif" font-style="normal" font-variant="normal" font-weight="400" font-stretch="normal" font-size="50" text-anchor="start" direction="ltr" writing-mode="lr-tb" unicode-bidi="normal" text-decoration="none" transform="matrix(1 0 0 1 3314.35 772)">nodes</text><rect x="3692" y="609" width="390" height="228" fill="#000000" fill-opacity="1"/><text fill="#FFFFFF" fill-opacity="1" font-family="Inter,Inter_MSFontService,sans-serif" font-style="normal" font-variant="normal" font-weight="400" font-stretch="normal" font-size="50" text-anchor="start" direction="ltr" writing-mode="lr-tb" unicode-bidi="normal" text-decoration="none" transform="matrix(1 0 0 1 3773.08 741)">Workload</text><rect x="1198" y="609" width="389" height="228" fill="#7F7F7F" fill-opacity="1"/><text fill="#FFFFFF" fill-opacity="1" font-family="Inter,Inter_MSFontService,sans-serif" font-style="normal" font-variant="normal" font-weight="400" font-stretch="normal" font-size="50" text-anchor="start" direction="ltr" writing-mode="lr-tb" unicode-bidi="normal" text-decoration="none" transform="matrix(1 0 0 1 1244.48 711)">Infrastructur</text><text fill="#FFFFFF" fill-opacity="1" font-family="Inter,Inter_MSFontService,sans-serif" font-style="normal" font-variant="normal" font-weight="400" font-stretch="normal" font-size="50" text-anchor="start" direction="ltr" writing-mode="lr-tb" unicode-bidi="normal" text-decoration="none" transform="matrix(1 0 0 1 1265.1 772)">e software</text></g></g></svg>