<?xml version="1.0" encoding="UTF-8" standalone="no"?>
<svg
   width="2259.8723"
   height="449"
   viewBox="0 0 2259.8723 449"
   fill="none"
   version="1.1"
   id="svg8"
   sodipodi:docname="constellation_oneline.svg"
   inkscape:version="1.1 (c68e22c387, 2021-05-23)"
   xmlns:inkscape="http://www.inkscape.org/namespaces/inkscape"
   xmlns:sodipodi="http://sodipodi.sourceforge.net/DTD/sodipodi-0.dtd"
   xmlns="http://www.w3.org/2000/svg"
   xmlns:svg="http://www.w3.org/2000/svg">
  <defs
     id="defs12" />
  <sodipodi:namedview
     id="namedview10"
     pagecolor="#ffffff"
     bordercolor="#666666"
     borderopacity="1.0"
     inkscape:pageshadow="2"
     inkscape:pageopacity="0.0"
     inkscape:pagecheckerboard="0"
     showgrid="false"
     inkscape:zoom="0.19178383"
     inkscape:cx="1165.3746"
     inkscape:cy="1634.6529"
     inkscape:window-width="2560"
     inkscape:window-height="1351"
     inkscape:window-x="-9"
     inkscape:window-y="-9"
     inkscape:window-maximized="1"
     inkscape:current-layer="svg8" />
  <circle
     cx="224.5"
     cy="224.5"
     r="224.5"
     fill="#90ff99"
     id="circle2" />
  <path
     fill-rule="evenodd"
     clip-rule="evenodd"
     d="M 449,224.5 C 449,348.488 348.488,449 224.5,449 100.512,449 0,348.488 0,224.5 0,100.512 100.512,5.2535156e-6 224.5,5.2535156e-6 267.717,5.2535156e-6 308.081,12.211405 342.332,33.371805 333.476,42.237505 328,54.479205 328,68.000005 328,95.062005 349.938,117 377,117 c 13.975,0 26.584,-5.85 35.51,-15.236 C 435.585,137.039 449,179.203 449,224.5 Z M 426,68.000005 c 0,13.087 -5.13,24.9757 -13.49,33.763995 -18.07,-27.623895 -42.064,-51.022895 -70.178,-68.392195 8.869,-8.879 21.127,-14.3718 34.668,-14.3718 27.062,0 49,21.938 49,49 z M 258.039,319.019 c 37.702,-13.35 61.924,-47.739 64.148,-85.304 l 59.42,-21.042 c 6.968,70.013 -34.249,138.369 -103.54,162.905 -81.476,28.851 -170.912,-13.81 -199.763001,-95.285 -28.851,-81.475 13.809,-170.912 95.285001,-199.762995 69.628,-24.6557 145.071,2.9156 183.546,62.306995 l -59.258,20.983 c -25.316,-28.376 -66.197,-40.21 -104.261,-26.731 -50.238,17.79 -76.543,72.938 -58.754,123.176 17.79,50.239 72.938,76.544 123.177,58.754 z"
     fill="#000000"
     id="path4" />
  <path
     d="m 715.22249,257.16259 h 41.47727 c -0.83246,13.59531 -4.57784,25.66361 -11.2364,36.20781 -6.56595,10.54127 -15.7678,18.77421 -27.60525,24.69296 -11.74513,5.91872 -25.89443,8.87808 -42.44852,8.87808 -12.94724,0 -24.55325,-2.21953 -34.8187,-6.65858 -10.26544,-4.53374 -19.05092,-11.00586 -26.3567,-19.42231 -7.21374,-8.41642 -12.7161,-18.58775 -16.50792,-30.51991 -3.79154,-11.92921 -5.6873,-25.29074 -5.6873,-40.08754 v -14.0126 c 0,-14.79682 1.94192,-28.15836 5.82609,-40.09051 3.9765,-12.02093 9.61794,-22.23961 16.9237,-30.65605 7.39844,-8.41643 16.23035,-14.88857 26.4958,-19.42232 10.26515,-4.53079 21.73269,-6.7947 34.40262,-6.7947 16.83137,0 31.02715,3.05112 42.58701,9.15332 11.6525,6.10519 20.66939,14.5216 27.05036,25.24931 6.47363,10.72767 10.35777,22.93506 11.65249,36.62212 H 715.361 c -0.46226,-8.13824 -2.08073,-15.02764 -4.85513,-20.67115 -2.77441,-5.73229 -6.98234,-10.03225 -12.62347,-12.89988 -5.54881,-2.95937 -12.94722,-4.43905 -22.19522,-4.43905 -6.93617,0 -12.99341,1.29324 -18.17229,3.8827 -5.17888,2.58944 -9.5256,6.52244 -13.03985,11.79307 -3.51424,5.27062 -6.14985,11.92919 -7.90712,19.9757 -1.66463,7.95182 -2.49681,17.29156 -2.49681,28.02222 v 14.28782 c 0,10.44949 0.786,19.65016 2.35831,27.60494 1.57203,7.86006 3.9765,14.51865 7.21316,19.9757 3.32927,5.36238 7.58366,9.4315 12.76255,12.20738 5.27124,2.68119 11.60602,4.02178 19.00446,4.02178 8.69312,0 15.8604,-1.38793 21.50154,-4.16086 5.64144,-2.77588 9.9417,-6.88941 12.90106,-12.34645 3.052,-5.45709 4.85513,-12.25475 5.4103,-20.393 z m 59.92714,-6.51947 v -2.91202 c 0,-11.00588 1.57199,-21.13281 4.71634,-30.38084 3.14433,-9.33975 7.72217,-17.43065 13.73323,-24.27567 6.01135,-6.84204 13.40857,-12.16003 22.19492,-15.95392 8.78636,-3.88269 18.86597,-5.82403 30.24175,-5.82403 11.3758,0 21.49978,1.94134 30.37789,5.82403 8.87808,3.79389 16.32384,9.11188 22.33431,15.95392 6.10515,6.84502 10.7277,14.93592 13.87349,24.27567 3.14285,9.24803 4.71724,19.37496 4.71724,30.38084 v 2.91202 c 0,10.91414 -1.57439,21.04106 -4.71724,30.38081 -3.14579,9.24803 -7.76834,17.33893 -13.87349,24.27567 -6.01047,6.84501 -13.40888,12.16003 -22.19523,15.95395 -8.78341,3.79095 -18.86597,5.68789 -30.23878,5.68789 -11.37581,0 -21.50275,-1.89694 -30.38086,-5.68789 -8.78633,-3.79392 -16.23032,-9.10894 -22.334,-15.95395 -6.01106,-6.93674 -10.5889,-15.02764 -13.73323,-24.27567 -3.14435,-9.33975 -4.71634,-19.46667 -4.71634,-30.38081 z m 39.95199,-2.91202 v 2.91202 c 0,6.28862 0.55342,12.16298 1.66317,17.61709 1.10976,5.45708 2.86763,10.26603 5.2736,14.4269 2.49473,4.06912 5.7323,7.26228 9.70967,9.57355 3.97443,2.31126 8.83075,3.46835 14.566,3.46835 5.54881,0 10.31043,-1.15709 14.28781,-3.46835 3.97441,-2.31127 7.16756,-5.50443 9.57058,-9.57355 2.40596,-4.16087 4.16086,-8.96982 5.27062,-14.4269 1.20447,-5.45411 1.80522,-11.32847 1.80522,-17.61709 v -2.91202 c 0,-6.10517 -0.60075,-11.83746 -1.80522,-17.20279 -1.10976,-5.45411 -2.91202,-10.26308 -5.4097,-14.42689 -2.40302,-4.25261 -5.5932,-7.58192 -9.57058,-9.98786 -3.9774,-2.40301 -8.78636,-3.6045 -14.42692,-3.6045 -5.64055,0 -10.44951,1.20149 -14.42689,3.6045 -3.88565,2.40594 -7.07586,5.73525 -9.57059,9.98786 -2.40597,4.16381 -4.16384,8.97278 -5.2736,14.42689 -1.10975,5.36533 -1.66317,11.09762 -1.66317,17.20279 z M 981.00948,206.11356 V 324.16555 H 941.05809 V 174.06957 h 37.4537 z m -5.82397,37.73189 H 964.3631 c 0,-11.09761 1.43527,-21.08545 4.29997,-29.96357 2.86757,-8.96983 6.88935,-16.59907 12.06823,-22.88771 5.17892,-6.38039 11.33147,-11.23671 18.45167,-14.566 7.21193,-3.42103 15.25853,-5.13153 24.13663,-5.13153 7.0285,0 13.4562,1.018 19.2831,3.05111 5.827,2.03306 10.8195,5.27062 14.9804,9.70966 4.2556,4.43905 7.4901,10.31338 9.7096,17.61709 2.3142,7.30667 3.4684,16.23211 3.4684,26.77339 v 95.71766 h -40.2265 V 228.3088 c 0,-6.65858 -0.9264,-11.83747 -2.776,-15.53669 -1.8496,-3.69919 -4.5781,-6.28863 -8.1827,-7.76831 -3.5156,-1.57143 -7.863,-2.35566 -13.0419,-2.35566 -5.3623,0 -10.03229,1.06241 -14.00963,3.1902 -3.88557,2.12481 -7.1202,5.08417 -9.7096,8.87808 -2.49773,3.69922 -4.39469,8.04358 -5.68794,13.03897 -1.29623,4.99245 -1.94132,10.35778 -1.94132,16.09006 z m 207.10809,38.84166 c 0,-2.86466 -0.8315,-5.45412 -2.4976,-7.76834 -1.6633,-2.31125 -4.7617,-4.43903 -9.2925,-6.38038 -4.439,-2.0331 -10.8668,-3.88269 -19.2832,-5.5488 -7.5849,-1.66318 -14.6577,-3.74658 -21.2245,-6.24131 -6.4752,-2.58946 -12.1157,-5.68789 -16.9247,-9.29537 -4.7142,-3.60746 -8.4134,-7.86006 -11.0976,-12.76077 -2.6812,-4.99541 -4.0218,-10.6833 -4.0218,-17.06369 0,-6.28866 1.3406,-12.20739 4.0218,-17.75619 2.7759,-5.5488 6.7059,-10.44952 11.7931,-14.70508 5.1789,-4.34732 11.4675,-7.72099 18.8659,-10.12696 7.4902,-2.49474 15.9066,-3.74358 25.2464,-3.74358 13.0388,0 24.2283,2.08043 33.5709,6.2413 9.4316,4.16086 16.6465,9.8961 21.639,17.20278 5.0871,7.21197 7.6292,15.44197 7.6292,24.68997 h -39.9513 c 0,-3.88267 -0.8317,-7.35105 -2.4978,-10.40216 -1.5714,-3.1458 -4.0662,-5.59616 -7.4902,-7.35403 -3.3292,-1.84959 -7.6736,-2.77291 -13.0388,-2.77291 -4.4391,0 -8.2774,0.78718 -11.5151,2.35861 -3.2345,1.47969 -5.7321,3.51277 -7.49,6.10221 -1.6632,2.4977 -2.4977,5.27062 -2.4977,8.32469 0,2.31127 0.4645,4.3917 1.3879,6.24131 1.0179,1.75785 2.6367,3.37663 4.8563,4.8563 2.2195,1.47969 5.0872,2.86466 8.6,4.16087 3.6074,1.20152 8.0464,2.31125 13.3171,3.3293 10.8194,2.21951 20.4846,5.13152 28.9929,8.73901 8.5082,3.5157 15.2584,8.32468 20.2538,14.42689 4.9925,6.01046 7.4901,13.91788 7.4901,23.72226 0,6.65855 -1.4796,12.76078 -4.4391,18.30959 -2.9592,5.54881 -7.2147,10.40511 -12.7636,14.56597 -5.5488,4.06912 -12.2074,7.25933 -19.9757,9.57058 -7.6736,2.21954 -16.3209,3.33226 -25.9389,3.33226 -13.9651,0 -25.8026,-2.4977 -35.5123,-7.49311 -9.618,-4.99244 -16.9247,-11.32845 -21.92,-19.00504 -4.9007,-7.76832 -7.3511,-15.72014 -7.3511,-23.85839 h 37.871 c 0.1864,5.45707 1.5715,9.84876 4.1609,13.17804 2.6841,3.3293 6.0578,5.73229 10.127,7.21198 4.1608,1.47967 8.6471,2.21952 13.4561,2.21952 5.1789,0 9.4789,-0.69249 12.8999,-2.08042 3.4239,-1.47969 6.0134,-3.42103 7.7683,-5.82404 1.8497,-2.4977 2.7759,-5.36534 2.7759,-8.60287 z m 138.303,-108.61754 v 28.30038 h -87.393 v -28.30038 z m -65.7512,-37.03645 h 39.9514 v 141.91039 c 0,4.34731 0.5535,7.67364 1.6631,9.98785 1.2015,2.31126 2.9595,3.93005 5.2707,4.85335 2.3113,0.83456 5.2262,1.24887 8.739,1.24887 2.4977,0 4.7172,-0.0918 6.6586,-0.27818 2.0361,-0.27523 3.7465,-0.55341 5.1345,-0.83158 l 0.1391,29.41016 c -3.4239,1.10976 -7.1231,1.9887 -11.0976,2.63382 -3.9773,0.6481 -8.3691,0.97364 -13.1811,0.97364 -8.7833,0 -16.4599,-1.43528 -23.0268,-4.30291 -6.4721,-2.95937 -11.4675,-7.67363 -14.9802,-14.14873 -3.5158,-6.47212 -5.2707,-14.9803 -5.2707,-25.52451 z m 157.5861,189.90832 c -11.6539,0 -22.1035,-1.85257 -31.3515,-5.55177 -9.248,-3.79093 -17.111,-9.01423 -23.5831,-15.67278 -6.3805,-6.65857 -11.284,-14.38253 -14.7051,-23.16591 -3.4211,-8.8781 -5.1315,-18.31255 -5.1315,-28.3004 v -5.54881 c 0,-11.3758 1.6186,-21.77798 4.8533,-31.21243 3.2376,-9.43147 7.8631,-17.61708 13.8735,-24.55383 6.1023,-6.93676 13.5006,-12.25177 22.1953,-15.95098 8.6945,-3.7939 18.496,-5.68789 29.4101,-5.68789 10.633,0 20.0675,1.75786 28.2974,5.27061 8.23,3.51278 15.1194,8.50818 20.6683,14.98328 5.6434,6.47213 9.8961,14.24046 12.7637,23.30203 2.8677,8.97279 4.3,18.96065 4.3,29.96651 v 16.64347 H 1354.724 v -26.63428 h 80.0388 v -3.05111 c 0,-5.54881 -1.0149,-10.49684 -3.051,-14.8412 -1.9414,-4.43905 -4.9006,-7.95478 -8.878,-10.54423 -3.9775,-2.58942 -9.0617,-3.88266 -15.2586,-3.88266 -5.2706,0 -9.8044,1.15415 -13.5953,3.46539 -3.791,2.31425 -6.8894,5.55178 -9.2953,9.71265 -2.3113,4.16086 -4.0663,9.06157 -5.2707,14.70213 -1.1098,5.55176 -1.6631,11.65397 -1.6631,18.31254 v 5.54881 c 0,6.01047 0.8316,11.55928 2.4947,16.64643 1.7579,5.08714 4.2081,9.47883 7.3541,13.17804 3.2374,3.6992 7.1202,6.56683 11.651,8.59992 4.6255,2.03604 9.8487,3.05404 15.6758,3.05404 7.2148,0 13.9178,-1.38793 20.1147,-4.1638 6.2886,-2.86469 11.6984,-7.1676 16.2292,-12.89989 l 19.4222,21.08547 c -3.1458,4.53079 -7.4457,8.87811 -12.8998,13.03897 -5.3653,4.16088 -11.8374,7.58485 -19.4223,10.26603 -7.5819,2.58945 -16.2292,3.88565 -25.9389,3.88565 z m 126.5129,-215.8501 v 213.07421 h -40.0905 V 111.09134 Z m 75.1855,0 v 213.07421 h -40.0905 V 111.09134 Z m 114.0273,179.22501 v -66.86093 c 0,-4.80895 -0.7872,-8.92544 -2.3586,-12.34647 -1.5714,-3.51571 -4.0217,-6.24128 -7.3511,-8.18558 -3.2375,-1.94135 -7.4457,-2.91202 -12.6247,-2.91202 -4.439,0 -8.2773,0.78424 -11.5119,2.3586 -3.2375,1.47968 -5.7352,3.65186 -7.4931,6.5195 -1.7578,2.77292 -2.6337,6.0578 -2.6337,9.84876 h -39.9515 c 0,-6.38041 1.4797,-12.43821 4.439,-18.17346 2.9594,-5.73228 7.2594,-10.77209 12.8999,-15.11939 5.6406,-4.43905 12.3464,-7.90742 20.1149,-10.40514 7.8599,-2.49474 16.6463,-3.74358 26.3559,-3.74358 11.6541,0 22.0119,1.94134 31.0735,5.82403 9.0644,3.88564 16.1847,9.71262 21.3635,17.48097 5.2707,7.76831 7.9075,17.478 7.9075,29.12901 v 64.23004 c 0,8.22999 0.5091,14.9803 1.524,20.25094 1.0181,5.17888 2.4978,9.71263 4.4391,13.59531 v 2.35861 h -40.3657 c -1.9414,-4.06913 -3.421,-9.15627 -4.4391,-15.25847 -0.9262,-6.19691 -1.3879,-12.39382 -1.3879,-18.59073 z m 5.2707,-57.56851 0.2781,22.61249 h -22.3343 c -5.2707,0 -9.8487,0.60076 -13.7345,1.80226 -3.8826,1.20447 -7.0728,2.91498 -9.5705,5.1345 -2.4977,2.12482 -4.3473,4.62252 -5.5488,7.49014 -1.1098,2.86764 -1.6632,6.01048 -1.6632,9.43151 0,3.42398 0.7842,6.52242 2.3587,9.29535 1.5714,2.68119 3.8353,4.80898 6.7946,6.38039 2.9594,1.47968 6.4278,2.21954 10.4051,2.21954 6.0105,0 11.2367,-1.20152 15.6759,-3.60452 4.439,-2.40596 7.8599,-5.36532 10.2659,-8.8781 2.4948,-3.51571 3.791,-6.84501 3.8828,-9.98785 l 10.5442,16.92166 c -1.4797,3.79389 -3.5158,7.72393 -6.1053,11.79307 -2.4976,4.0691 -5.6878,7.90742 -9.5706,11.5119 -3.8856,3.51573 -8.5554,6.42775 -14.0125,8.739 -5.4541,2.21954 -11.9292,3.33226 -19.4194,3.33226 -9.5261,0 -18.1734,-1.89694 -25.9418,-5.68789 -7.6735,-3.88565 -13.7788,-9.20363 -18.3095,-15.95395 -4.4391,-6.84501 -6.6586,-14.61038 -6.6586,-23.30499 0,-7.86006 1.4796,-14.84418 4.439,-20.94638 2.9595,-6.10516 7.3038,-11.2367 13.039,-15.39757 5.8271,-4.25557 13.0864,-7.44576 21.778,-9.57354 8.6947,-2.21952 18.7741,-3.32928 30.2418,-3.32928 z m 139.2765,-58.67827 v 28.30038 h -87.393 v -28.30038 z m -65.7541,-37.03645 h 39.9514 v 141.91039 c 0,4.34731 0.5564,7.67364 1.6631,9.98785 1.2046,2.31126 2.9594,3.93005 5.2736,4.85335 2.3113,0.83456 5.2234,1.24887 8.7391,1.24887 2.4977,0 4.7171,-0.0918 6.6585,-0.27818 2.0331,-0.27523 3.7436,-0.55341 5.1315,-0.83158 l 0.1393,29.41016 c -3.4211,1.10976 -7.1202,1.9887 -11.0977,2.63382 -3.9774,0.6481 -8.369,0.97364 -13.1781,0.97364 -8.7863,0 -16.4629,-1.43528 -23.0268,-4.30291 -6.475,-2.95937 -11.4674,-7.67363 -14.9833,-14.14873 -3.5127,-6.47212 -5.2705,-14.9803 -5.2705,-25.52451 z m 130.6737,37.03645 v 150.09598 h -40.0905 V 174.06957 Z m -42.5853,-39.11986 c 0,-5.82402 2.0331,-10.63297 6.1022,-14.42394 4.0691,-3.7939 9.5263,-5.68789 16.3683,-5.68789 6.7533,0 12.163,1.89399 16.2321,5.68789 4.1609,3.79097 6.2412,8.59992 6.2412,14.42394 0,5.827 -2.0803,10.63598 -6.2412,14.42987 -4.0691,3.79095 -9.4788,5.68494 -16.2321,5.68494 -6.842,0 -12.2992,-1.89399 -16.3683,-5.68494 -4.0691,-3.79389 -6.1022,-8.60287 -6.1022,-14.42987 z m 69.2195,115.69341 v -2.91202 c 0,-11.00588 1.5744,-21.13281 4.7173,-30.38084 3.1429,-9.33975 7.721,-17.43065 13.7343,-24.27567 6.0106,-6.84204 13.4089,-12.16003 22.1953,-15.95392 8.7834,-3.88269 18.866,-5.82403 30.2389,-5.82403 11.3757,0 21.5027,1.94134 30.3807,5.82403 8.8781,3.79389 16.3239,9.11188 22.3344,15.95392 6.1021,6.84502 10.7277,14.93592 13.8705,24.27567 3.1458,9.24803 4.7172,19.37496 4.7172,30.38084 v 2.91202 c 0,10.91414 -1.5714,21.04106 -4.7172,30.38081 -3.1428,9.24803 -7.7684,17.33893 -13.8705,24.27567 -6.0105,6.84501 -13.4089,12.16003 -22.1952,15.95395 -8.7864,3.79095 -18.866,5.68789 -30.2418,5.68789 -11.3758,0 -21.4998,-1.89694 -30.3779,-5.68789 -8.7864,-3.79392 -16.2321,-9.10894 -22.3344,-15.95395 -6.0133,-6.93674 -10.5914,-15.02764 -13.7343,-24.27567 -3.1429,-9.33975 -4.7173,-19.46667 -4.7173,-30.38081 z m 39.9514,-2.91202 v 2.91202 c 0,6.28862 0.5564,12.16298 1.6662,17.61709 1.1097,5.45708 2.8677,10.26603 5.2707,14.4269 2.4975,4.06912 5.7352,7.26228 9.7096,9.57355 3.9773,2.31126 8.8337,3.46835 14.566,3.46835 5.5488,0 10.3134,-1.15709 14.2878,-3.46835 3.9774,-2.31127 7.1676,-5.50443 9.5735,-9.57355 2.403,-4.16087 4.1608,-8.96982 5.2707,-14.4269 1.2014,-5.45411 1.8022,-11.32847 1.8022,-17.61709 v -2.91202 c 0,-6.10517 -0.6008,-11.83746 -1.8022,-17.20279 -1.1099,-5.45411 -2.915,-10.26308 -5.4097,-14.42689 -2.406,-4.25261 -5.5963,-7.58192 -9.5736,-9.98786 -3.9744,-2.40301 -8.7834,-3.6045 -14.4268,-3.6045 -5.6407,0 -10.4497,1.20149 -14.427,3.6045 -3.8826,2.40594 -7.073,5.73525 -9.5705,9.98786 -2.403,4.16381 -4.161,8.97278 -5.2707,14.42689 -1.1098,5.36533 -1.6662,11.09762 -1.6662,17.20279 z m 165.9109,-41.61754 v 118.05199 h -39.9514 V 174.06957 h 37.4536 z m -5.8269,37.73189 h -10.8195 c 0,-11.09761 1.4324,-21.08545 4.2999,-29.96357 2.8677,-8.96983 6.8895,-16.59907 12.0683,-22.88771 5.1789,-6.38039 11.3285,-11.23671 18.4487,-14.566 7.215,-3.42103 15.2614,-5.13153 24.1395,-5.13153 7.0285,0 13.4533,1.018 19.2803,3.05111 5.827,2.03306 10.8224,5.27062 14.9833,9.70966 4.2525,4.43905 7.4902,10.31338 9.7096,17.61709 2.3113,7.30667 3.4685,16.23211 3.4685,26.77339 v 95.71766 h -40.2296 V 228.3088 c 0,-6.65858 -0.9233,-11.83747 -2.7731,-15.53669 -1.8495,-3.69919 -4.578,-6.28863 -8.1856,-7.76831 -3.5157,-1.57143 -7.8599,-2.35566 -13.0389,-2.35566 -5.3652,0 -10.0352,1.06241 -14.0125,3.1902 -3.8828,2.12481 -7.1203,5.08417 -9.7098,8.87808 -2.4977,3.69922 -4.3917,8.04358 -5.6878,13.03897 -1.2933,4.99245 -1.9413,10.35778 -1.9413,16.09006 z"
     fill="#000000"
     id="path6"
     style="stroke-width:2.95936" />
</svg>
