<svg width="3767" height="1902" xmlns="http://www.w3.org/2000/svg" xmlns:xlink="http://www.w3.org/1999/xlink" xml:space="preserve" overflow="hidden"><defs><filter id="fx0" x="-10%" y="-10%" width="120%" height="120%" filterUnits="userSpaceOnUse" primitiveUnits="userSpaceOnUse"><feComponentTransfer color-interpolation-filters="sRGB"><feFuncR type="discrete" tableValues="0.000000 0.000000"/><feFuncG type="discrete" tableValues="0.000000 0.000000"/><feFuncB type="discrete" tableValues="0.000000 0.000000"/><feFuncA type="linear" slope="0.400000" intercept="0.000000"/></feComponentTransfer><feGaussianBlur stdDeviation="6.111111 6.111111"/></filter><filter id="fx1" x="-10%" y="-10%" width="120%" height="120%" filterUnits="userSpaceOnUse" primitiveUnits="userSpaceOnUse"><feComponentTransfer color-interpolation-filters="sRGB"><feFuncR type="discrete" tableValues="0.000000 0.000000"/><feFuncG type="discrete" tableValues="0.000000 0.000000"/><feFuncB type="discrete" tableValues="0.000000 0.000000"/><feFuncA type="linear" slope="0.400000" intercept="0.000000"/></feComponentTransfer><feGaussianBlur stdDeviation="6.111111 6.111111"/></filter><filter id="fx2" x="-10%" y="-10%" width="120%" height="120%" filterUnits="userSpaceOnUse" primitiveUnits="userSpaceOnUse"><feComponentTransfer color-interpolation-filters="sRGB"><feFuncR type="discrete" tableValues="0.000000 0.000000"/><feFuncG type="discrete" tableValues="0.000000 0.000000"/><feFuncB type="discrete" tableValues="0.000000 0.000000"/><feFuncA type="linear" slope="0.400000" intercept="0.000000"/></feComponentTransfer><feGaussianBlur stdDeviation="6.111111 6.111111"/></filter><clipPath id="clip3"><rect x="449" y="357" width="3767" height="1902"/></clipPath><clipPath id="clip4"><rect x="449" y="357" width="3767" height="1902"/></clipPath><clipPath id="clip5"><rect x="1.38928" y="1.38922" width="2466.67" height="1383.67"/></clipPath><clipPath id="clip6"><path d="M1515.5 502.5 1515.5 683.786 1763.63 683.786 1763.63 711.75 1728.75 711.75 1798.5 781.5 1868.25 711.75 1833.37 711.75 1833.37 683.786 2081.5 683.786 2081.5 502.5ZM449 357 4216 357 4216 2259 449 2259Z" fill-rule="evenodd" clip-rule="evenodd"/></clipPath><clipPath id="clip7"><rect x="1.38953" y="1.38947" width="607.666" height="321.702"/></clipPath></defs><g clip-path="url(#clip3)" transform="translate(-449 -357)"><g clip-path="url(#clip4)"><rect x="451" y="359" width="3762" height="1900" fill="#FFFFFF" fill-opacity="1"/><g clip-path="url(#clip5)" filter="url(#fx0)" transform="translate(1363 623)"><g><g><path d="M19.7227 244.227C19.7227 120.236 120.236 19.7225 244.227 19.7225L2225.22 19.7225C2349.21 19.7225 2449.72 120.236 2449.72 244.227L2449.72 1142.22C2449.72 1266.21 2349.21 1366.72 2225.22 1366.72L244.227 1366.72C120.236 1366.72 19.7227 1266.21 19.7227 1142.22Z" fill="#F2F2F2" fill-rule="evenodd" fill-opacity="1"/></g></g></g><path d="M1373 857.504C1373 733.514 1473.51 633 1597.5 633L3578.5 633C3702.49 633 3803 733.514 3803 857.504L3803 1755.5C3803 1879.49 3702.49 1980 3578.5 1980L1597.5 1980C1473.51 1980 1373 1879.49 1373 1755.5Z" fill="#F2F2F2" fill-rule="evenodd" fill-opacity="1"/><path d="M1519.8 754.5 3645.5 754.5 3645.5 1868.5 1519.8 1868.5 1519.8 1736.24 1136.5 1736.24 1136.5 1626.8 1519.8 1626.8Z" stroke="#000000" stroke-width="6.875" stroke-linecap="butt" stroke-linejoin="miter" stroke-miterlimit="8" stroke-dasharray="27.5 20.625" stroke-opacity="1" fill="#90FF99" fill-rule="evenodd" fill-opacity="1"/><path d="M1950.5 983 1853 1042.22 1853 1151.78 1950.5 1211 2048 1151.78 2048 1042.22ZM2039.6 1043.84 1998.53 1068.78 1909.43 1014.66 1950.5 989.722ZM1950.5 1097.95 1861.4 1043.84 1903.9 1018.02 1993 1072.14ZM1858.74 1048.94 1947.63 1102.93 1947.63 1202.54 1858.74 1148.55ZM1953.37 1202.54 1953.37 1102.93 2042.27 1048.94 2042.27 1148.55Z" fill="#000000" fill-rule="evenodd" fill-opacity="1"/><path d="M1967.81 1107.69 1965 1109.36 1965 1134 1973.75 1128.83 1988.2 1120.3 1991 1118.64 1991 1094 1982.25 1099.17ZM1985.22 1115.42 1970.78 1123.95 1970.78 1112.57 1985.22 1104.04Z" fill="#000000" fill-rule="evenodd" fill-opacity="1"/><path d="M1610 958.169C1610 898.429 1658.43 850 1718.17 850L2897.83 850C2957.57 850 3006 898.429 3006 958.169L3006 1390.83C3006 1450.57 2957.57 1499 2897.83 1499L1718.17 1499C1658.43 1499 1610 1450.57 1610 1390.83Z" stroke="#326CE5" stroke-width="8.02083" stroke-linecap="butt" stroke-linejoin="miter" stroke-miterlimit="8" stroke-opacity="1" fill="none" fill-rule="evenodd"/><g><g><g><path d="M140.875 24.9003 43.125 84.1425 43.125 193.758 140.875 253 238.625 193.758 238.625 84.1425ZM230.204 85.764 189.031 110.716 99.702 56.5771 140.875 31.625ZM140.875 139.9 51.5458 85.764 94.1561 59.9379 183.485 114.077ZM48.8749 90.8643 138 144.883 138 244.533 48.8749 190.517ZM143.75 244.533 143.75 144.883 232.875 90.8643 232.875 190.517Z" fill="#000000" fill-rule="nonzero" fill-opacity="1" transform="matrix(1 0 0 1 2535 958)"/><path d="M158.041 149.83 155.25 151.512 155.25 176.424 163.958 171.2 178.333 162.575 181.125 160.893 181.125 135.987 172.416 141.211ZM175.375 157.639 161 166.264 161 154.764 175.375 146.139Z" fill="#000000" fill-rule="nonzero" fill-opacity="1" transform="matrix(1 0 0 1 2535 958)"/></g></g></g><text fill="#000000" fill-opacity="1" font-family="Inter,Inter_MSFontService,sans-serif" font-style="normal" font-variant="normal" font-weight="400" font-stretch="normal" font-size="63" text-anchor="start" direction="ltr" writing-mode="lr-tb" unicode-bidi="normal" text-decoration="none" transform="matrix(1 0 0 1 2563.4 1348)">Node B</text><text fill="#000000" fill-opacity="1" font-family="Inter,Inter_MSFontService,sans-serif" font-style="normal" font-variant="normal" font-weight="400" font-stretch="normal" font-size="63" text-anchor="start" direction="ltr" writing-mode="lr-tb" unicode-bidi="normal" text-decoration="none" transform="matrix(1 0 0 1 1837.63 1348)">Node A</text><path d="M3080.5 1149.06 3320.85 1149.06 3320.85 1155.94 3080.5 1155.94ZM3316.27 1138.75 3343.77 1152.5 3316.27 1166.25Z" fill="#000000" fill-rule="nonzero" fill-opacity="1"/><path d="M2211.42 1137.06 2412.93 1137.06 2412.93 1143.94 2211.42 1143.94ZM2216 1154.25 2188.5 1140.5 2216 1126.75ZM2408.35 1126.75 2435.85 1140.5 2408.35 1154.25Z" fill="#000000" fill-rule="nonzero" fill-opacity="1"/><g><g><g><path d="M209.344 214.781 209.344 51.6562C209.344 35.7624 168.723 27.1875 130.5 27.1875 92.2771 27.1875 51.6562 35.7624 51.6562 51.6562L51.6562 214.781C51.6562 230.675 92.2771 239.25 130.5 239.25 168.723 239.25 209.344 230.675 209.344 214.781ZM130.5 32.625C172.513 32.625 203.906 42.6844 203.906 51.6562 203.906 60.6281 172.513 70.6875 130.5 70.6875 88.4871 70.6875 57.0937 60.6281 57.0937 51.6562 57.0937 42.6844 88.4871 32.625 130.5 32.625ZM57.0937 61.0631C69.4069 70.905 100.683 76.125 130.5 76.125 160.316 76.125 191.593 70.905 203.906 61.0631L203.906 106.031C203.906 115.003 172.513 125.062 130.5 125.062 88.4871 125.062 57.0937 115.003 57.0937 106.031ZM57.0937 115.438C69.4069 125.28 100.683 130.5 130.5 130.5 160.316 130.5 191.593 125.28 203.906 115.438L203.906 160.406C203.906 169.378 172.513 179.437 130.5 179.437 88.4871 179.437 57.0937 169.378 57.0937 160.406ZM57.0937 214.781 57.0937 169.813C69.4069 179.655 100.683 184.875 130.5 184.875 160.316 184.875 191.593 179.655 203.906 169.813L203.906 214.781C203.906 223.753 172.513 233.812 130.5 233.812 88.4871 233.812 57.0937 223.753 57.0937 214.781Z" fill="#000000" fill-rule="nonzero" fill-opacity="1" transform="matrix(1 0 0 1.02299 3346 969)"/><path d="M190.312 97.875C190.312 100.878 187.878 103.312 184.875 103.312 181.872 103.312 179.437 100.878 179.437 97.875 179.437 94.8719 181.872 92.4375 184.875 92.4375 187.878 92.4375 190.312 94.8719 190.312 97.875Z" fill="#000000" fill-rule="nonzero" fill-opacity="1" transform="matrix(1 0 0 1.02299 3346 969)"/><path d="M190.312 152.25C190.312 155.253 187.878 157.687 184.875 157.687 181.872 157.687 179.437 155.253 179.437 152.25 179.437 149.247 181.872 146.812 184.875 146.812 187.878 146.812 190.312 149.247 190.312 152.25Z" fill="#000000" fill-rule="nonzero" fill-opacity="1" transform="matrix(1 0 0 1.02299 3346 969)"/><path d="M190.312 206.625C190.312 209.628 187.878 212.062 184.875 212.062 181.872 212.062 179.437 209.628 179.437 206.625 179.437 203.622 181.872 201.187 184.875 201.187 187.878 201.187 190.312 203.622 190.312 206.625Z" fill="#000000" fill-rule="nonzero" fill-opacity="1" transform="matrix(1 0 0 1.02299 3346 969)"/></g></g></g><text fill="#000000" fill-opacity="1" font-family="Inter,Inter_MSFontService,sans-serif" font-style="normal" font-variant="normal" font-weight="400" font-stretch="normal" font-size="63" text-anchor="start" direction="ltr" writing-mode="lr-tb" unicode-bidi="normal" text-decoration="none" transform="matrix(1 0 0 1 3359.24 1291)">Storage</text><g><g><g><path d="M168.354 147.406C184.035 153.247 196.078 159.485 204.002 166.221 208.463 169.797 211.153 175.132 211.375 180.845L216.261 219.846C216.661 222.864 215.348 225.852 212.854 227.598 208.896 230.205 204.671 232.381 200.25 234.089L200.25 240.083C205.781 238.08 211.056 235.431 215.967 232.192 220.178 229.277 222.412 224.256 221.76 219.176L216.937 180.581C216.605 173.34 213.218 166.58 207.617 161.98 200.149 155.942 191.856 151.002 182.989 147.312 183.064 139.605 183.496 94.6486 183.573 76.8153 183.666 72.0671 183.11 67.3287 181.921 62.731 178.1 48.6145 168.443 36.7959 155.372 30.2377 153.239 29.1867 150.701 29.4008 148.774 30.794L148.463 31.0165 147.231 29.2949C145.937 27.4442 143.965 26.1789 141.743 25.7738 127.089 23.2048 112.055 27.3566 100.795 37.0824 89.5979 46.9277 83.3089 61.2075 83.6043 76.1144L84.0493 147.314C75.1741 151.006 66.8729 155.949 59.3991 161.994 53.7971 166.594 50.409 173.354 50.0764 180.595L45.2592 219.21C44.6223 224.279 46.8573 229.282 51.0581 232.19 55.9609 235.427 61.2278 238.075 66.7499 240.08L66.7499 234.084C62.3417 232.374 58.1281 230.199 54.1815 227.595 51.6967 225.856 50.3831 222.882 50.7717 219.874L55.6249 181.132 55.6472 180.853C55.8666 175.142 58.5525 169.807 63.0092 166.23 71.0609 159.365 82.553 153.327 98.6453 147.406 106.177 152.582 119.316 155.75 133.5 155.75 147.684 155.75 160.823 152.582 168.354 147.406ZM96.3424 142.347C93.997 143.211 91.7486 144.08 89.5979 144.953L89.1668 76.0782C88.8817 62.8122 94.4553 50.0944 104.402 41.3126 114.396 32.6671 127.749 28.975 140.764 31.2584 141.549 31.4195 142.241 31.8778 142.695 32.5378L145.54 36.515C146.432 37.7618 148.165 38.0519 149.414 37.163L151.987 35.3302C152.242 35.1366 152.582 35.0941 152.877 35.2189 164.529 41.0712 173.136 51.6119 176.54 64.1995 177.597 68.3105 178.088 72.5463 178 76.7902 177.928 93.2886 177.552 133.044 177.444 144.967 175.347 144.118 173.162 143.272 170.891 142.43L161.991 138.779C159.9 137.925 158.533 135.892 158.531 133.633L158.531 124.35C167.345 116.967 172.438 106.06 172.437 94.5624L172.437 80.6562C172.437 76.0479 168.702 72.3124 164.094 72.3124L102.906 72.3124C98.2979 72.3124 94.5624 76.0479 94.5624 80.6562L94.5624 94.5624C94.5638 106.047 99.6468 116.942 108.446 124.322L108.446 133.622C108.454 135.883 107.093 137.923 105.003 138.784ZM100.125 94.5624 100.125 80.6562C100.125 79.1201 101.37 77.8749 102.906 77.8749L164.094 77.8749C165.63 77.8749 166.875 79.1201 166.875 80.6562L166.875 94.5624C166.875 112.995 151.932 127.937 133.5 127.937 115.067 127.937 100.125 112.995 100.125 94.5624ZM133.5 150.187C123.776 150.411 114.117 148.544 105.176 144.714L107.123 143.918C111.305 142.215 114.037 138.146 114.031 133.631L114.031 128.215C126.056 135.245 140.936 135.253 152.969 128.235L152.969 133.631C152.961 138.145 155.689 142.215 159.869 143.921L161.816 144.719C152.877 148.548 143.221 150.413 133.5 150.187Z" fill="#000000" fill-rule="nonzero" fill-opacity="1" transform="matrix(1 0 0 1 866 1545)"/><path d="M194.687 182.283C194.672 176.83 190.239 172.422 184.786 172.437 184.781 172.437 184.775 172.437 184.769 172.437L82.1692 172.437C76.7299 172.437 72.3186 176.844 72.3124 182.283L72.3124 245.278 52.8437 245.278 52.8437 251.603C52.8801 257.028 57.2753 261.413 62.7004 261.437L204.333 261.437C209.749 261.395 214.126 257.008 214.156 251.592L214.156 245.278 194.687 245.278ZM208.594 250.841 208.594 251.581C208.579 253.937 206.678 255.847 204.322 255.875L62.7116 255.875C60.3456 255.867 58.4259 253.958 58.4062 251.592L58.4062 250.841 77.8749 250.841 77.8749 182.283C77.878 179.914 79.8007 177.997 82.1692 178L184.853 178C187.213 178.009 189.122 179.923 189.125 182.283L189.125 250.841Z" fill="#000000" fill-rule="nonzero" fill-opacity="1" transform="matrix(1 0 0 1 866 1545)"/><path d="M124.338 231.344 129.484 233.486 142.5 202.002 137.382 199.86 124.338 231.344Z" fill="#000000" fill-rule="nonzero" fill-opacity="1" transform="matrix(1 0 0 1 866 1545)"/><path d="M115.188 200.333 99.5853 215.936 115.188 231.539 119.11 227.617 107.456 215.936 119.11 204.255 115.188 200.333Z" fill="#000000" fill-rule="nonzero" fill-opacity="1" transform="matrix(1 0 0 1 866 1545)"/><path d="M147.812 204.255 159.466 215.936 147.812 227.617 151.734 231.539 167.337 215.936 151.734 200.333 147.812 204.255Z" fill="#000000" fill-rule="nonzero" fill-opacity="1" transform="matrix(1 0 0 1 866 1545)"/></g></g></g><text fill="#000000" fill-opacity="1" font-family="Inter,Inter_MSFontService,sans-serif" font-style="normal" font-variant="normal" font-weight="400" font-stretch="normal" font-size="63" text-anchor="start" direction="ltr" writing-mode="lr-tb" unicode-bidi="normal" text-decoration="none" transform="matrix(1 0 0 1 881.438 1917)">DevOps</text><text fill="#000000" fill-opacity="1" font-family="Inter,Inter_MSFontService,sans-serif" font-style="normal" font-variant="normal" font-weight="400" font-stretch="normal" font-size="63" text-anchor="start" direction="ltr" writing-mode="lr-tb" unicode-bidi="normal" text-decoration="none" transform="matrix(1 0 0 1 869.407 1993)">engineer</text><text fill="#000000" fill-opacity="1" font-family="Inter,Inter_MSFontService,sans-serif" font-style="normal" font-variant="normal" font-weight="400" font-stretch="normal" font-size="63" text-anchor="start" direction="ltr" writing-mode="lr-tb" unicode-bidi="normal" text-decoration="none" transform="matrix(1 0 0 1 2501.22 2108)">Cloud</text><g><g><g><path d="M185.881 174.963C185.493 174.886 185.096 174.855 184.699 174.873 184.014 174.909 183.343 175.083 182.727 175.385 180.244 176.584 179.144 179.526 180.233 182.06L180.197 182.111 191.995 210.615C203.283 203.413 211.848 192.654 216.337 180.038L185.934 174.899ZM138.575 179.003C138.049 176.69 136.01 175.036 133.639 174.999 133.298 174.995 132.959 175.025 132.624 175.089L132.573 175.027 102.434 180.143C106.96 192.659 115.49 203.331 126.7 210.505L138.38 182.282 138.288 182.171C138.72 181.172 138.82 180.063 138.575 179.003ZM163.816 190.071C162.473 187.568 159.356 186.627 156.852 187.969 155.957 188.449 155.224 189.185 154.745 190.082L154.72 190.082 139.899 216.882C150.511 220.496 161.92 221.083 172.846 218.577 174.873 218.117 176.852 217.563 178.784 216.917L163.928 190.069ZM210.736 127.814 187.932 148.225 187.944 148.29C185.801 150.163 185.583 153.418 187.456 155.561 188.12 156.321 188.992 156.869 189.964 157.137L189.992 157.26 219.529 165.768C220.806 152.498 217.718 139.174 210.736 127.817ZM168.369 130.101C168.501 132.944 170.912 135.143 173.755 135.011 174.762 134.965 175.735 134.624 176.55 134.03L176.64 134.067 201.592 116.375C192.093 107.072 179.802 101.147 166.608 99.5109L168.342 130.093ZM141.945 134.142C144.244 135.814 147.462 135.305 149.133 133.006 149.73 132.187 150.07 131.211 150.113 130.199L150.24 130.14 151.974 99.5095C149.881 99.761 147.803 100.119 145.747 100.583 134.809 103.042 124.776 108.509 116.781 116.367L141.897 134.171ZM128.556 157.286C131.298 156.538 132.914 153.709 132.166 150.967 131.899 149.986 131.346 149.106 130.578 148.438L130.603 148.316 107.673 127.807C100.678 139.193 97.6756 152.584 99.1401 165.867L128.532 157.386ZM150.827 166.296 159.285 170.363 167.719 166.304 169.814 157.199 163.977 149.9 154.583 149.9 148.73 157.188Z" fill="#326CE5" fill-rule="nonzero" fill-opacity="1" transform="matrix(1.00094 0 0 1 2152.42 1523.89)"/><path d="M299.119 184.234 275.016 79.539C273.703 74.0544 270.001 69.4476 264.927 66.9867L167.362 20.4049C162.241 17.961 156.29 17.961 151.169 20.4049L53.6236 67.0116C48.5482 69.4708 44.8439 74.0776 43.5312 79.5625L19.4669 184.255C18.8734 186.901 18.8715 189.646 19.4614 192.293 19.6352 193.099 19.8621 193.893 20.1407 194.669 20.6116 195.995 21.2352 197.261 21.9987 198.441 22.3293 198.946 22.678 199.437 23.0571 199.913L90.5764 283.859C90.871 284.225 91.1962 284.558 91.5185 284.897 92.578 286.025 93.7743 287.017 95.0796 287.848 96.7305 288.887 98.5297 289.67 100.416 290.168 101.962 290.591 103.557 290.811 105.161 290.823L106.211 290.823 213.436 290.798C214.088 290.795 214.739 290.756 215.387 290.683 216.317 290.578 217.235 290.403 218.139 290.16 218.786 289.99 219.424 289.785 220.049 289.548 220.538 289.362 221.025 289.175 221.495 288.949 222.199 288.612 222.883 288.233 223.541 287.812 225.24 286.744 226.752 285.405 228.019 283.848L230.078 281.289 295.515 199.885C296.77 198.312 297.755 196.543 298.432 194.649 298.714 193.87 298.945 193.073 299.123 192.263 299.714 189.617 299.713 186.872 299.118 184.225ZM197.922 224.952C198.196 225.757 198.521 226.545 198.894 227.308 198.298 228.353 198.135 229.59 198.442 230.753 199.862 234.004 201.595 237.109 203.619 240.023 204.752 241.513 205.797 243.066 206.75 244.677 206.985 245.112 207.292 245.787 207.515 246.248 209.178 249.028 208.273 252.63 205.494 254.293 202.713 255.957 199.112 255.053 197.447 252.272 197.251 251.944 197.088 251.598 196.959 251.238 196.736 250.782 196.426 250.173 196.237 249.741 195.57 247.991 195.004 246.205 194.542 244.39 193.529 240.995 192.187 237.707 190.535 234.572 189.817 233.602 188.747 232.953 187.555 232.763 187.369 232.441 186.677 231.172 186.306 230.518 168.938 237.095 149.756 237.047 132.422 230.38L131.101 232.773C130.158 232.92 129.281 233.347 128.585 234 126.594 237.268 125.072 240.799 124.063 244.49 123.606 246.305 123.043 248.091 122.378 249.841 122.192 250.27 121.879 250.87 121.656 251.326L121.656 251.338 121.647 251.349C120.558 254.398 117.203 255.988 114.153 254.899 111.103 253.81 109.514 250.455 110.603 247.405 110.735 247.037 110.903 246.681 111.106 246.346 111.326 245.883 111.62 245.212 111.853 244.776 112.805 243.162 113.85 241.604 114.982 240.11 117.042 237.119 118.812 233.938 120.267 230.611 120.422 229.483 120.241 228.334 119.747 227.308L120.81 224.763C104.829 215.332 92.8522 200.378 87.1384 182.723L84.5942 183.156C83.6071 182.456 82.4433 182.045 81.2351 181.973 77.7537 182.64 74.3454 183.643 71.0583 184.968 69.3514 185.736 67.6022 186.406 65.819 186.974 65.3971 187.091 64.7883 187.207 64.3069 187.312 64.2681 187.326 64.2349 187.342 64.1962 187.352 64.1665 187.356 64.1364 187.359 64.1063 187.36 61.0318 188.372 57.7194 186.699 56.7081 183.625 55.6969 180.55 57.3694 177.238 60.4441 176.226 60.7921 176.111 61.1503 176.03 61.5136 175.983L61.598 175.962 61.6492 175.948C62.1376 175.833 62.7629 175.671 63.2084 175.586 65.0658 175.328 66.9367 175.177 68.8115 175.135 72.3472 174.904 75.852 174.328 79.2761 173.416 80.2909 172.77 81.1484 171.906 81.7857 170.885L84.2304 170.171C81.5777 151.744 85.8209 132.988 96.1463 117.497L94.2744 115.829C94.2062 114.618 93.7997 113.45 93.1012 112.459 90.412 110.147 87.5035 108.104 84.4171 106.358 82.7506 105.508 81.1343 104.563 79.5763 103.527 79.2222 103.263 78.7518 102.866 78.3672 102.553L78.28 102.492C75.5153 100.506 74.8736 96.6602 76.844 93.8843 77.9781 92.4958 79.7062 91.7313 81.4966 91.8257 82.9826 91.8894 84.4091 92.4276 85.5668 93.3613 85.9639 93.6726 86.5076 94.089 86.8603 94.392 88.2196 95.6775 89.5038 97.0403 90.7064 98.4733 93.0928 101.095 95.7293 103.478 98.5784 105.587 99.646 106.149 100.891 106.269 102.047 105.923 102.742 106.431 103.444 106.93 104.152 107.42 114.413 96.514 127.699 88.9235 142.305 85.6235 145.781 84.8362 149.308 84.294 152.861 84.0007L152.999 81.5326C153.907 80.7267 154.564 79.6783 154.894 78.511 155.022 74.9687 154.804 71.4221 154.244 67.9219 153.873 66.0875 153.606 64.2334 153.447 62.3686 153.432 61.9439 153.455 61.3573 153.461 60.8731 153.461 60.8177 153.447 60.7624 153.447 60.7098 153.119 57.4852 155.468 54.6056 158.693 54.2783 161.918 53.9508 164.797 56.2994 165.125 59.524 165.164 59.9164 165.165 60.3118 165.125 60.7043 165.125 61.2162 165.156 61.8941 165.138 62.3645 164.977 64.229 164.71 66.0827 164.337 67.9164 163.773 71.4173 163.552 74.9645 163.675 78.5083 163.906 79.693 164.591 80.7405 165.583 81.4274 165.604 81.8494 165.673 83.2578 165.724 84.0339 184.183 85.7126 201.404 94.0338 214.19 107.452L216.412 105.865C217.606 106.07 218.832 105.937 219.954 105.481 222.802 103.367 225.439 100.982 227.826 98.3584 229.031 96.9246 230.319 95.5619 231.682 94.2772 232.04 93.97 232.581 93.5578 232.976 93.2451 235.284 90.9694 239 90.9957 241.276 93.3036 243.552 95.6115 243.526 99.3274 241.218 101.603 240.923 101.893 240.599 102.151 240.251 102.373 239.859 102.69 239.342 103.131 238.966 103.411 237.404 104.447 235.784 105.392 234.114 106.242 231.029 107.989 228.119 110.032 225.43 112.343 224.647 113.259 224.254 114.446 224.334 115.649 224.009 115.948 222.867 116.959 222.263 117.507 232.617 132.942 236.946 151.64 234.426 170.056L236.784 170.742C237.373 171.802 238.245 172.679 239.302 173.274 242.727 174.187 246.234 174.764 249.772 174.998 251.645 175.041 253.514 175.19 255.369 175.446 255.861 175.536 256.57 175.732 257.071 175.847 260.281 176.269 262.54 179.212 262.118 182.421 261.696 185.63 258.752 187.89 255.544 187.468 255.18 187.42 254.822 187.338 254.473 187.223L254.389 187.212C254.35 187.203 254.314 187.182 254.274 187.171 253.792 187.067 253.188 186.962 252.766 186.851 250.982 186.279 249.234 185.603 247.529 184.829 244.239 183.502 240.828 182.499 237.343 181.833 236.136 181.795 234.963 182.23 234.075 183.047 233.245 182.889 232.413 182.744 231.579 182.61 225.933 200.373 213.955 215.444 197.922 224.951Z" fill="#326CE5" fill-rule="nonzero" fill-opacity="1" transform="matrix(1.00094 0 0 1 2152.42 1523.89)"/><path d="M311.846 186.918 285.55 72.6977C284.118 66.7127 280.077 61.6857 274.54 59.0012L168.102 8.18604C162.515 5.51928 156.022 5.51928 150.434 8.18604L44.0057 59.0317C38.4685 61.7137 34.4261 66.7381 32.9918 72.7212L6.74169 186.948C5.54556 192.268 6.5403 197.844 9.50173 202.422 9.86282 202.976 10.246 203.513 10.6611 204.03L84.3258 295.623C88.2347 300.395 94.0661 303.177 100.234 303.214L218.366 303.187C224.533 303.152 230.363 300.373 234.276 295.605L307.914 204.004C311.734 199.193 313.178 192.918 311.846 186.922ZM299.122 192.266C298.945 193.076 298.715 193.871 298.433 194.65 297.755 196.545 296.769 198.315 295.514 199.888L230.077 281.289 228.021 283.851C226.752 285.408 225.239 286.747 223.538 287.815 222.883 288.235 222.201 288.614 221.499 288.952 221.026 289.171 220.545 289.368 220.053 289.547 219.427 289.785 218.788 289.991 218.14 290.163 217.237 290.406 216.318 290.582 215.388 290.687 214.741 290.76 214.089 290.798 213.438 290.8L106.212 290.825 105.161 290.825C103.558 290.816 101.963 290.596 100.417 290.172 98.5319 289.673 96.7337 288.89 95.0837 287.849 93.7775 287.018 92.5802 286.027 91.5199 284.9 91.1975 284.56 90.8724 284.226 90.5791 283.862L23.0584 199.914C22.6821 199.44 22.3293 198.948 22.0001 198.439 21.2365 197.258 20.613 195.993 20.1421 194.668 19.8633 193.89 19.6364 193.096 19.4628 192.29 18.8731 189.643 18.8749 186.898 19.4683 184.253L43.5326 79.5583C44.846 74.0744 48.5503 69.4689 53.625 67.0102L151.171 20.4077C156.293 17.9638 162.243 17.9638 167.365 20.4077L264.927 66.9894C270.001 69.4504 273.703 74.0572 275.016 79.5417L299.119 184.235C299.713 186.88 299.714 189.624 299.122 192.269Z" fill="#FFFFFF" fill-rule="nonzero" fill-opacity="1" transform="matrix(1.00094 0 0 1 2152.42 1523.89)"/><path d="M257.07 175.848C256.572 175.734 255.861 175.537 255.372 175.447 253.517 175.191 251.648 175.041 249.775 174.996 246.236 174.765 242.729 174.19 239.302 173.278 238.245 172.682 237.373 171.805 236.784 170.743L234.426 170.057C236.947 151.643 232.62 132.944 222.266 117.509 222.869 116.961 224.012 115.949 224.334 115.652 224.254 114.449 224.647 113.262 225.43 112.345 228.119 110.035 231.029 107.991 234.114 106.244 235.784 105.395 237.404 104.45 238.966 103.414 239.342 103.134 239.857 102.691 240.251 102.376 242.985 100.634 243.788 97.0062 242.047 94.2729 240.303 91.5395 236.676 90.7359 233.942 92.4778 233.595 92.699 233.273 92.9562 232.979 93.2451 232.581 93.5592 232.038 93.9714 231.684 94.2786 230.32 95.5633 229.032 96.9258 227.826 98.3598 225.439 100.983 222.802 103.369 219.954 105.482 218.832 105.938 217.606 106.071 216.412 105.867L214.19 107.453C201.404 94.0352 184.183 85.714 165.724 84.0353 165.67 83.2591 165.604 81.8535 165.583 81.4288 164.591 80.7414 163.908 79.6939 163.678 78.5097 163.555 74.9659 163.776 71.4186 164.339 67.9177 164.711 66.0845 164.977 64.2312 165.135 62.3672 165.153 61.8969 165.125 61.2134 165.125 60.7057 165.449 57.4808 163.098 54.6034 159.873 54.2791 156.649 53.9547 153.771 56.3061 153.447 59.531 153.407 59.9235 153.407 60.3189 153.447 60.7112 153.447 60.7665 153.46 60.8191 153.461 60.8745 153.455 61.3587 153.432 61.9453 153.447 62.3686 153.606 64.2338 153.873 66.0884 154.244 67.9233 154.804 71.4235 155.022 74.97 154.894 78.5124 154.562 79.6787 153.905 80.726 152.999 81.5312L152.861 84.0021C149.308 84.2954 145.781 84.8376 142.305 85.6249 127.701 88.9253 114.416 96.5152 104.157 107.42 103.446 106.93 102.743 106.431 102.045 105.923 100.89 106.269 99.6456 106.148 98.5784 105.587 95.7293 103.478 93.0928 101.096 90.7064 98.4747 89.505 97.0418 88.2224 95.6791 86.8645 94.3934 86.5089 94.089 85.9652 93.674 85.5668 93.3558 84.4091 92.4221 82.9826 91.8839 81.4966 91.8201 79.7058 91.7263 77.9776 92.4921 76.844 93.8815 74.8736 96.6575 75.5153 100.504 78.28 102.49L78.3699 102.553C78.7518 102.866 79.2222 103.266 79.5763 103.524 81.1343 104.561 82.7506 105.507 84.4171 106.358 87.5033 108.105 90.4112 110.149 93.0998 112.462 93.7982 113.452 94.2051 114.619 94.2744 115.829L96.1435 117.5C85.8191 132.991 81.5768 151.748 84.2304 170.173L81.7857 170.885C81.1478 171.903 80.2905 172.767 79.2761 173.412 75.8519 174.327 72.3465 174.904 68.8101 175.137 66.9358 175.18 65.0654 175.331 63.2084 175.588 62.7601 175.671 62.1376 175.829 61.6492 175.951L61.598 175.962 61.515 175.987C58.306 176.409 56.0465 179.351 56.4684 182.561 56.8903 185.769 59.8337 188.03 63.0426 187.608 63.405 187.56 63.7619 187.478 64.109 187.365L64.1962 187.351C64.2349 187.342 64.2681 187.323 64.3069 187.316 64.7883 187.205 65.3943 187.091 65.8176 186.976 67.6002 186.407 69.3491 185.736 71.0555 184.968 74.3436 183.643 77.7529 182.639 81.2351 181.973 82.4428 182.046 83.6054 182.457 84.5914 183.159L87.137 182.723C92.8515 200.378 104.829 215.332 120.811 224.763L119.747 227.308C120.242 228.334 120.423 229.483 120.269 230.611 118.813 233.937 117.044 237.117 114.984 240.107 113.851 241.6 112.806 243.158 111.853 244.772 111.62 245.212 111.326 245.886 111.103 246.346 109.435 249.122 110.334 252.724 113.109 254.391 115.885 256.06 119.487 255.161 121.155 252.385 121.352 252.057 121.517 251.71 121.647 251.349L121.656 251.338 121.656 251.324C121.878 250.868 122.192 250.269 122.378 249.841 123.043 248.091 123.606 246.305 124.063 244.49 125.072 240.799 126.594 237.268 128.585 234 129.281 233.347 130.158 232.918 131.101 232.772L132.425 230.378C149.759 237.044 168.939 237.092 186.306 230.515 186.677 231.177 187.369 232.441 187.551 232.761 188.744 232.952 189.815 233.602 190.533 234.573 192.186 237.707 193.528 240.995 194.542 244.39 195.004 246.205 195.57 247.991 196.237 249.741 196.426 250.173 196.735 250.779 196.959 251.238 198.052 254.289 201.41 255.874 204.46 254.783 207.509 253.69 209.096 250.332 208.003 247.282 207.875 246.922 207.711 246.576 207.515 246.248 207.292 245.787 206.985 245.114 206.754 244.677 205.801 243.066 204.756 241.513 203.623 240.023 201.599 237.109 199.866 234.004 198.446 230.753 198.138 229.591 198.3 228.353 198.894 227.308 198.521 226.545 198.196 225.757 197.922 224.952 213.955 215.445 225.933 200.375 231.579 182.611 232.335 182.731 233.65 182.961 234.078 183.048 234.966 182.233 236.138 181.797 237.343 181.835 240.826 182.5 244.237 183.503 247.525 184.83 249.231 185.605 250.981 186.28 252.766 186.853 253.188 186.963 253.79 187.068 254.274 187.175 254.314 187.186 254.35 187.203 254.389 187.214L254.472 187.226C257.547 188.235 260.858 186.561 261.868 183.485 262.876 180.41 261.202 177.099 258.127 176.089 257.782 175.977 257.428 175.896 257.07 175.848ZM201.592 116.377 176.638 134.067 176.551 134.026C174.253 135.702 171.031 135.198 169.354 132.9 168.76 132.083 168.416 131.109 168.371 130.1L168.343 130.086 166.61 99.5067C179.804 101.145 192.095 107.072 201.591 116.377ZM154.584 149.896 163.975 149.896 169.814 157.195 167.721 166.298 159.287 170.357 150.828 166.29 148.731 157.183ZM145.75 100.578C147.807 100.115 149.886 99.7571 151.979 99.5067L150.243 130.133 150.116 130.194C149.995 133.034 147.596 135.238 144.756 135.118 143.745 135.076 142.767 134.735 141.948 134.139L141.899 134.167 116.784 116.359C124.779 108.501 134.812 103.035 145.75 100.578ZM107.676 127.804 130.606 148.313 130.581 148.438C132.725 150.304 132.951 153.554 131.085 155.698 130.418 156.465 129.539 157.017 128.558 157.285L128.535 157.385 99.1429 165.865C97.6783 152.583 100.681 139.192 107.676 127.806ZM138.377 182.286 126.699 210.505C115.49 203.33 106.962 192.656 102.438 180.14L132.575 175.021 132.626 175.089C132.959 175.025 133.297 174.995 133.636 174.999 136.478 175.041 138.748 177.38 138.705 180.222 138.695 180.893 138.554 181.555 138.29 182.172ZM172.848 218.574C161.921 221.08 150.513 220.495 139.9 216.882L154.721 190.082 154.746 190.082C156.095 187.575 159.22 186.637 161.726 187.986 162.613 188.463 163.339 189.188 163.818 190.073L163.928 190.073 178.787 216.918C176.858 217.562 174.879 218.115 172.848 218.577ZM191.996 210.618 180.198 182.111 180.234 182.06C179.147 179.527 180.247 176.587 182.729 175.388 183.344 175.086 184.015 174.912 184.7 174.876 185.096 174.858 185.494 174.887 185.883 174.963L185.934 174.899 216.339 180.038C211.851 192.655 203.286 203.416 191.996 210.619ZM219.532 165.766 189.992 157.257 189.964 157.133C187.221 156.375 185.61 153.537 186.368 150.794 186.637 149.821 187.185 148.95 187.944 148.285L187.933 148.226 210.736 127.818C217.718 139.174 220.806 152.498 219.53 165.767Z" fill="#FFFFFF" fill-rule="nonzero" fill-opacity="1" transform="matrix(1.00094 0 0 1 2152.42 1523.89)"/></g></g></g><g clip-path="url(#clip6)"><g clip-path="url(#clip7)" filter="url(#fx1)" transform="translate(1503 490)"><g><g><path d="M22.2228 22.2228 588.223 22.2228 588.223 203.508 340.098 203.508 340.098 231.473 374.972 231.473 305.223 301.223 235.473 231.473 270.348 231.473 270.348 203.508 22.2228 203.508Z" stroke="#000000" stroke-width="5" stroke-linecap="butt" stroke-linejoin="miter" stroke-miterlimit="8" stroke-opacity="1" fill="#000000" fill-rule="evenodd" fill-opacity="1"/></g></g></g><g filter="url(#fx2)" transform="translate(1581 493)"><g><g><path d="M40.3977-30 35.1136-30C34.8011-31.5199 34.2578-32.8551 33.4837-34.0057 32.7095-35.1562 31.772-36.1257 30.6712-36.9141 29.5703-37.7024 28.3523-38.2955 27.017-38.6932 25.6818-39.0909 24.2898-39.2898 22.8409-39.2898 20.1989-39.2898 17.8089-38.6222 15.6712-37.2869 13.5334-35.9517 11.8359-33.9844 10.5788-31.3849 9.32173-28.7855 8.69318-25.5966 8.69318-21.8182 8.69318-18.0398 9.32173-14.8508 10.5788-12.2514 11.8359-9.65199 13.5334-7.68466 15.6712-6.34943 17.8089-5.0142 20.1989-4.34659 22.8409-4.34659 24.2898-4.34659 25.6818-4.54545 27.017-4.94318 28.3523-5.34091 29.5703-5.93395 30.6712-6.7223 31.772-7.51065 32.7095-8.48366 33.4837-9.64133 34.2578-10.799 34.8011-12.1307 35.1136-13.6364L40.3977-13.6364C40-11.4062 39.2756-9.41051 38.2244-7.64915 37.1733-5.88778 35.8665-4.39276 34.304-3.16406 32.7415-1.93537 30.9908-1.00142 29.0518-0.362216 27.1129 0.276989 25.0426 0.596591 22.8409 0.596591 19.1193 0.596591 15.8097-0.3125 12.9119-2.13068 10.0142-3.94886 7.73437-6.53409 6.07244-9.88636 4.41051-13.2386 3.57955-17.2159 3.57955-21.8182 3.57955-26.4205 4.41051-30.3977 6.07244-33.75 7.73437-37.1023 10.0142-39.6875 12.9119-41.5057 15.8097-43.3239 19.1193-44.2329 22.8409-44.233 25.0426-44.2329 27.1129-43.9133 29.0518-43.2741 30.9908-42.6349 32.7415-41.701 34.304-40.4723 35.8665-39.2436 37.1733-37.7521 38.2244-35.9979 39.2756-34.2436 40-32.2443 40.3977-30ZM61.4394 0.681818C58.4848 0.681818 55.8961-0.0213069 53.6731-1.42756 51.45-2.83381 49.7171-4.80114 48.4742-7.32955 47.2313-9.85795 46.6098-12.8125 46.6098-16.1932 46.6098-19.6023 47.2313-22.5781 48.4742-25.1207 49.7171-27.6633 51.45-29.6378 53.6731-31.044 55.8961-32.4503 58.4848-33.1534 61.4394-33.1534 64.3939-33.1534 66.9827-32.4503 69.2057-31.044 71.4287-29.6378 73.1617-27.6633 74.4046-25.1207 75.6475-22.5781 76.2689-19.6023 76.2689-16.1932 76.2689-12.8125 75.6475-9.85795 74.4046-7.32955 73.1617-4.80114 71.4287-2.83381 69.2057-1.42756 66.9827-0.0213069 64.3939 0.681818 61.4394 0.681818ZM61.4394-3.83523C63.6837-3.83523 65.5303-4.41051 66.9792-5.56108 68.428-6.71165 69.5005-8.22443 70.1965-10.0994 70.8925-11.9744 71.2405-14.0057 71.2405-16.1932 71.2405-18.3807 70.8925-20.419 70.1965-22.3082 69.5005-24.1974 68.428-25.7244 66.9792-26.8892 65.5303-28.054 63.6837-28.6364 61.4394-28.6364 59.1951-28.6364 57.3485-28.054 55.8996-26.8892 54.4508-25.7244 53.3783-24.1974 52.6823-22.3082 51.9863-20.419 51.6383-18.3807 51.6383-16.1932 51.6383-14.0057 51.9863-11.9744 52.6823-10.0994 53.3783-8.22443 54.4508-6.71165 55.8996-5.56108 57.3485-4.41051 59.1951-3.83523 61.4394-3.83523ZM88.6932-19.6875 88.6932 0 83.6648 0 83.6648-32.7273 88.5227-32.7273 88.5227-27.6136 88.9489-27.6136C89.7159-29.2756 90.8807-30.6143 92.4432-31.63 94.0057-32.6456 96.0227-33.1534 98.4943-33.1534 100.71-33.1534 102.649-32.7024 104.311-31.8004 105.973-30.8984 107.266-29.5348 108.189-27.7095 109.112-25.8842 109.574-23.5795 109.574-20.7955L109.574 0 104.545 0 104.545-20.4545C104.545-23.0256 103.878-25.032 102.543-26.4737 101.207-27.9155 99.375-28.6364 97.0455-28.6364 95.4403-28.6364 94.0092-28.2883 92.7521-27.5923 91.495-26.8963 90.5043-25.8807 89.7798-24.5455 89.0554-23.2102 88.6932-21.5909 88.6932-19.6875ZM133.187-32.7273 133.187-28.4659 115.545-28.4659 115.545-32.7273ZM120.829 0 120.829-37.2443C120.829-39.1193 121.269-40.6818 122.15-41.9318 123.03-43.1818 124.174-44.1193 125.58-44.7443 126.986-45.3693 128.471-45.6818 130.033-45.6818 131.269-45.6818 132.277-45.5824 133.059-45.3835 133.84-45.1847 134.422-45 134.806-44.8295L133.357-40.483C133.101-40.5682 132.75-40.6747 132.302-40.8026 131.855-40.9304 131.269-40.9943 130.545-40.9943 128.883-40.9943 127.686-40.5753 126.954-39.7372 126.223-38.8991 125.857-37.6704 125.857-36.0511L125.857 0ZM140.384 0 140.384-32.7273 145.412-32.7273 145.412 0ZM142.94-38.1818C141.96-38.1818 141.119-38.5156 140.415-39.1832 139.712-39.8508 139.361-40.6534 139.361-41.5909 139.361-42.5284 139.712-43.331 140.415-43.9986 141.119-44.6662 141.96-45 142.94-45 143.92-45 144.762-44.6662 145.465-43.9986 146.168-43.331 146.52-42.5284 146.52-41.5909 146.52-40.6534 146.168-39.8508 145.465-39.1832 144.762-38.5156 143.92-38.1818 142.94-38.1818ZM167.064 0.681818C164.337 0.681818 161.929-0.0106535 159.841-1.3956 157.753-2.78054 156.12-4.74077 154.941-7.27628 153.762-9.81179 153.172-12.8125 153.172-16.2784 153.172-19.7159 153.762-22.6989 154.941-25.2273 156.12-27.7557 157.76-29.7088 159.863-31.0866 161.965-32.4645 164.394-33.1534 167.15-33.1534 169.28-33.1534 170.967-32.8018 172.21-32.0987 173.453-31.3956 174.405-30.6001 175.065-29.7124 175.726-28.8246 176.241-28.0966 176.61-27.5284L177.036-27.5284 177.036-43.6364 182.064-43.6364 182.064 0 177.206 0 177.206-5.02841 176.61-5.02841C176.241-4.43182 175.715-3.68253 175.033-2.78054 174.351-1.87855 173.378-1.07599 172.114-0.372869 170.85 0.330256 169.167 0.681818 167.064 0.681818ZM167.746-3.83523C169.763-3.83523 171.468-4.36435 172.86-5.42259 174.252-6.48082 175.31-7.95099 176.035-9.8331 176.759-11.7152 177.121-13.892 177.121-16.3636 177.121-18.8068 176.766-20.9482 176.056-22.7876 175.346-24.6271 174.295-26.0618 172.902-27.0916 171.51-28.1214 169.792-28.6364 167.746-28.6364 165.616-28.6364 163.844-28.093 162.43-27.0064 161.017-25.9197 159.959-24.4496 159.255-22.5959 158.552-20.7422 158.201-18.6648 158.201-16.3636 158.201-14.0341 158.559-11.9212 159.277-10.0249 159.994-8.12855 161.059-6.62287 162.473-5.50781 163.886-4.39276 165.644-3.83523 167.746-3.83523ZM205.668 0.681818C202.514 0.681818 199.798-0.0177557 197.518-1.4169 195.238-2.81605 193.484-4.77628 192.255-7.29758 191.026-9.81889 190.412-12.7557 190.412-16.108 190.412-19.4602 191.026-22.4183 192.255-24.9822 193.484-27.5462 195.202-29.549 197.411-30.9908 199.62-32.4325 202.202-33.1534 205.156-33.1534 206.861-33.1534 208.544-32.8693 210.206-32.3011 211.868-31.733 213.381-30.8132 214.744-29.5419 216.108-28.2706 217.195-26.5909 218.004-24.5028 218.814-22.4148 219.219-19.8437 219.219-16.7898L219.219-14.6591 193.991-14.6591 193.991-19.0057 214.105-19.0057C214.105-20.8523 213.739-22.5 213.008-23.9489 212.276-25.3977 211.239-26.5412 209.897-27.3793 208.555-28.2173 206.974-28.6364 205.156-28.6364 203.153-28.6364 201.424-28.1428 199.968-27.1555 198.512-26.1683 197.393-24.8864 196.612-23.3097 195.831-21.733 195.44-20.0426 195.44-18.2386L195.44-15.3409C195.44-12.8693 195.87-10.7777 196.729-9.06605 197.589-7.3544 198.785-6.05469 200.32-5.1669 201.854-4.27912 203.636-3.83523 205.668-3.83523 206.989-3.83523 208.185-4.02344 209.258-4.39986 210.33-4.77628 211.257-5.34446 212.038-6.1044 212.82-6.86435 213.423-7.8125 213.849-8.94886L218.707-7.58523C218.196-5.9375 217.337-4.49219 216.129-3.24929 214.922-2.00639 213.43-1.04048 211.655-0.351562 209.879 0.337358 207.884 0.681818 205.668 0.681818ZM231.922-19.6875 231.922 0 226.894 0 226.894-32.7273 231.752-32.7273 231.752-27.6136 232.178-27.6136C232.945-29.2756 234.11-30.6143 235.672-31.63 237.235-32.6456 239.252-33.1534 241.723-33.1534 243.939-33.1534 245.878-32.7024 247.54-31.8004 249.202-30.8984 250.495-29.5348 251.418-27.7095 252.341-25.8842 252.803-23.5795 252.803-20.7955L252.803 0 247.775 0 247.775-20.4545C247.775-23.0256 247.107-25.032 245.772-26.4737 244.437-27.9155 242.604-28.6364 240.275-28.6364 238.669-28.6364 237.238-28.2883 235.981-27.5923 234.724-26.8963 233.733-25.8807 233.009-24.5455 232.285-23.2102 231.922-21.5909 231.922-19.6875ZM276.075-32.7273 276.075-28.4659 259.115-28.4659 259.115-32.7273ZM264.058-40.5682 269.086-40.5682 269.086-9.375C269.086-7.95454 269.296-6.89275 269.715-6.18963 270.134-5.48651 270.674-5.01776 271.334-4.78338 271.995-4.54901 272.694-4.43182 273.433-4.43182 273.987-4.43182 274.441-4.46378 274.796-4.5277 275.151-4.59162 275.436-4.64489 275.649-4.6875L276.671-0.170455C276.33-0.0426136 275.855 0.0887784 275.244 0.223722 274.633 0.358665 273.859 0.426136 272.921 0.426136 271.501 0.426136 270.112 0.120739 268.756-0.490057 267.399-1.10085 266.277-2.03125 265.389-3.28125 264.502-4.53125 264.058-6.10795 264.058-8.01136ZM283.613 0 283.613-32.7273 288.641-32.7273 288.641 0ZM286.169-38.1818C285.189-38.1818 284.348-38.5156 283.645-39.1832 282.942-39.8508 282.59-40.6534 282.59-41.5909 282.59-42.5284 282.942-43.331 283.645-43.9986 284.348-44.6662 285.189-45 286.169-45 287.15-45 287.991-44.6662 288.694-43.9986 289.397-43.331 289.749-42.5284 289.749-41.5909 289.749-40.6534 289.397-39.8508 288.694-39.1832 287.991-38.5156 287.15-38.1818 286.169-38.1818ZM307.566 0.767045C305.492 0.767045 303.61 0.372869 301.92-0.415483 300.23-1.20384 298.887-2.3473 297.893-3.84588 296.899-5.34446 296.401-7.15909 296.401-9.28977 296.401-11.1648 296.771-12.6882 297.509-13.8601 298.248-15.032 299.235-15.9517 300.471-16.6193 301.707-17.2869 303.074-17.7876 304.573-18.1214 306.071-18.4553 307.58-18.7216 309.1-18.9205 311.089-19.1761 312.705-19.3714 313.948-19.5064 315.191-19.6413 316.1-19.8722 316.675-20.1989 317.25-20.5256 317.538-21.0937 317.538-21.9034L317.538-22.0739C317.538-24.1761 316.966-25.8097 315.823-26.9744 314.679-28.1392 312.95-28.7216 310.634-28.7216 308.234-28.7216 306.352-28.196 304.988-27.1449 303.624-26.0937 302.666-24.9716 302.112-23.7784L297.339-25.483C298.191-27.4716 299.331-29.0234 300.759-30.1385 302.186-31.2535 303.749-32.0348 305.446-32.4822 307.144-32.9297 308.816-33.1534 310.464-33.1534 311.515-33.1534 312.726-33.0291 314.097-32.7805 315.468-32.532 316.796-32.0241 318.081-31.2571 319.367-30.4901 320.436-29.3324 321.288-27.7841 322.14-26.2358 322.566-24.1619 322.566-21.5625L322.566 0 317.538 0 317.538-4.43182 317.282-4.43182C316.941-3.72159 316.373-2.96165 315.578-2.15199 314.782-1.34233 313.724-0.653409 312.403-0.0852273 311.082 0.482954 309.47 0.767045 307.566 0.767045ZM308.333-3.75C310.322-3.75 312.002-4.14062 313.372-4.92187 314.743-5.70312 315.78-6.71165 316.483-7.94744 317.186-9.18324 317.538-10.483 317.538-11.8466L317.538-16.4489C317.325-16.1932 316.86-15.9624 316.142-15.7564 315.425-15.5504 314.601-15.3729 313.671-15.2237 312.74-15.0746 311.838-14.9467 310.965-14.8402 310.091-14.7337 309.384-14.6449 308.845-14.5739 307.538-14.4034 306.32-14.13 305.191-13.7535 304.061-13.3771 303.152-12.816 302.463-12.0703 301.774-11.3246 301.43-10.3125 301.43-9.03409 301.43-7.28693 302.08-5.96946 303.379-5.08168 304.679-4.19389 306.33-3.75 308.333-3.75ZM336.766-43.6364 336.766 0 331.738 0 331.738-43.6364Z" fill="#FFFFFF" fill-rule="nonzero" fill-opacity="1" transform="matrix(1 0 0 1 56.1187 95)"/><path d="M17.8977 0.681818C14.8295 0.681818 12.1875-0.0426137 9.97159-1.49148 7.75568-2.94034 6.05114-4.93608 4.85795-7.47869 3.66477-10.0213 3.06818-12.9261 3.06818-16.1932 3.06818-19.517 3.68253-22.4538 4.91122-25.0035 6.13991-27.5533 7.85866-29.549 10.0675-30.9908 12.2763-32.4325 14.858-33.1534 17.8125-33.1534 20.1136-33.1534 22.1875-32.7273 24.0341-31.875 25.8807-31.0227 27.3935-29.8295 28.5724-28.2955 29.7514-26.7614 30.483-24.9716 30.767-22.9261L25.7386-22.9261C25.3551-24.4176 24.5064-25.7422 23.1925-26.8999 21.8785-28.0575 20.1136-28.6364 17.8977-28.6364 15.9375-28.6364 14.2223-28.1285 12.7521-27.1129 11.282-26.0973 10.1385-24.6697 9.32173-22.8303 8.50497-20.9908 8.09659-18.8352 8.09659-16.3636 8.09659-13.8352 8.49787-11.6335 9.30043-9.75852 10.103-7.88352 11.2393-6.42756 12.7095-5.39062 14.1797-4.35369 15.9091-3.83523 17.8977-3.83523 19.2045-3.83523 20.3906-4.0625 21.456-4.51705 22.5213-4.97159 23.4233-5.625 24.1619-6.47727 24.9006-7.32954 25.4261-8.35227 25.7386-9.54545L30.767-9.54545C30.483-7.61364 29.7834-5.87713 28.6683-4.33594 27.5533-2.79474 26.0831-1.57315 24.2578-0.671165 22.4325 0.230824 20.3125 0.681818 17.8977 0.681818ZM51.1269 0.681818C48.1723 0.681818 45.5836-0.0213069 43.3606-1.42756 41.1375-2.83381 39.4046-4.80114 38.1617-7.32955 36.9188-9.85795 36.2973-12.8125 36.2973-16.1932 36.2973-19.6023 36.9188-22.5781 38.1617-25.1207 39.4046-27.6633 41.1375-29.6378 43.3606-31.044 45.5836-32.4503 48.1723-33.1534 51.1269-33.1534 54.0814-33.1534 56.6702-32.4503 58.8932-31.044 61.1162-29.6378 62.8492-27.6633 64.0921-25.1207 65.335-22.5781 65.9564-19.6023 65.9564-16.1932 65.9564-12.8125 65.335-9.85795 64.0921-7.32955 62.8492-4.80114 61.1162-2.83381 58.8932-1.42756 56.6702-0.0213069 54.0814 0.681818 51.1269 0.681818ZM51.1269-3.83523C53.3712-3.83523 55.2178-4.41051 56.6667-5.56108 58.1155-6.71165 59.188-8.22443 59.884-10.0994 60.58-11.9744 60.928-14.0057 60.928-16.1932 60.928-18.3807 60.58-20.419 59.884-22.3082 59.188-24.1974 58.1155-25.7244 56.6667-26.8892 55.2178-28.054 53.3712-28.6364 51.1269-28.6364 48.8826-28.6364 47.036-28.054 45.5871-26.8892 44.1383-25.7244 43.0658-24.1974 42.3698-22.3082 41.6738-20.419 41.3258-18.3807 41.3258-16.1932 41.3258-14.0057 41.6738-11.9744 42.3698-10.0994 43.0658-8.22443 44.1383-6.71165 45.5871-5.56108 47.036-4.41051 48.8826-3.83523 51.1269-3.83523ZM78.3807-19.6875 78.3807 0 73.3523 0 73.3523-32.7273 78.2102-32.7273 78.2102-27.6136 78.6364-27.6136C79.4034-29.2756 80.5682-30.6143 82.1307-31.63 83.6932-32.6456 85.7102-33.1534 88.1818-33.1534 90.3977-33.1534 92.3366-32.7024 93.9986-31.8004 95.6605-30.8984 96.9531-29.5348 97.8764-27.7095 98.7997-25.8842 99.2614-23.5795 99.2614-20.7955L99.2614 0 94.233 0 94.233-20.4545C94.233-23.0256 93.5653-25.032 92.2301-26.4737 90.8949-27.9155 89.0625-28.6364 86.733-28.6364 85.1278-28.6364 83.6967-28.2883 82.4396-27.5923 81.1825-26.8963 80.1918-25.8807 79.4673-24.5455 78.7429-23.2102 78.3807-21.5909 78.3807-19.6875ZM122.533-32.7273 122.533-28.4659 105.573-28.4659 105.573-32.7273ZM110.516-40.5682 115.545-40.5682 115.545-9.375C115.544-7.95454 115.754-6.89275 116.173-6.18963 116.592-5.48651 117.132-5.01776 117.792-4.78338 118.453-4.54901 119.152-4.43182 119.891-4.43182 120.445-4.43182 120.9-4.46378 121.255-4.5277 121.61-4.59162 121.894-4.64489 122.107-4.6875L123.13-0.170455C122.789-0.0426136 122.313 0.0887784 121.702 0.223722 121.091 0.358665 120.317 0.426136 119.38 0.426136 117.959 0.426136 116.571 0.120739 115.214-0.490057 113.858-1.10085 112.736-2.03125 111.848-3.28125 110.96-4.53125 110.516-6.10795 110.516-8.01136ZM143.793 0.681818C140.639 0.681818 137.923-0.0177557 135.643-1.4169 133.363-2.81605 131.609-4.77628 130.38-7.29758 129.151-9.81889 128.537-12.7557 128.537-16.108 128.537-19.4602 129.151-22.4183 130.38-24.9822 131.609-27.5462 133.327-29.549 135.536-30.9908 137.745-32.4325 140.327-33.1534 143.281-33.1534 144.986-33.1534 146.669-32.8693 148.331-32.3011 149.993-31.733 151.506-30.8132 152.869-29.5419 154.233-28.2706 155.32-26.5909 156.129-24.5028 156.939-22.4148 157.344-19.8437 157.344-16.7898L157.344-14.6591 132.116-14.6591 132.116-19.0057 152.23-19.0057C152.23-20.8523 151.864-22.5 151.133-23.9489 150.401-25.3977 149.364-26.5412 148.022-27.3793 146.68-28.2173 145.099-28.6364 143.281-28.6364 141.278-28.6364 139.549-28.1428 138.093-27.1555 136.637-26.1683 135.518-24.8864 134.737-23.3097 133.956-21.733 133.565-20.0426 133.565-18.2386L133.565-15.3409C133.565-12.8693 133.995-10.7777 134.854-9.06605 135.714-7.3544 136.911-6.05469 138.445-5.1669 139.979-4.27912 141.761-3.83523 143.793-3.83523 145.114-3.83523 146.31-4.02344 147.383-4.39986 148.455-4.77628 149.382-5.34446 150.163-6.1044 150.945-6.86435 151.548-7.8125 151.974-8.94886L156.832-7.58523C156.321-5.9375 155.462-4.49219 154.254-3.24929 153.047-2.00639 151.555-1.04048 149.78-0.351562 148.004 0.337358 146.009 0.681818 143.793 0.681818ZM168.769-32.7273 176.61-19.3466 184.451-32.7273 190.246-32.7273 179.678-16.3636 190.246 0 184.451 0 176.61-12.6989 168.769 0 162.973 0 173.371-16.3636 162.973-32.7273ZM211.335-32.7273 211.335-28.4659 194.375-28.4659 194.375-32.7273ZM199.318-40.5682 204.347-40.5682 204.347-9.375C204.347-7.95454 204.556-6.89275 204.975-6.18963 205.394-5.48651 205.934-5.01776 206.594-4.78338 207.255-4.54901 207.955-4.43182 208.693-4.43182 209.247-4.43182 209.702-4.46378 210.057-4.5277 210.412-4.59162 210.696-4.64489 210.909-4.6875L211.932-0.170455C211.591-0.0426136 211.115 0.0887784 210.504 0.223722 209.893 0.358665 209.119 0.426136 208.182 0.426136 206.761 0.426136 205.373 0.120739 204.016-0.490057 202.66-1.10085 201.538-2.03125 200.65-3.28125 199.762-4.53125 199.318-6.10795 199.318-8.01136Z" fill="#FFFFFF" fill-rule="nonzero" fill-opacity="1" transform="matrix(1 0 0 1 119.712 167)"/></g></g></g></g><path d="M1515.5 502.5 2081.5 502.5 2081.5 683.786 1833.37 683.786 1833.37 711.75 1868.25 711.75 1798.5 781.5 1728.75 711.75 1763.63 711.75 1763.63 683.786 1515.5 683.786Z" stroke="#000000" stroke-width="4.58333" stroke-linecap="butt" stroke-linejoin="miter" stroke-miterlimit="8" stroke-opacity="1" fill="#000000" fill-rule="evenodd" fill-opacity="1"/><text fill="#FFFFFF" fill-opacity="1" font-family="Inter,Inter_MSFontService,sans-serif" font-style="normal" font-variant="normal" font-weight="400" font-stretch="normal" font-size="60" text-anchor="start" direction="ltr" writing-mode="lr-tb" unicode-bidi="normal" text-decoration="none" transform="matrix(1 0 0 1 1627.4 578)">Confidential </text><text fill="#FFFFFF" fill-opacity="1" font-family="Inter,Inter_MSFontService,sans-serif" font-style="normal" font-variant="normal" font-weight="400" font-stretch="normal" font-size="60" text-anchor="start" direction="ltr" writing-mode="lr-tb" unicode-bidi="normal" text-decoration="none" transform="matrix(1 0 0 1 1690.99 650)">context</text><rect x="944" y="1175" width="500" height="110" fill="#90FF99" fill-opacity="1"/><text fill="#000000" fill-opacity="1" font-family="Inter,Inter_MSFontService,sans-serif" font-style="normal" font-variant="normal" font-weight="400" font-stretch="normal" font-size="63" text-anchor="start" direction="ltr" writing-mode="lr-tb" unicode-bidi="normal" text-decoration="none" transform="matrix(1 0 0 1 1030.39 1252)">Attestation</text><g><g><g><path d="M44.4375 217.25 192.563 217.25 192.563 19.75 44.4375 19.75ZM49.375 24.6875 187.625 24.6875 187.625 212.313 49.375 212.313Z" fill="#000000" fill-rule="nonzero" fill-opacity="1" transform="matrix(1.05485 0 0 1 1068 954)"/><path d="M69.1251 56.7813 167.875 56.7813 167.875 61.7188 69.1251 61.7188Z" fill="#000000" fill-rule="nonzero" fill-opacity="1" transform="matrix(1.05485 0 0 1 1068 954)"/><path d="M69.1251 76.5313 167.875 76.5313 167.875 81.4688 69.1251 81.4688Z" fill="#000000" fill-rule="nonzero" fill-opacity="1" transform="matrix(1.05485 0 0 1 1068 954)"/><path d="M69.1251 96.2813 167.875 96.2813 167.875 101.219 69.1251 101.219Z" fill="#000000" fill-rule="nonzero" fill-opacity="1" transform="matrix(1.05485 0 0 1 1068 954)"/><path d="M69.1251 116.031 118.5 116.031 118.5 120.969 69.1251 120.969Z" fill="#000000" fill-rule="nonzero" fill-opacity="1" transform="matrix(1.05485 0 0 1 1068 954)"/><path d="M118.5 165.406 167.875 165.406 167.875 170.344 118.5 170.344Z" fill="#000000" fill-rule="nonzero" fill-opacity="1" transform="matrix(1.05485 0 0 1 1068 954)"/><path d="M98.2391 151.317 85.7891 163.767 73.3392 151.317 69.8484 154.808 82.2983 167.258 69.8484 179.708 73.3392 183.199 85.7891 170.749 98.2391 183.199 101.73 179.708 89.28 167.258 101.73 154.808 98.2391 151.317Z" fill="#000000" fill-rule="nonzero" fill-opacity="1" transform="matrix(1.05485 0 0 1 1068 954)"/></g></g></g><path d="M1.22101e-06-3.4375 993.101-3.43715 993.101 3.43785-1.22101e-06 3.4375ZM988.518-13.7496 1016.02 0.000360892 988.518 13.7504Z" fill="#000000" fill-rule="nonzero" fill-opacity="1" transform="matrix(1 0 0 -1 1136.5 1678.5)"/><path d="M1197.72 1285.66 1197.15 1297.98 1195.48 1310.34 1192.79 1322.5 1189.16 1334.36 1184.65 1345.82 1179.34 1356.79 1173.3 1367.19 1166.6 1376.91 1159.3 1385.88 1151.47 1393.98 1143.17 1401.13 1134.47 1407.22 1125.42 1412.16 1116.09 1415.83 1106.62 1418.11 1101.74 1418.7 1097.03 1418.9 1092.47 1419.09 1092.74 1419.06 1088.19 1419.62 1088.58 1419.55 1079.53 1421.73 1079.98 1421.58 1071.08 1425.09 1071.47 1424.91 1062.78 1429.65 1063.1 1429.45 1054.7 1435.33 1054.97 1435.12 1046.92 1442.06 1047.15 1441.84 1039.53 1449.72 1039.72 1449.51 1032.6 1458.25 1032.77 1458.03 1026.21 1467.53 1026.36 1467.31 1020.45 1477.48 1020.57 1477.25 1015.37 1487.99 1015.48 1487.75 1011.07 1498.96 1011.16 1498.71 1007.6 1510.31 1007.7 1509.92 1005.28 1523.25 998.514 1522.02 1000.97 1508.49 1004.62 1496.57 1009.13 1485.11 1014.44 1474.14 1020.48 1463.74 1027.18 1454.01 1034.48 1445.05 1042.31 1436.95 1050.61 1429.8 1059.32 1423.71 1068.36 1418.77 1077.69 1415.1 1087.16 1412.82 1092.05 1412.22 1096.75 1412.03 1101.31 1411.84 1101.04 1411.86 1105.59 1411.31 1105.21 1411.38 1114.25 1409.2 1113.8 1409.35 1122.7 1405.84 1122.31 1406.02 1131.01 1401.28 1130.68 1401.48 1139.09 1395.59 1138.81 1395.8 1146.86 1388.87 1146.63 1389.09 1154.25 1381.2 1154.06 1381.42 1161.18 1372.68 1161.02 1372.9 1167.57 1363.4 1167.43 1363.62 1173.33 1353.45 1173.21 1353.68 1178.41 1342.94 1178.3 1343.18 1182.71 1331.96 1182.63 1332.21 1186.18 1320.62 1186.11 1320.88 1188.74 1309 1188.69 1309.28 1190.32 1297.21 1190.29 1297.51 1190.85 1285.34ZM1016.05 1519.52 999.5 1545.43 988.7 1516.64Z" fill="#000000" fill-rule="nonzero" fill-opacity="1"/><g><g><g><path d="M274.552 115.209C274.552 178.838 222.971 230.418 159.343 230.418 95.7145 230.418 44.1336 178.838 44.1336 115.209 44.1336 51.5809 95.7145 0 159.343-1.45855e-14 222.971-2.9171e-14 274.552 51.5809 274.552 115.209Z" fill="#90FF99" fill-rule="nonzero" fill-opacity="1" transform="matrix(1.00099 0 0 1 3044 1535)"/><path d="M274.552 115.209C274.552 178.838 222.971 230.418 159.343 230.418 95.7145 230.418 44.1336 178.838 44.1336 115.209 44.1336 51.5809 95.7145 0 159.343 0 181.521 0 202.235 6.26666 219.812 17.1258 215.267 21.6755 212.457 27.9577 212.457 34.8963 212.457 48.784 223.715 60.0422 237.603 60.0422 244.775 60.0422 251.245 57.0401 255.826 52.2234 267.668 70.3259 274.552 91.9636 274.552 115.209ZM262.749 34.8963C262.749 41.6123 260.116 47.7134 255.826 52.2234 246.553 38.0473 234.24 26.0394 219.812 17.1258 224.363 12.5692 230.654 9.75045 237.603 9.75045 251.491 9.75045 262.749 21.0086 262.749 34.8963ZM176.554 163.715C195.902 156.864 208.333 139.216 209.474 119.938L239.967 109.14C243.543 145.069 222.391 180.148 186.832 192.74 145.02 207.545 99.1236 185.653 84.3178 143.841 69.512 102.03 91.4043 56.1323 133.216 41.3265 168.948 28.6737 207.664 42.8227 227.409 73.3013L196.999 84.0694C184.007 69.5073 163.027 63.4344 143.494 70.3515 117.713 79.481 104.213 107.782 113.342 133.563 122.472 159.345 150.773 172.844 176.554 163.715Z" fill="#000000" fill-rule="evenodd" fill-opacity="1" transform="matrix(1.00099 0 0 1 3044 1535)"/><path d="M35.8425 278.329 43.0351 278.329C42.8907 280.686 42.2412 282.779 41.0866 284.607 39.948 286.435 38.3523 287.863 36.2996 288.889 34.2629 289.916 31.8092 290.429 28.9386 290.429 26.6934 290.429 24.6808 290.044 22.9007 289.274 21.1206 288.488 19.5971 287.366 18.3302 285.906 17.0793 284.447 16.1251 282.683 15.4676 280.614 14.8101 278.545 14.4814 276.228 14.4814 273.662L14.4814 271.232C14.4814 268.666 14.8181 266.349 15.4917 264.28 16.1812 262.196 17.1595 260.424 18.4264 258.964 19.7093 257.505 21.2409 256.382 23.021 255.596 24.8011 254.81 26.7897 254.418 28.9867 254.418 31.9055 254.418 34.3671 254.947 36.3717 256.005 38.3924 257.064 39.956 258.523 41.0625 260.384 42.1851 262.244 42.8587 264.361 43.0832 266.734L35.8666 266.734C35.7864 265.323 35.5057 264.128 35.0246 263.15 34.5435 262.156 33.8138 261.41 32.8356 260.913 31.8734 260.4 30.5904 260.143 28.9867 260.143 27.7839 260.143 26.7336 260.367 25.8355 260.816 24.9374 261.265 24.1837 261.947 23.5743 262.861 22.9649 263.775 22.5078 264.93 22.2031 266.325 21.9144 267.704 21.7701 269.324 21.7701 271.185L21.7701 273.662C21.7701 275.474 21.9064 277.07 22.1791 278.449 22.4517 279.812 22.8686 280.967 23.4299 281.913 24.0072 282.843 24.745 283.549 25.6431 284.03 26.5571 284.495 27.6557 284.727 28.9386 284.727 30.4461 284.727 31.689 284.487 32.6672 284.006 33.6455 283.525 34.3912 282.811 34.9043 281.865 35.4336 280.919 35.7463 279.74 35.8425 278.329ZM46.2345 277.198 46.2345 276.693C46.2345 274.785 46.5071 273.028 47.0523 271.425 47.5976 269.805 48.3914 268.402 49.4338 267.215 50.4762 266.029 51.759 265.106 53.2826 264.449 54.8062 263.775 56.5541 263.439 58.5268 263.439 60.4995 263.439 62.2551 263.775 63.7946 264.449 65.3341 265.106 66.6253 266.029 67.6676 267.215 68.7263 268.402 69.5279 269.805 70.0734 271.425 70.6184 273.028 70.8914 274.785 70.8914 276.693L70.8914 277.198C70.8914 279.091 70.6184 280.847 70.0734 282.466 69.5279 284.07 68.7263 285.473 67.6676 286.676 66.6253 287.863 65.3424 288.785 63.8187 289.443 62.2956 290.1 60.5472 290.429 58.575 290.429 56.6024 290.429 54.8463 290.1 53.3067 289.443 51.7831 288.785 50.4922 287.863 49.4338 286.676 48.3914 285.473 47.5976 284.07 47.0523 282.466 46.5071 280.847 46.2345 279.091 46.2345 277.198ZM53.1625 276.693 53.1625 277.198C53.1625 278.289 53.2585 279.307 53.4509 280.253 53.6434 281.199 53.9482 282.033 54.3654 282.755 54.798 283.46 55.3594 284.014 56.0492 284.415 56.7384 284.816 57.5805 285.016 58.575 285.016 59.5373 285.016 60.363 284.816 61.0527 284.415 61.7419 284.014 62.2956 283.46 62.7123 282.755 63.1295 282.033 63.4338 281.199 63.6263 280.253 63.8351 279.307 63.9393 278.289 63.9393 277.198L63.9393 276.693C63.9393 275.634 63.8351 274.64 63.6263 273.71 63.4338 272.764 63.1213 271.93 62.6882 271.208 62.2715 270.471 61.7183 269.893 61.0286 269.476 60.3388 269.059 59.5049 268.851 58.5268 268.851 57.5487 268.851 56.7148 269.059 56.025 269.476 55.3512 269.893 54.798 270.471 54.3654 271.208 53.9482 271.93 53.6434 272.764 53.4509 273.71 53.2585 274.64 53.1625 275.634 53.1625 276.693ZM81.9325 269.476 81.9325 289.947 75.0045 289.947 75.0045 263.919 81.4994 263.919 81.9325 269.476ZM80.9225 276.019 79.0458 276.019C79.0458 274.095 79.2947 272.363 79.7915 270.823 80.2888 269.268 80.9862 267.945 81.8842 266.854 82.7823 265.748 83.8492 264.906 85.0839 264.328 86.3346 263.735 87.7299 263.439 89.2694 263.439 90.4883 263.439 91.6029 263.615 92.6133 263.968 93.6238 264.32 94.4895 264.882 95.2111 265.651 95.949 266.421 96.5099 267.44 96.8948 268.706 97.2961 269.973 97.4962 271.521 97.4962 273.349L97.4962 289.947 90.5206 289.947 90.5206 273.325C90.5206 272.17 90.36 271.272 90.0392 270.631 89.7185 269.989 89.2453 269.54 88.6203 269.284 88.0106 269.011 87.2567 268.875 86.3587 268.875 85.4288 268.875 84.619 269.059 83.9293 269.428 83.2555 269.797 82.6946 270.31 82.2455 270.968 81.8124 271.609 81.4835 272.363 81.2592 273.229 81.0344 274.095 80.9225 275.025 80.9225 276.019ZM116.837 282.755C116.837 282.258 116.693 281.809 116.404 281.408 116.116 281.007 115.578 280.638 114.793 280.301 114.023 279.949 112.908 279.628 111.449 279.339 110.133 279.051 108.907 278.689 107.768 278.257 106.645 277.808 105.667 277.27 104.833 276.645 104.016 276.019 103.374 275.282 102.909 274.432 102.444 273.566 102.211 272.579 102.211 271.473 102.211 270.382 102.444 269.356 102.909 268.394 103.39 267.432 104.072 266.582 104.954 265.844 105.852 265.09 106.942 264.505 108.225 264.088 109.524 263.655 110.984 263.439 112.603 263.439 114.864 263.439 116.805 263.799 118.425 264.521 120.06 265.242 121.311 266.237 122.177 267.504 123.059 268.755 123.5 270.182 123.5 271.785L116.572 271.785C116.572 271.112 116.428 270.511 116.139 269.982 115.867 269.436 115.434 269.011 114.84 268.706 114.263 268.386 113.51 268.226 112.579 268.226 111.809 268.226 111.144 268.362 110.582 268.635 110.021 268.891 109.588 269.244 109.284 269.693 108.995 270.126 108.85 270.607 108.85 271.136 108.85 271.537 108.931 271.898 109.091 272.219 109.268 272.523 109.548 272.804 109.933 273.061 110.318 273.317 110.815 273.557 111.425 273.782 112.05 273.991 112.82 274.183 113.734 274.36 115.61 274.744 117.286 275.249 118.761 275.875 120.237 276.485 121.407 277.319 122.274 278.377 123.139 279.419 123.573 280.79 123.573 282.49 123.573 283.645 123.316 284.703 122.803 285.665 122.29 286.628 121.552 287.47 120.589 288.191 119.627 288.897 118.473 289.45 117.125 289.851 115.795 290.236 114.295 290.429 112.627 290.429 110.206 290.429 108.153 289.996 106.469 289.129 104.801 288.264 103.534 287.165 102.668 285.834 101.818 284.487 101.393 283.108 101.393 281.697L107.961 281.697C107.993 282.643 108.233 283.404 108.682 283.982 109.148 284.559 109.733 284.976 110.438 285.232 111.16 285.489 111.938 285.617 112.772 285.617 113.67 285.617 114.415 285.497 115.009 285.257 115.602 285 116.051 284.663 116.356 284.247 116.676 283.813 116.837 283.316 116.837 282.755ZM140.82 263.919 140.82 268.827 125.665 268.827 125.665 263.919 140.82 263.919ZM129.418 257.497 136.346 257.497 136.346 282.106C136.346 282.859 136.442 283.436 136.635 283.838 136.843 284.238 137.148 284.519 137.549 284.679 137.949 284.824 138.455 284.896 139.064 284.896 139.497 284.896 139.882 284.88 140.219 284.848 140.572 284.8 140.868 284.752 141.109 284.703L141.133 289.803C140.539 289.996 139.898 290.148 139.209 290.26 138.519 290.372 137.757 290.429 136.923 290.429 135.4 290.429 134.069 290.18 132.93 289.683 131.808 289.169 130.941 288.352 130.332 287.229 129.723 286.107 129.418 284.631 129.418 282.803L129.418 257.497ZM156.745 290.429C154.724 290.429 152.912 290.108 151.308 289.466 149.705 288.809 148.341 287.903 147.219 286.748 146.112 285.594 145.262 284.254 144.669 282.731 144.076 281.192 143.779 279.556 143.779 277.824L143.779 276.861C143.779 274.889 144.06 273.085 144.621 271.449 145.182 269.813 145.984 268.394 147.026 267.191 148.085 265.988 149.368 265.066 150.875 264.425 152.383 263.767 154.083 263.439 155.975 263.439 157.819 263.439 159.455 263.743 160.882 264.353 162.31 264.962 163.504 265.828 164.466 266.951 165.445 268.073 166.183 269.42 166.68 270.992 167.177 272.548 167.425 274.28 167.425 276.188L167.425 279.074 146.738 279.074 146.738 274.456 160.618 274.456 160.618 273.926C160.618 272.964 160.442 272.106 160.088 271.353 159.752 270.583 159.239 269.973 158.549 269.524 157.859 269.075 156.978 268.851 155.903 268.851 154.989 268.851 154.203 269.051 153.545 269.452 152.888 269.853 152.351 270.415 151.934 271.136 151.533 271.858 151.228 272.708 151.02 273.686 150.827 274.649 150.731 275.707 150.731 276.861L150.731 277.824C150.731 278.866 150.875 279.828 151.164 280.71 151.469 281.592 151.893 282.354 152.439 282.995 153 283.637 153.674 284.134 154.459 284.487 155.261 284.84 156.167 285.016 157.178 285.016 158.429 285.016 159.591 284.776 160.666 284.294 161.756 283.798 162.694 283.051 163.48 282.057L166.848 285.714C166.303 286.499 165.557 287.253 164.611 287.975 163.681 288.696 162.558 289.29 161.243 289.755 159.928 290.204 158.429 290.429 156.745 290.429ZM178.684 252.998 178.684 289.947 171.732 289.947 171.732 252.998 178.684 252.998ZM191.721 252.998 191.721 289.947 184.769 289.947 184.769 252.998 191.721 252.998ZM211.495 284.078 211.495 272.483C211.495 271.649 211.358 270.936 211.086 270.342 210.813 269.733 210.388 269.26 209.811 268.923 209.25 268.586 208.52 268.418 207.622 268.418 206.852 268.418 206.187 268.554 205.626 268.827 205.064 269.084 204.631 269.46 204.326 269.958 204.021 270.438 203.87 271.008 203.87 271.665L196.942 271.665C196.942 270.559 197.198 269.508 197.711 268.514 198.225 267.52 198.97 266.646 199.948 265.892 200.926 265.122 202.089 264.521 203.436 264.088 204.799 263.655 206.323 263.439 208.007 263.439 210.028 263.439 211.824 263.775 213.395 264.449 214.967 265.122 216.202 266.133 217.1 267.48 218.014 268.827 218.471 270.511 218.471 272.531L218.471 283.669C218.471 285.096 218.559 286.267 218.735 287.181 218.912 288.079 219.168 288.865 219.505 289.538L219.505 289.947 212.505 289.947C212.169 289.242 211.912 288.36 211.736 287.302 211.575 286.227 211.495 285.152 211.495 284.078ZM212.409 274.095 212.457 278.016 208.584 278.016C207.67 278.016 206.876 278.12 206.202 278.329 205.529 278.537 204.976 278.834 204.543 279.219 204.11 279.587 203.789 280.021 203.581 280.518 203.388 281.015 203.292 281.56 203.292 282.153 203.292 282.747 203.428 283.284 203.701 283.765 203.974 284.23 204.366 284.599 204.879 284.872 205.393 285.128 205.994 285.257 206.684 285.257 207.726 285.257 208.632 285.048 209.402 284.631 210.172 284.214 210.765 283.701 211.182 283.092 211.615 282.482 211.84 281.905 211.856 281.36L213.684 284.294C213.428 284.952 213.074 285.634 212.625 286.339 212.192 287.045 211.639 287.711 210.966 288.336 210.292 288.945 209.482 289.45 208.536 289.851 207.59 290.236 206.467 290.429 205.168 290.429 203.516 290.429 202.017 290.1 200.67 289.443 199.339 288.769 198.28 287.847 197.495 286.676 196.725 285.489 196.34 284.142 196.34 282.635 196.34 281.272 196.597 280.061 197.11 279.002 197.623 277.944 198.376 277.054 199.371 276.332 200.381 275.594 201.64 275.041 203.147 274.672 204.655 274.287 206.403 274.095 208.392 274.095L212.409 274.095ZM236.561 263.919 236.561 268.827 221.406 268.827 221.406 263.919 236.561 263.919ZM225.158 257.497 232.086 257.497 232.086 282.106C232.086 282.859 232.183 283.436 232.375 283.838 232.584 284.238 232.888 284.519 233.289 284.679 233.69 284.824 234.195 284.896 234.805 284.896 235.238 284.896 235.623 284.88 235.959 284.848 236.312 284.8 236.608 284.752 236.849 284.703L236.873 289.803C236.28 289.996 235.639 290.148 234.949 290.26 234.259 290.372 233.498 290.429 232.664 290.429 231.14 290.429 229.809 290.18 228.671 289.683 227.548 289.169 226.682 288.352 226.072 287.229 225.463 286.107 225.158 284.631 225.158 282.803L225.158 257.497ZM247.818 263.919 247.818 289.947 240.866 289.947 240.866 263.919 247.818 263.919ZM240.434 257.136C240.434 256.126 240.786 255.292 241.492 254.634 242.197 253.977 243.144 253.648 244.33 253.648 245.501 253.648 246.439 253.977 247.145 254.634 247.867 255.292 248.227 256.126 248.227 257.136 248.227 258.146 247.867 258.98 247.145 259.638 246.439 260.295 245.501 260.624 244.33 260.624 243.144 260.624 242.197 260.295 241.492 259.638 240.786 258.98 240.434 258.146 240.434 257.136ZM252.437 277.198 252.437 276.693C252.437 274.785 252.71 273.028 253.255 271.425 253.8 269.805 254.594 268.402 255.637 267.215 256.679 266.029 257.962 265.106 259.486 264.449 261.009 263.775 262.757 263.439 264.729 263.439 266.702 263.439 268.458 263.775 269.998 264.449 271.537 265.106 272.828 266.029 273.871 267.215 274.929 268.402 275.731 269.805 276.276 271.425 276.821 273.028 277.094 274.785 277.094 276.693L277.094 277.198C277.094 279.091 276.821 280.847 276.276 282.466 275.731 284.07 274.929 285.473 273.871 286.676 272.828 287.863 271.545 288.785 270.022 289.443 268.498 290.1 266.75 290.429 264.777 290.429 262.805 290.429 261.049 290.1 259.51 289.443 257.986 288.785 256.695 287.863 255.637 286.676 254.594 285.473 253.8 284.07 253.255 282.466 252.71 280.847 252.437 279.091 252.437 277.198ZM259.365 276.693 259.365 277.198C259.365 278.289 259.461 279.307 259.654 280.253 259.846 281.199 260.151 282.033 260.568 282.755 261.001 283.46 261.562 284.014 262.252 284.415 262.941 284.816 263.783 285.016 264.777 285.016 265.74 285.016 266.566 284.816 267.255 284.415 267.945 284.014 268.498 283.46 268.915 282.755 269.332 282.033 269.637 281.199 269.829 280.253 270.038 279.307 270.142 278.289 270.142 277.198L270.142 276.693C270.142 275.634 270.038 274.64 269.829 273.71 269.637 272.764 269.324 271.93 268.891 271.208 268.474 270.471 267.921 269.893 267.231 269.476 266.542 269.059 265.708 268.851 264.729 268.851 263.751 268.851 262.917 269.059 262.227 269.476 261.554 269.893 261.001 270.471 260.568 271.208 260.151 271.93 259.846 272.764 259.654 273.71 259.461 274.64 259.365 275.634 259.365 276.693ZM288.135 269.476 288.135 289.947 281.207 289.947 281.207 263.919 287.702 263.919 288.135 269.476ZM287.125 276.019 285.249 276.019C285.249 274.095 285.497 272.363 285.994 270.823 286.492 269.268 287.189 267.945 288.087 266.854 288.985 265.748 290.052 264.906 291.286 264.328 292.538 263.735 293.933 263.439 295.472 263.439 296.691 263.439 297.805 263.615 298.816 263.968 299.826 264.32 300.692 264.882 301.414 265.651 302.151 266.421 302.713 267.44 303.098 268.706 303.499 269.973 303.699 271.521 303.699 273.349L303.699 289.947 296.723 289.947 296.723 273.325C296.723 272.17 296.563 271.272 296.242 270.631 295.921 269.989 295.448 269.54 294.823 269.284 294.213 269.011 293.46 268.875 292.562 268.875 291.631 268.875 290.821 269.059 290.132 269.428 289.458 269.797 288.897 270.31 288.448 270.968 288.015 271.609 287.686 272.363 287.462 273.229 287.237 274.095 287.125 275.025 287.125 276.019Z" fill="#000000" fill-rule="nonzero" fill-opacity="1" transform="matrix(1.00099 0 0 1 3044 1535)"/></g></g></g></g></g></svg>